<?xml version="1.0" encoding="UTF-8" standalone="no"?>
<!DOCTYPE svg PUBLIC "-//W3C//DTD SVG 1.1//EN" 
  "http://www.w3.org/Graphics/SVG/1.1/DTD/svg11.dtd">
<svg width="50" height="50"
     xmlns="http://www.w3.org/2000/svg" version="1.1">
 <path d="  M 11,47  L 11,40  L 15,40  L 15,39  L 19,39  L 19,38  L 20,38  L 20,32  L 19,32  L 19,30  L 3,30  L 3,20  L 5,20  L 5,19  L 7,19  L 7,18  L 9,18  L 9,17  L 11,17  L 11,16  L 13,16  L 13,15  L 15,15  L 15,14  L 17,14  L 17,11  L 18,11  L 18,9  L 19,9  L 19,7  L 20,7  L 20,5  L 21,5  L 21,4  L 22,4  L 22,3  L 28,3  L 28,4  L 29,4  L 29,5  L 30,5  L 30,7  L 31,7  L 31,9  L 32,9  L 32,11  L 33,11  L 33,14  L 35,14  L 35,15  L 37,15  L 37,16  L 39,16  L 39,17  L 41,17  L 41,18  L 43,18  L 43,19  L 45,19  L 45,20  L 47,20  L 47,30  L 31,30  L 31,31  L 30,31  L 30,38  L 31,38  L 31,39  L 35,39  L 35,40  L 39,40  L 39,47  Z  M 0,0  L 0,50  L 50,50  L 50,0  Z  " style="fill:rgb(0, 0, 0); fill-opacity:0.000; stroke:none;" />
 <path d="  M 19,27  L 19,24  L 18,24  L 18,17  L 17,17  L 17,18  L 15,18  L 15,19  L 13,19  L 13,20  L 11,20  L 11,21  L 9,21  L 9,22  L 7,22  L 7,23  L 6,23  L 6,27  Z  " style="fill:rgb(0, 0, 0); fill-opacity:0.000; stroke:none;" />
 <path d="  M 21,42  L 16,42  L 16,43  L 14,43  L 14,44  L 21,44  Z  " style="fill:rgb(0, 0, 0); fill-opacity:0.000; stroke:none;" />
 <path d="  M 26,37  L 27,37  L 27,29  L 28,29  L 28,21  L 29,21  L 29,11  L 28,11  L 28,9  L 27,9  L 27,7  L 26,7  L 26,6  L 24,6  L 24,7  L 23,7  L 23,9  L 22,9  L 22,11  L 21,11  L 21,13  L 20,13  L 20,14  L 21,14  L 21,22  L 22,22  L 22,30  L 23,30  L 23,38  L 24,38  L 24,44  L 26,44  Z  " style="fill:rgb(0, 0, 0); fill-opacity:0.000; stroke:none;" />
 <path d="  M 29,42  L 29,44  L 36,44  L 36,43  L 34,43  L 34,42  Z  " style="fill:rgb(0, 0, 0); fill-opacity:0.000; stroke:none;" />
 <path d="  M 44,23  L 43,23  L 43,22  L 41,22  L 41,21  L 39,21  L 39,20  L 37,20  L 37,19  L 35,19  L 35,18  L 33,18  L 33,17  L 32,17  L 32,23  L 31,23  L 31,27  L 44,27  Z  " style="fill:rgb(0, 0, 0); fill-opacity:0.000; stroke:none;" />
 <path d="  M 3,20  L 3,21  L 4,21  L 4,20  Z  " style="fill:rgb(0, 0, 0); fill-opacity:0.067; stroke:none;" />
 <path d="  M 4,22  L 4,21  L 3,21  L 3,22  Z  " style="fill:rgb(0, 0, 0); fill-opacity:0.784; stroke:none;" />
 <path d="  M 18,39  L 18,40  L 19,40  L 19,39  Z  " style="fill:rgb(0, 0, 0); fill-opacity:0.784; stroke:none;" />
 <path d="  M 21,20  L 20,20  L 20,21  L 21,21  Z  " style="fill:rgb(0, 0, 0); fill-opacity:0.784; stroke:none;" />
 <path d="  M 21,28  L 21,29  L 22,29  L 22,28  Z  " style="fill:rgb(0, 0, 0); fill-opacity:0.784; stroke:none;" />
 <path d="  M 4,22  L 3,22  L 3,28  L 4,28  Z  " style="fill:rgb(0, 0, 0); fill-opacity:0.918; stroke:none;" />
 <path d="  M 3,29  L 4,29  L 4,28  L 3,28  Z  " style="fill:rgb(0, 0, 0); fill-opacity:0.769; stroke:none;" />
 <path d="  M 32,40  L 32,39  L 31,39  L 31,40  Z  " style="fill:rgb(0, 0, 0); fill-opacity:0.769; stroke:none;" />
 <path d="  M 3,29  L 3,30  L 4,30  L 4,29  Z  " style="fill:rgb(0, 0, 0); fill-opacity:0.027; stroke:none;" />
 <path d="  M 19,24  L 19,23  L 18,23  L 18,24  Z  " style="fill:rgb(0, 0, 0); fill-opacity:0.027; stroke:none;" />
 <path d="  M 20,32  L 20,31  L 19,31  L 19,32  Z  " style="fill:rgb(0, 0, 0); fill-opacity:0.027; stroke:none;" />
 <path d="  M 5,20  L 4,20  L 4,21  L 5,21  Z  " style="fill:rgb(0, 0, 0); fill-opacity:0.510; stroke:none;" />
 <path d="  M 20,29  L 20,31  L 21,31  L 21,22  L 20,22  L 20,14  L 19,14  L 19,12  L 18,12  L 18,15  L 16,15  L 16,16  L 19,16  L 19,23  L 20,23  L 20,28  L 5,28  L 5,22  L 6,22  L 6,21  L 4,21  L 4,29  Z  " style="fill:rgb(0, 0, 0); fill-opacity:1.000; stroke:none;" />
 <path d="  M 6,20  L 6,21  L 8,21  L 8,20  Z  " style="fill:rgb(0, 0, 0); fill-opacity:1.000; stroke:none;" />
 <path d="  M 10,19  L 8,19  L 8,20  L 10,20  Z  " style="fill:rgb(0, 0, 0); fill-opacity:1.000; stroke:none;" />
 <path d="  M 12,18  L 10,18  L 10,19  L 12,19  Z  " style="fill:rgb(0, 0, 0); fill-opacity:1.000; stroke:none;" />
 <path d="  M 14,18  L 14,17  L 12,17  L 12,18  Z  " style="fill:rgb(0, 0, 0); fill-opacity:1.000; stroke:none;" />
 <path d="  M 22,40  L 22,45  L 13,45  L 13,42  L 15,42  L 15,41  L 12,41  L 12,46  L 38,46  L 38,41  L 35,41  L 35,42  L 37,42  L 37,45  L 23,45  L 23,39  L 22,39  L 22,31  L 21,31  L 21,39  L 20,39  L 20,40  Z  " style="fill:rgb(0, 0, 0); fill-opacity:1.000; stroke:none;" />
 <path d="  M 14,16  L 14,17  L 16,17  L 16,16  Z  " style="fill:rgb(0, 0, 0); fill-opacity:1.000; stroke:none;" />
 <path d="  M 20,41  L 20,40  L 15,40  L 15,41  Z  " style="fill:rgb(0, 0, 0); fill-opacity:1.000; stroke:none;" />
 <path d="  M 20,10  L 19,10  L 19,12  L 20,12  Z  " style="fill:rgb(0, 0, 0); fill-opacity:1.000; stroke:none;" />
 <path d="  M 21,8  L 20,8  L 20,10  L 21,10  Z  " style="fill:rgb(0, 0, 0); fill-opacity:1.000; stroke:none;" />
 <path d="  M 21,6  L 21,8  L 22,8  L 22,6  Z  " style="fill:rgb(0, 0, 0); fill-opacity:1.000; stroke:none;" />
 <path d="  M 22,5  L 22,6  L 23,6  L 23,5  Z  " style="fill:rgb(0, 0, 0); fill-opacity:1.000; stroke:none;" />
 <path d="  M 23,4  L 23,5  L 27,5  L 27,4  Z  " style="fill:rgb(0, 0, 0); fill-opacity:1.000; stroke:none;" />
 <path d="  M 28,5  L 27,5  L 27,6  L 28,6  Z  " style="fill:rgb(0, 0, 0); fill-opacity:1.000; stroke:none;" />
 <path d="  M 28,39  L 28,38  L 27,38  L 27,44  L 28,44  L 28,40  L 30,40  L 30,39  Z  " style="fill:rgb(0, 0, 0); fill-opacity:1.000; stroke:none;" />
 <path d="  M 28,8  L 29,8  L 29,6  L 28,6  Z  " style="fill:rgb(0, 0, 0); fill-opacity:1.000; stroke:none;" />
 <path d="  M 29,38  L 29,30  L 28,30  L 28,38  Z  " style="fill:rgb(0, 0, 0); fill-opacity:1.000; stroke:none;" />
 <path d="  M 30,10  L 30,8  L 29,8  L 29,10  Z  " style="fill:rgb(0, 0, 0); fill-opacity:1.000; stroke:none;" />
 <path d="  M 30,28  L 30,22  L 29,22  L 29,30  L 30,30  L 30,29  L 46,29  L 46,21  L 44,21  L 44,22  L 45,22  L 45,28  Z  " style="fill:rgb(0, 0, 0); fill-opacity:1.000; stroke:none;" />
 <path d="  M 30,10  L 30,12  L 31,12  L 31,10  Z  " style="fill:rgb(0, 0, 0); fill-opacity:1.000; stroke:none;" />
 <path d="  M 30,22  L 31,22  L 31,15  L 32,15  L 32,12  L 31,12  L 31,14  L 30,14  Z  " style="fill:rgb(0, 0, 0); fill-opacity:1.000; stroke:none;" />
 <path d="  M 30,40  L 30,41  L 35,41  L 35,40  Z  " style="fill:rgb(0, 0, 0); fill-opacity:1.000; stroke:none;" />
 <path d="  M 34,16  L 34,15  L 32,15  L 32,16  Z  " style="fill:rgb(0, 0, 0); fill-opacity:1.000; stroke:none;" />
 <path d="  M 36,17  L 36,16  L 34,16  L 34,17  Z  " style="fill:rgb(0, 0, 0); fill-opacity:1.000; stroke:none;" />
 <path d="  M 36,17  L 36,18  L 38,18  L 38,17  Z  " style="fill:rgb(0, 0, 0); fill-opacity:1.000; stroke:none;" />
 <path d="  M 40,19  L 40,18  L 38,18  L 38,19  Z  " style="fill:rgb(0, 0, 0); fill-opacity:1.000; stroke:none;" />
 <path d="  M 42,19  L 40,19  L 40,20  L 42,20  Z  " style="fill:rgb(0, 0, 0); fill-opacity:1.000; stroke:none;" />
 <path d="  M 42,21  L 44,21  L 44,20  L 42,20  Z  " style="fill:rgb(0, 0, 0); fill-opacity:1.000; stroke:none;" />
 <path d="  M 19,30  L 19,29  L 4,29  L 4,30  Z  " style="fill:rgb(0, 0, 0); fill-opacity:0.133; stroke:none;" />
 <path d="  M 46,30  L 46,29  L 31,29  L 31,30  Z  " style="fill:rgb(0, 0, 0); fill-opacity:0.133; stroke:none;" />
 <path d="  M 6,20  L 6,19  L 5,19  L 5,20  Z  " style="fill:rgb(0, 0, 0); fill-opacity:0.051; stroke:none;" />
 <path d="  M 15,42  L 15,43  L 16,43  L 16,42  Z  " style="fill:rgb(0, 0, 0); fill-opacity:0.051; stroke:none;" />
 <path d="  M 36,15  L 36,16  L 37,16  L 37,15  Z  " style="fill:rgb(0, 0, 0); fill-opacity:0.051; stroke:none;" />
 <path d="  M 6,20  L 5,20  L 5,21  L 6,21  Z  " style="fill:rgb(0, 0, 0); fill-opacity:0.945; stroke:none;" />
 <path d="  M 5,28  L 6,28  L 6,27  L 5,27  Z  " style="fill:rgb(0, 0, 0); fill-opacity:0.945; stroke:none;" />
 <path d="  M 5,23  L 6,23  L 6,22  L 5,22  Z  " style="fill:rgb(0, 0, 0); fill-opacity:0.412; stroke:none;" />
 <path d="  M 22,26  L 22,25  L 21,25  L 21,26  Z  " style="fill:rgb(0, 0, 0); fill-opacity:0.412; stroke:none;" />
 <path d="  M 37,41  L 38,41  L 38,40  L 37,40  Z  " style="fill:rgb(0, 0, 0); fill-opacity:0.412; stroke:none;" />
 <path d="  M 5,27  L 6,27  L 6,23  L 5,23  Z  " style="fill:rgb(0, 0, 0); fill-opacity:0.169; stroke:none;" />
 <path d="  M 7,19  L 6,19  L 6,20  L 7,20  Z  " style="fill:rgb(0, 0, 0); fill-opacity:0.467; stroke:none;" />
 <path d="  M 8,19  L 9,19  L 9,18  L 8,18  Z  " style="fill:rgb(0, 0, 0); fill-opacity:0.467; stroke:none;" />
 <path d="  M 45,22  L 44,22  L 44,23  L 45,23  Z  " style="fill:rgb(0, 0, 0); fill-opacity:0.467; stroke:none;" />
 <path d="  M 6,21  L 6,22  L 7,22  L 7,21  Z  " style="fill:rgb(0, 0, 0); fill-opacity:0.827; stroke:none;" />
 <path d="  M 9,20  L 8,20  L 8,21  L 9,21  Z  " style="fill:rgb(0, 0, 0); fill-opacity:0.827; stroke:none;" />
 <path d="  M 24,3  L 24,4  L 25,4  L 25,3  Z  " style="fill:rgb(0, 0, 0); fill-opacity:0.827; stroke:none;" />
 <path d="  M 6,23  L 7,23  L 7,22  L 6,22  Z  " style="fill:rgb(0, 0, 0); fill-opacity:0.008; stroke:none;" />
 <path d="  M 8,22  L 9,22  L 9,21  L 8,21  Z  " style="fill:rgb(0, 0, 0); fill-opacity:0.008; stroke:none;" />
 <path d="  M 11,20  L 10,20  L 10,21  L 11,21  Z  " style="fill:rgb(0, 0, 0); fill-opacity:0.008; stroke:none;" />
 <path d="  M 30,42  L 30,41  L 29,41  L 29,42  Z  " style="fill:rgb(0, 0, 0); fill-opacity:0.008; stroke:none;" />
 <path d="  M 31,31  L 31,30  L 30,30  L 30,31  Z  " style="fill:rgb(0, 0, 0); fill-opacity:0.008; stroke:none;" />
 <path d="  M 31,23  L 32,23  L 32,22  L 31,22  Z  " style="fill:rgb(0, 0, 0); fill-opacity:0.008; stroke:none;" />
 <path d="  M 34,18  L 34,17  L 33,17  L 33,18  Z  " style="fill:rgb(0, 0, 0); fill-opacity:0.008; stroke:none;" />
 <path d="  M 36,18  L 35,18  L 35,19  L 36,19  Z  " style="fill:rgb(0, 0, 0); fill-opacity:0.008; stroke:none;" />
 <path d="  M 38,20  L 38,19  L 37,19  L 37,20  Z  " style="fill:rgb(0, 0, 0); fill-opacity:0.008; stroke:none;" />
 <path d="  M 6,27  L 6,28  L 19,28  L 19,27  Z  " style="fill:rgb(0, 0, 0); fill-opacity:0.933; stroke:none;" />
 <path d="  M 44,28  L 44,27  L 31,27  L 31,28  Z  " style="fill:rgb(0, 0, 0); fill-opacity:0.933; stroke:none;" />
 <path d="  M 7,19  L 8,19  L 8,18  L 7,18  Z  " style="fill:rgb(0, 0, 0); fill-opacity:0.055; stroke:none;" />
 <path d="  M 35,15  L 35,14  L 34,14  L 34,15  Z  " style="fill:rgb(0, 0, 0); fill-opacity:0.055; stroke:none;" />
 <path d="  M 7,20  L 8,20  L 8,19  L 7,19  Z  " style="fill:rgb(0, 0, 0); fill-opacity:0.937; stroke:none;" />
 <path d="  M 10,18  L 9,18  L 9,19  L 10,19  Z  " style="fill:rgb(0, 0, 0); fill-opacity:0.937; stroke:none;" />
 <path d="  M 12,17  L 11,17  L 11,18  L 12,18  Z  " style="fill:rgb(0, 0, 0); fill-opacity:0.937; stroke:none;" />
 <path d="  M 29,40  L 29,41  L 30,41  L 30,40  Z  " style="fill:rgb(0, 0, 0); fill-opacity:0.937; stroke:none;" />
 <path d="  M 8,22  L 8,21  L 7,21  L 7,22  Z  " style="fill:rgb(0, 0, 0); fill-opacity:0.337; stroke:none;" />
 <path d="  M 10,21  L 10,20  L 9,20  L 9,21  Z  " style="fill:rgb(0, 0, 0); fill-opacity:0.337; stroke:none;" />
 <path d="  M 28,45  L 29,45  L 29,44  L 28,44  Z  " style="fill:rgb(0, 0, 0); fill-opacity:0.337; stroke:none;" />
 <path d="  M 9,18  L 10,18  L 10,17  L 9,17  Z  " style="fill:rgb(0, 0, 0); fill-opacity:0.071; stroke:none;" />
 <path d="  M 12,17  L 12,16  L 11,16  L 11,17  Z  " style="fill:rgb(0, 0, 0); fill-opacity:0.071; stroke:none;" />
 <path d="  M 10,17  L 10,18  L 11,18  L 11,17  Z  " style="fill:rgb(0, 0, 0); fill-opacity:0.502; stroke:none;" />
 <path d="  M 13,17  L 13,16  L 12,16  L 12,17  Z  " style="fill:rgb(0, 0, 0); fill-opacity:0.502; stroke:none;" />
 <path d="  M 29,26  L 29,25  L 28,25  L 28,26  Z  " style="fill:rgb(0, 0, 0); fill-opacity:0.502; stroke:none;" />
 <path d="  M 29,18  L 30,18  L 30,17  L 29,17  Z  " style="fill:rgb(0, 0, 0); fill-opacity:0.502; stroke:none;" />
 <path d="  M 38,16  L 37,16  L 37,17  L 38,17  Z  " style="fill:rgb(0, 0, 0); fill-opacity:0.502; stroke:none;" />
 <path d="  M 39,42  L 38,42  L 38,45  L 39,45  Z  " style="fill:rgb(0, 0, 0); fill-opacity:0.502; stroke:none;" />
 <path d="  M 40,17  L 39,17  L 39,18  L 40,18  Z  " style="fill:rgb(0, 0, 0); fill-opacity:0.502; stroke:none;" />
 <path d="  M 42,18  L 41,18  L 41,19  L 42,19  Z  " style="fill:rgb(0, 0, 0); fill-opacity:0.502; stroke:none;" />
 <path d="  M 43,20  L 44,20  L 44,19  L 43,19  Z  " style="fill:rgb(0, 0, 0); fill-opacity:0.502; stroke:none;" />
 <path d="  M 11,20  L 11,19  L 10,19  L 10,20  Z  " style="fill:rgb(0, 0, 0); fill-opacity:0.835; stroke:none;" />
 <path d="  M 12,18  L 12,19  L 13,19  L 13,18  Z  " style="fill:rgb(0, 0, 0); fill-opacity:0.835; stroke:none;" />
 <path d="  M 15,18  L 15,17  L 14,17  L 14,18  Z  " style="fill:rgb(0, 0, 0); fill-opacity:0.835; stroke:none;" />
 <path d="  M 16,17  L 17,17  L 17,16  L 16,16  Z  " style="fill:rgb(0, 0, 0); fill-opacity:0.835; stroke:none;" />
 <path d="  M 12,19  L 11,19  L 11,20  L 12,20  Z  " style="fill:rgb(0, 0, 0); fill-opacity:0.369; stroke:none;" />
 <path d="  M 14,18  L 13,18  L 13,19  L 14,19  Z  " style="fill:rgb(0, 0, 0); fill-opacity:0.369; stroke:none;" />
 <path d="  M 16,17  L 15,17  L 15,18  L 16,18  Z  " style="fill:rgb(0, 0, 0); fill-opacity:0.369; stroke:none;" />
 <path d="  M 18,17  L 18,16  L 17,16  L 17,17  Z  " style="fill:rgb(0, 0, 0); fill-opacity:0.369; stroke:none;" />
 <path d="  M 20,29  L 19,29  L 19,30  L 20,30  Z  " style="fill:rgb(0, 0, 0); fill-opacity:0.369; stroke:none;" />
 <path d="  M 27,40  L 26,40  L 26,41  L 27,41  Z  " style="fill:rgb(0, 0, 0); fill-opacity:0.369; stroke:none;" />
 <path d="  M 12,41  L 12,40  L 11,40  L 11,41  Z  " style="fill:rgb(0, 0, 0); fill-opacity:0.047; stroke:none;" />
 <path d="  M 11,41  L 11,42  L 12,42  L 12,41  Z  " style="fill:rgb(0, 0, 0); fill-opacity:0.498; stroke:none;" />
 <path d="  M 28,34  L 28,33  L 27,33  L 27,34  Z  " style="fill:rgb(0, 0, 0); fill-opacity:0.498; stroke:none;" />
 <path d="  M 11,45  L 12,45  L 12,42  L 11,42  Z  " style="fill:rgb(0, 0, 0); fill-opacity:0.561; stroke:none;" />
 <path d="  M 12,45  L 11,45  L 11,46  L 12,46  Z  " style="fill:rgb(0, 0, 0); fill-opacity:0.557; stroke:none;" />
 <path d="  M 11,46  L 11,47  L 12,47  L 12,46  Z  " style="fill:rgb(0, 0, 0); fill-opacity:0.239; stroke:none;" />
 <path d="  M 13,19  L 12,19  L 12,20  L 13,20  Z  " style="fill:rgb(0, 0, 0); fill-opacity:0.012; stroke:none;" />
 <path d="  M 15,18  L 14,18  L 14,19  L 15,19  Z  " style="fill:rgb(0, 0, 0); fill-opacity:0.012; stroke:none;" />
 <path d="  M 16,18  L 17,18  L 17,17  L 16,17  Z  " style="fill:rgb(0, 0, 0); fill-opacity:0.012; stroke:none;" />
 <path d="  M 27,38  L 27,37  L 26,37  L 26,38  Z  " style="fill:rgb(0, 0, 0); fill-opacity:0.012; stroke:none;" />
 <path d="  M 27,29  L 27,30  L 28,30  L 28,29  Z  " style="fill:rgb(0, 0, 0); fill-opacity:0.012; stroke:none;" />
 <path d="  M 40,20  L 39,20  L 39,21  L 40,21  Z  " style="fill:rgb(0, 0, 0); fill-opacity:0.012; stroke:none;" />
 <path d="  M 41,21  L 41,22  L 42,22  L 42,21  Z  " style="fill:rgb(0, 0, 0); fill-opacity:0.012; stroke:none;" />
 <path d="  M 44,23  L 44,22  L 43,22  L 43,23  Z  " style="fill:rgb(0, 0, 0); fill-opacity:0.012; stroke:none;" />
 <path d="  M 12,40  L 12,41  L 13,41  L 13,40  Z  " style="fill:rgb(0, 0, 0); fill-opacity:0.435; stroke:none;" />
 <path d="  M 13,47  L 13,46  L 12,46  L 12,47  Z  " style="fill:rgb(0, 0, 0); fill-opacity:0.788; stroke:none;" />
 <path d="  M 13,15  L 13,16  L 14,16  L 14,15  Z  " style="fill:rgb(0, 0, 0); fill-opacity:0.075; stroke:none;" />
 <path d="  M 15,14  L 15,15  L 16,15  L 16,14  Z  " style="fill:rgb(0, 0, 0); fill-opacity:0.075; stroke:none;" />
 <path d="  M 14,16  L 13,16  L 13,17  L 14,17  Z  " style="fill:rgb(0, 0, 0); fill-opacity:0.941; stroke:none;" />
 <path d="  M 22,5  L 23,5  L 23,4  L 22,4  Z  " style="fill:rgb(0, 0, 0); fill-opacity:0.941; stroke:none;" />
 <path d="  M 14,41  L 14,40  L 13,40  L 13,41  Z  " style="fill:rgb(0, 0, 0); fill-opacity:0.675; stroke:none;" />
 <path d="  M 14,43  L 14,42  L 13,42  L 13,43  Z  " style="fill:rgb(0, 0, 0); fill-opacity:0.725; stroke:none;" />
 <path d="  M 14,43  L 13,43  L 13,44  L 14,44  Z  " style="fill:rgb(0, 0, 0); fill-opacity:0.518; stroke:none;" />
 <path d="  M 21,44  L 22,44  L 22,43  L 21,43  Z  " style="fill:rgb(0, 0, 0); fill-opacity:0.518; stroke:none;" />
 <path d="  M 13,44  L 13,45  L 14,45  L 14,44  Z  " style="fill:rgb(0, 0, 0); fill-opacity:0.647; stroke:none;" />
 <path d="  M 19,27  L 20,27  L 20,26  L 19,26  Z  " style="fill:rgb(0, 0, 0); fill-opacity:0.647; stroke:none;" />
 <path d="  M 21,34  L 20,34  L 20,35  L 21,35  Z  " style="fill:rgb(0, 0, 0); fill-opacity:0.647; stroke:none;" />
 <path d="  M 21,43  L 22,43  L 22,42  L 21,42  Z  " style="fill:rgb(0, 0, 0); fill-opacity:0.647; stroke:none;" />
 <path d="  M 22,46  L 13,46  L 13,47  L 22,47  Z  " style="fill:rgb(0, 0, 0); fill-opacity:0.800; stroke:none;" />
 <path d="  M 37,47  L 37,46  L 27,46  L 27,47  Z  " style="fill:rgb(0, 0, 0); fill-opacity:0.800; stroke:none;" />
 <path d="  M 14,16  L 15,16  L 15,15  L 14,15  Z  " style="fill:rgb(0, 0, 0); fill-opacity:0.522; stroke:none;" />
 <path d="  M 21,36  L 21,35  L 20,35  L 20,36  Z  " style="fill:rgb(0, 0, 0); fill-opacity:0.522; stroke:none;" />
 <path d="  M 14,40  L 14,41  L 15,41  L 15,40  Z  " style="fill:rgb(0, 0, 0); fill-opacity:0.898; stroke:none;" />
 <path d="  M 20,25  L 20,24  L 19,24  L 19,25  Z  " style="fill:rgb(0, 0, 0); fill-opacity:0.898; stroke:none;" />
 <path d="  M 20,33  L 21,33  L 21,32  L 20,32  Z  " style="fill:rgb(0, 0, 0); fill-opacity:0.898; stroke:none;" />
 <path d="  M 15,43  L 15,42  L 14,42  L 14,43  Z  " style="fill:rgb(0, 0, 0); fill-opacity:0.263; stroke:none;" />
 <path d="  M 14,44  L 14,45  L 21,45  L 21,44  Z  " style="fill:rgb(0, 0, 0); fill-opacity:0.267; stroke:none;" />
 <path d="  M 36,45  L 36,44  L 29,44  L 29,45  Z  " style="fill:rgb(0, 0, 0); fill-opacity:0.267; stroke:none;" />
 <path d="  M 15,15  L 15,16  L 16,16  L 16,15  Z  " style="fill:rgb(0, 0, 0); fill-opacity:0.949; stroke:none;" />
 <path d="  M 44,27  L 44,28  L 45,28  L 45,27  Z  " style="fill:rgb(0, 0, 0); fill-opacity:0.949; stroke:none;" />
 <path d="  M 16,39  L 15,39  L 15,40  L 16,40  Z  " style="fill:rgb(0, 0, 0); fill-opacity:0.118; stroke:none;" />
 <path d="  M 17,11  L 17,12  L 18,12  L 18,11  Z  " style="fill:rgb(0, 0, 0); fill-opacity:0.118; stroke:none;" />
 <path d="  M 18,9  L 18,10  L 19,10  L 19,9  Z  " style="fill:rgb(0, 0, 0); fill-opacity:0.118; stroke:none;" />
 <path d="  M 20,8  L 20,7  L 19,7  L 19,8  Z  " style="fill:rgb(0, 0, 0); fill-opacity:0.118; stroke:none;" />
 <path d="  M 26,38  L 26,39  L 27,39  L 27,38  Z  " style="fill:rgb(0, 0, 0); fill-opacity:0.118; stroke:none;" />
 <path d="  M 16,42  L 16,41  L 15,41  L 15,42  Z  " style="fill:rgb(0, 0, 0); fill-opacity:0.988; stroke:none;" />
 <path d="  M 28,38  L 28,39  L 29,39  L 29,38  Z  " style="fill:rgb(0, 0, 0); fill-opacity:0.988; stroke:none;" />
 <path d="  M 31,14  L 31,13  L 30,13  L 30,14  Z  " style="fill:rgb(0, 0, 0); fill-opacity:0.988; stroke:none;" />
 <path d="  M 16,15  L 17,15  L 17,14  L 16,14  Z  " style="fill:rgb(0, 0, 0); fill-opacity:0.525; stroke:none;" />
 <path d="  M 18,20  L 19,20  L 19,19  L 18,19  Z  " style="fill:rgb(0, 0, 0); fill-opacity:0.525; stroke:none;" />
 <path d="  M 24,43  L 24,42  L 23,42  L 23,43  Z  " style="fill:rgb(0, 0, 0); fill-opacity:0.525; stroke:none;" />
 <path d="  M 17,39  L 16,39  L 16,40  L 17,40  Z  " style="fill:rgb(0, 0, 0); fill-opacity:0.345; stroke:none;" />
 <path d="  M 16,41  L 16,42  L 17,42  L 17,41  Z  " style="fill:rgb(0, 0, 0); fill-opacity:0.820; stroke:none;" />
 <path d="  M 26,4  L 26,3  L 25,3  L 25,4  Z  " style="fill:rgb(0, 0, 0); fill-opacity:0.820; stroke:none;" />
 <path d="  M 18,12  L 17,12  L 17,13  L 18,13  Z  " style="fill:rgb(0, 0, 0); fill-opacity:0.361; stroke:none;" />
 <path d="  M 32,19  L 31,19  L 31,20  L 32,20  Z  " style="fill:rgb(0, 0, 0); fill-opacity:0.361; stroke:none;" />
 <path d="  M 18,13  L 17,13  L 17,14  L 18,14  Z  " style="fill:rgb(0, 0, 0); fill-opacity:0.333; stroke:none;" />
 <path d="  M 32,17  L 33,17  L 33,16  L 32,16  Z  " style="fill:rgb(0, 0, 0); fill-opacity:0.333; stroke:none;" />
 <path d="  M 35,17  L 34,17  L 34,18  L 35,18  Z  " style="fill:rgb(0, 0, 0); fill-opacity:0.333; stroke:none;" />
 <path d="  M 37,18  L 36,18  L 36,19  L 37,19  Z  " style="fill:rgb(0, 0, 0); fill-opacity:0.333; stroke:none;" />
 <path d="  M 38,20  L 39,20  L 39,19  L 38,19  Z  " style="fill:rgb(0, 0, 0); fill-opacity:0.333; stroke:none;" />
 <path d="  M 18,14  L 17,14  L 17,15  L 18,15  Z  " style="fill:rgb(0, 0, 0); fill-opacity:0.961; stroke:none;" />
 <path d="  M 17,40  L 18,40  L 18,39  L 17,39  Z  " style="fill:rgb(0, 0, 0); fill-opacity:0.565; stroke:none;" />
 <path d="  M 17,42  L 18,42  L 18,41  L 17,41  Z  " style="fill:rgb(0, 0, 0); fill-opacity:0.596; stroke:none;" />
 <path d="  M 19,11  L 19,10  L 18,10  L 18,11  Z  " style="fill:rgb(0, 0, 0); fill-opacity:0.596; stroke:none;" />
 <path d="  M 19,12  L 19,11  L 18,11  L 18,12  Z  " style="fill:rgb(0, 0, 0); fill-opacity:0.976; stroke:none;" />
 <path d="  M 20,9  L 19,9  L 19,10  L 20,10  Z  " style="fill:rgb(0, 0, 0); fill-opacity:0.976; stroke:none;" />
 <path d="  M 21,7  L 20,7  L 20,8  L 21,8  Z  " style="fill:rgb(0, 0, 0); fill-opacity:0.976; stroke:none;" />
 <path d="  M 26,46  L 25,46  L 25,47  L 26,47  Z  " style="fill:rgb(0, 0, 0); fill-opacity:0.976; stroke:none;" />
 <path d="  M 29,31  L 30,31  L 30,30  L 29,30  Z  " style="fill:rgb(0, 0, 0); fill-opacity:0.976; stroke:none;" />
 <path d="  M 31,23  L 31,22  L 30,22  L 30,23  Z  " style="fill:rgb(0, 0, 0); fill-opacity:0.976; stroke:none;" />
 <path d="  M 19,16  L 18,16  L 18,17  L 19,17  Z  " style="fill:rgb(0, 0, 0); fill-opacity:0.902; stroke:none;" />
 <path d="  M 18,17  L 18,18  L 19,18  L 19,17  Z  " style="fill:rgb(0, 0, 0); fill-opacity:0.776; stroke:none;" />
 <path d="  M 37,46  L 37,47  L 38,47  L 38,46  Z  " style="fill:rgb(0, 0, 0); fill-opacity:0.776; stroke:none;" />
 <path d="  M 19,19  L 19,18  L 18,18  L 18,19  Z  " style="fill:rgb(0, 0, 0); fill-opacity:0.651; stroke:none;" />
 <path d="  M 37,41  L 37,40  L 36,40  L 36,41  Z  " style="fill:rgb(0, 0, 0); fill-opacity:0.651; stroke:none;" />
 <path d="  M 19,21  L 19,20  L 18,20  L 18,21  Z  " style="fill:rgb(0, 0, 0); fill-opacity:0.404; stroke:none;" />
 <path d="  M 23,7  L 22,7  L 22,8  L 23,8  Z  " style="fill:rgb(0, 0, 0); fill-opacity:0.404; stroke:none;" />
 <path d="  M 23,41  L 23,42  L 24,42  L 24,41  Z  " style="fill:rgb(0, 0, 0); fill-opacity:0.404; stroke:none;" />
 <path d="  M 18,21  L 18,22  L 19,22  L 19,21  Z  " style="fill:rgb(0, 0, 0); fill-opacity:0.275; stroke:none;" />
 <path d="  M 21,37  L 20,37  L 20,38  L 21,38  Z  " style="fill:rgb(0, 0, 0); fill-opacity:0.275; stroke:none;" />
 <path d="  M 18,23  L 19,23  L 19,22  L 18,22  Z  " style="fill:rgb(0, 0, 0); fill-opacity:0.149; stroke:none;" />
 <path d="  M 19,30  L 19,31  L 20,31  L 20,30  Z  " style="fill:rgb(0, 0, 0); fill-opacity:0.149; stroke:none;" />
 <path d="  M 18,41  L 18,42  L 19,42  L 19,41  Z  " style="fill:rgb(0, 0, 0); fill-opacity:0.376; stroke:none;" />
 <path d="  M 28,24  L 28,25  L 29,25  L 29,24  Z  " style="fill:rgb(0, 0, 0); fill-opacity:0.376; stroke:none;" />
 <path d="  M 19,8  L 19,9  L 20,9  L 20,8  Z  " style="fill:rgb(0, 0, 0); fill-opacity:0.600; stroke:none;" />
 <path d="  M 24,4  L 24,3  L 23,3  L 23,4  Z  " style="fill:rgb(0, 0, 0); fill-opacity:0.600; stroke:none;" />
 <path d="  M 28,41  L 28,42  L 29,42  L 29,41  Z  " style="fill:rgb(0, 0, 0); fill-opacity:0.600; stroke:none;" />
 <path d="  M 20,12  L 19,12  L 19,13  L 20,13  Z  " style="fill:rgb(0, 0, 0); fill-opacity:0.910; stroke:none;" />
 <path d="  M 20,21  L 20,22  L 21,22  L 21,21  Z  " style="fill:rgb(0, 0, 0); fill-opacity:0.910; stroke:none;" />
 <path d="  M 22,30  L 22,29  L 21,29  L 21,30  Z  " style="fill:rgb(0, 0, 0); fill-opacity:0.910; stroke:none;" />
 <path d="  M 19,14  L 20,14  L 20,13  L 19,13  Z  " style="fill:rgb(0, 0, 0); fill-opacity:0.929; stroke:none;" />
 <path d="  M 20,41  L 21,41  L 21,40  L 20,40  Z  " style="fill:rgb(0, 0, 0); fill-opacity:0.929; stroke:none;" />
 <path d="  M 33,14  L 32,14  L 32,15  L 33,15  Z  " style="fill:rgb(0, 0, 0); fill-opacity:0.929; stroke:none;" />
 <path d="  M 34,15  L 34,16  L 35,16  L 35,15  Z  " style="fill:rgb(0, 0, 0); fill-opacity:0.929; stroke:none;" />
 <path d="  M 37,16  L 36,16  L 36,17  L 37,17  Z  " style="fill:rgb(0, 0, 0); fill-opacity:0.929; stroke:none;" />
 <path d="  M 19,24  L 20,24  L 20,23  L 19,23  Z  " style="fill:rgb(0, 0, 0); fill-opacity:0.992; stroke:none;" />
 <path d="  M 21,32  L 21,31  L 20,31  L 20,32  Z  " style="fill:rgb(0, 0, 0); fill-opacity:0.992; stroke:none;" />
 <path d="  M 26,44  L 26,45  L 27,45  L 27,44  Z  " style="fill:rgb(0, 0, 0); fill-opacity:0.992; stroke:none;" />
 <path d="  M 34,42  L 35,42  L 35,41  L 34,41  Z  " style="fill:rgb(0, 0, 0); fill-opacity:0.992; stroke:none;" />
 <path d="  M 19,25  L 19,26  L 20,26  L 20,25  Z  " style="fill:rgb(0, 0, 0); fill-opacity:0.773; stroke:none;" />
 <path d="  M 20,34  L 21,34  L 21,33  L 20,33  Z  " style="fill:rgb(0, 0, 0); fill-opacity:0.773; stroke:none;" />
 <path d="  M 21,41  L 21,42  L 22,42  L 22,41  Z  " style="fill:rgb(0, 0, 0); fill-opacity:0.773; stroke:none;" />
 <path d="  M 19,28  L 20,28  L 20,27  L 19,27  Z  " style="fill:rgb(0, 0, 0); fill-opacity:0.965; stroke:none;" />
 <path d="  M 19,38  L 19,39  L 20,39  L 20,38  Z  " style="fill:rgb(0, 0, 0); fill-opacity:0.035; stroke:none;" />
 <path d="  M 20,40  L 20,39  L 19,39  L 19,40  Z  " style="fill:rgb(0, 0, 0); fill-opacity:0.980; stroke:none;" />
 <path d="  M 25,46  L 24,46  L 24,47  L 25,47  Z  " style="fill:rgb(0, 0, 0); fill-opacity:0.980; stroke:none;" />
 <path d="  M 27,37  L 27,38  L 28,38  L 28,37  Z  " style="fill:rgb(0, 0, 0); fill-opacity:0.980; stroke:none;" />
 <path d="  M 31,16  L 32,16  L 32,15  L 31,15  Z  " style="fill:rgb(0, 0, 0); fill-opacity:0.980; stroke:none;" />
 <path d="  M 20,42  L 20,41  L 19,41  L 19,42  Z  " style="fill:rgb(0, 0, 0); fill-opacity:0.157; stroke:none;" />
 <path d="  M 23,32  L 23,31  L 22,31  L 22,32  Z  " style="fill:rgb(0, 0, 0); fill-opacity:0.157; stroke:none;" />
 <path d="  M 21,5  L 20,5  L 20,6  L 21,6  Z  " style="fill:rgb(0, 0, 0); fill-opacity:0.114; stroke:none;" />
 <path d="  M 21,7  L 21,6  L 20,6  L 20,7  Z  " style="fill:rgb(0, 0, 0); fill-opacity:0.604; stroke:none;" />
 <path d="  M 29,33  L 29,34  L 30,34  L 30,33  Z  " style="fill:rgb(0, 0, 0); fill-opacity:0.604; stroke:none;" />
 <path d="  M 21,10  L 20,10  L 20,11  L 21,11  Z  " style="fill:rgb(0, 0, 0); fill-opacity:0.882; stroke:none;" />
 <path d="  M 21,9  L 22,9  L 22,8  L 21,8  Z  " style="fill:rgb(0, 0, 0); fill-opacity:0.882; stroke:none;" />
 <path d="  M 29,8  L 30,8  L 30,7  L 29,7  Z  " style="fill:rgb(0, 0, 0); fill-opacity:0.882; stroke:none;" />
 <path d="  M 31,9  L 30,9  L 30,10  L 31,10  Z  " style="fill:rgb(0, 0, 0); fill-opacity:0.882; stroke:none;" />
 <path d="  M 21,12  L 21,11  L 20,11  L 20,12  Z  " style="fill:rgb(0, 0, 0); fill-opacity:0.400; stroke:none;" />
 <path d="  M 21,37  L 21,36  L 20,36  L 20,37  Z  " style="fill:rgb(0, 0, 0); fill-opacity:0.400; stroke:none;" />
 <path d="  M 21,9  L 21,10  L 22,10  L 22,9  Z  " style="fill:rgb(0, 0, 0); fill-opacity:0.400; stroke:none;" />
 <path d="  M 21,12  L 20,12  L 20,13  L 21,13  Z  " style="fill:rgb(0, 0, 0); fill-opacity:0.024; stroke:none;" />
 <path d="  M 22,11  L 22,10  L 21,10  L 21,11  Z  " style="fill:rgb(0, 0, 0); fill-opacity:0.024; stroke:none;" />
 <path d="  M 23,8  L 22,8  L 22,9  L 23,9  Z  " style="fill:rgb(0, 0, 0); fill-opacity:0.024; stroke:none;" />
 <path d="  M 30,7  L 30,8  L 31,8  L 31,7  Z  " style="fill:rgb(0, 0, 0); fill-opacity:0.024; stroke:none;" />
 <path d="  M 32,10  L 32,9  L 31,9  L 31,10  Z  " style="fill:rgb(0, 0, 0); fill-opacity:0.024; stroke:none;" />
 <path d="  M 21,15  L 21,14  L 20,14  L 20,15  Z  " style="fill:rgb(0, 0, 0); fill-opacity:0.043; stroke:none;" />
 <path d="  M 22,22  L 21,22  L 21,23  L 22,23  Z  " style="fill:rgb(0, 0, 0); fill-opacity:0.043; stroke:none;" />
 <path d="  M 23,7  L 24,7  L 24,6  L 23,6  Z  " style="fill:rgb(0, 0, 0); fill-opacity:0.043; stroke:none;" />
 <path d="  M 28,9  L 28,8  L 27,8  L 27,9  Z  " style="fill:rgb(0, 0, 0); fill-opacity:0.043; stroke:none;" />
 <path d="  M 29,11  L 29,10  L 28,10  L 28,11  Z  " style="fill:rgb(0, 0, 0); fill-opacity:0.043; stroke:none;" />
 <path d="  M 30,12  L 29,12  L 29,13  L 30,13  Z  " style="fill:rgb(0, 0, 0); fill-opacity:0.043; stroke:none;" />
 <path d="  M 46,20  L 46,21  L 47,21  L 47,20  Z  " style="fill:rgb(0, 0, 0); fill-opacity:0.043; stroke:none;" />
 <path d="  M 20,16  L 21,16  L 21,15  L 20,15  Z  " style="fill:rgb(0, 0, 0); fill-opacity:0.165; stroke:none;" />
 <path d="  M 30,41  L 30,42  L 31,42  L 31,41  Z  " style="fill:rgb(0, 0, 0); fill-opacity:0.165; stroke:none;" />
 <path d="  M 20,16  L 20,17  L 21,17  L 21,16  Z  " style="fill:rgb(0, 0, 0); fill-opacity:0.290; stroke:none;" />
 <path d="  M 20,17  L 20,18  L 21,18  L 21,17  Z  " style="fill:rgb(0, 0, 0); fill-opacity:0.416; stroke:none;" />
 <path d="  M 21,19  L 21,18  L 20,18  L 20,19  Z  " style="fill:rgb(0, 0, 0); fill-opacity:0.537; stroke:none;" />
 <path d="  M 21,20  L 21,19  L 20,19  L 20,20  Z  " style="fill:rgb(0, 0, 0); fill-opacity:0.663; stroke:none;" />
 <path d="  M 21,38  L 20,38  L 20,39  L 21,39  Z  " style="fill:rgb(0, 0, 0); fill-opacity:0.349; stroke:none;" />
 <path d="  M 20,41  L 20,42  L 21,42  L 21,41  Z  " style="fill:rgb(0, 0, 0); fill-opacity:0.004; stroke:none;" />
 <path d="  M 21,4  L 21,5  L 22,5  L 22,4  Z  " style="fill:rgb(0, 0, 0); fill-opacity:0.227; stroke:none;" />
 <path d="  M 22,5  L 21,5  L 21,6  L 22,6  Z  " style="fill:rgb(0, 0, 0); fill-opacity:0.871; stroke:none;" />
 <path d="  M 27,46  L 26,46  L 26,47  L 27,47  Z  " style="fill:rgb(0, 0, 0); fill-opacity:0.871; stroke:none;" />
 <path d="  M 27,37  L 28,37  L 28,36  L 27,36  Z  " style="fill:rgb(0, 0, 0); fill-opacity:0.871; stroke:none;" />
 <path d="  M 22,23  L 21,23  L 21,24  L 22,24  Z  " style="fill:rgb(0, 0, 0); fill-opacity:0.161; stroke:none;" />
 <path d="  M 33,14  L 33,13  L 32,13  L 32,14  Z  " style="fill:rgb(0, 0, 0); fill-opacity:0.161; stroke:none;" />
 <path d="  M 22,24  L 21,24  L 21,25  L 22,25  Z  " style="fill:rgb(0, 0, 0); fill-opacity:0.286; stroke:none;" />
 <path d="  M 22,27  L 22,26  L 21,26  L 21,27  Z  " style="fill:rgb(0, 0, 0); fill-opacity:0.533; stroke:none;" />
 <path d="  M 22,27  L 21,27  L 21,28  L 22,28  Z  " style="fill:rgb(0, 0, 0); fill-opacity:0.659; stroke:none;" />
 <path d="  M 21,31  L 22,31  L 22,30  L 21,30  Z  " style="fill:rgb(0, 0, 0); fill-opacity:0.996; stroke:none;" />
 <path d="  M 22,39  L 23,39  L 23,38  L 22,38  Z  " style="fill:rgb(0, 0, 0); fill-opacity:0.996; stroke:none;" />
 <path d="  M 28,44  L 27,44  L 27,45  L 28,45  Z  " style="fill:rgb(0, 0, 0); fill-opacity:0.996; stroke:none;" />
 <path d="  M 22,41  L 22,40  L 21,40  L 21,41  Z  " style="fill:rgb(0, 0, 0); fill-opacity:0.969; stroke:none;" />
 <path d="  M 30,39  L 30,40  L 31,40  L 31,39  Z  " style="fill:rgb(0, 0, 0); fill-opacity:0.969; stroke:none;" />
 <path d="  M 22,44  L 21,44  L 21,45  L 22,45  Z  " style="fill:rgb(0, 0, 0); fill-opacity:0.455; stroke:none;" />
 <path d="  M 22,4  L 23,4  L 23,3  L 22,3  Z  " style="fill:rgb(0, 0, 0); fill-opacity:0.137; stroke:none;" />
 <path d="  M 23,7  L 23,6  L 22,6  L 22,7  Z  " style="fill:rgb(0, 0, 0); fill-opacity:0.886; stroke:none;" />
 <path d="  M 23,30  L 22,30  L 22,31  L 23,31  Z  " style="fill:rgb(0, 0, 0); fill-opacity:0.039; stroke:none;" />
 <path d="  M 23,39  L 24,39  L 24,38  L 23,38  Z  " style="fill:rgb(0, 0, 0); fill-opacity:0.039; stroke:none;" />
 <path d="  M 23,32  L 22,32  L 22,33  L 23,33  Z  " style="fill:rgb(0, 0, 0); fill-opacity:0.282; stroke:none;" />
 <path d="  M 25,6  L 25,5  L 24,5  L 24,6  Z  " style="fill:rgb(0, 0, 0); fill-opacity:0.282; stroke:none;" />
 <path d="  M 22,33  L 22,34  L 23,34  L 23,33  Z  " style="fill:rgb(0, 0, 0); fill-opacity:0.408; stroke:none;" />
 <path d="  M 22,35  L 23,35  L 23,34  L 22,34  Z  " style="fill:rgb(0, 0, 0); fill-opacity:0.529; stroke:none;" />
 <path d="  M 23,35  L 22,35  L 22,36  L 23,36  Z  " style="fill:rgb(0, 0, 0); fill-opacity:0.655; stroke:none;" />
 <path d="  M 23,36  L 22,36  L 22,37  L 23,37  Z  " style="fill:rgb(0, 0, 0); fill-opacity:0.780; stroke:none;" />
 <path d="  M 23,37  L 22,37  L 22,38  L 23,38  Z  " style="fill:rgb(0, 0, 0); fill-opacity:0.906; stroke:none;" />
 <path d="  M 23,47  L 23,46  L 22,46  L 22,47  Z  " style="fill:rgb(0, 0, 0); fill-opacity:0.804; stroke:none;" />
 <path d="  M 24,5  L 23,5  L 23,6  L 24,6  Z  " style="fill:rgb(0, 0, 0); fill-opacity:0.753; stroke:none;" />
 <path d="  M 29,19  L 29,20  L 30,20  L 30,19  Z  " style="fill:rgb(0, 0, 0); fill-opacity:0.753; stroke:none;" />
 <path d="  M 23,39  L 23,40  L 24,40  L 24,39  Z  " style="fill:rgb(0, 0, 0); fill-opacity:0.153; stroke:none;" />
 <path d="  M 24,41  L 24,40  L 23,40  L 23,41  Z  " style="fill:rgb(0, 0, 0); fill-opacity:0.278; stroke:none;" />
 <path d="  M 36,43  L 36,42  L 35,42  L 35,43  Z  " style="fill:rgb(0, 0, 0); fill-opacity:0.278; stroke:none;" />
 <path d="  M 23,43  L 23,44  L 24,44  L 24,43  Z  " style="fill:rgb(0, 0, 0); fill-opacity:0.667; stroke:none;" />
 <path d="  M 24,44  L 23,44  L 23,45  L 24,45  Z  " style="fill:rgb(0, 0, 0); fill-opacity:0.973; stroke:none;" />
 <path d="  M 23,47  L 24,47  L 24,46  L 23,46  Z  " style="fill:rgb(0, 0, 0); fill-opacity:0.890; stroke:none;" />
 <path d="  M 24,45  L 25,45  L 25,44  L 24,44  Z  " style="fill:rgb(0, 0, 0); fill-opacity:0.608; stroke:none;" />
 <path d="  M 31,26  L 31,25  L 30,25  L 30,26  Z  " style="fill:rgb(0, 0, 0); fill-opacity:0.608; stroke:none;" />
 <path d="  M 25,5  L 25,6  L 26,6  L 26,5  Z  " style="fill:rgb(0, 0, 0); fill-opacity:0.235; stroke:none;" />
 <path d="  M 31,21  L 32,21  L 32,20  L 31,20  Z  " style="fill:rgb(0, 0, 0); fill-opacity:0.235; stroke:none;" />
 <path d="  M 25,45  L 26,45  L 26,44  L 25,44  Z  " style="fill:rgb(0, 0, 0); fill-opacity:0.631; stroke:none;" />
 <path d="  M 26,3  L 26,4  L 27,4  L 27,3  Z  " style="fill:rgb(0, 0, 0); fill-opacity:0.584; stroke:none;" />
 <path d="  M 27,5  L 26,5  L 26,6  L 27,6  Z  " style="fill:rgb(0, 0, 0); fill-opacity:0.761; stroke:none;" />
 <path d="  M 26,6  L 26,7  L 27,7  L 27,6  Z  " style="fill:rgb(0, 0, 0); fill-opacity:0.059; stroke:none;" />
 <path d="  M 34,42  L 34,43  L 35,43  L 35,42  Z  " style="fill:rgb(0, 0, 0); fill-opacity:0.059; stroke:none;" />
 <path d="  M 38,16  L 38,17  L 39,17  L 39,16  Z  " style="fill:rgb(0, 0, 0); fill-opacity:0.059; stroke:none;" />
 <path d="  M 40,17  L 40,18  L 41,18  L 41,17  Z  " style="fill:rgb(0, 0, 0); fill-opacity:0.059; stroke:none;" />
 <path d="  M 43,18  L 42,18  L 42,19  L 43,19  Z  " style="fill:rgb(0, 0, 0); fill-opacity:0.059; stroke:none;" />
 <path d="  M 45,19  L 44,19  L 44,20  L 45,20  Z  " style="fill:rgb(0, 0, 0); fill-opacity:0.059; stroke:none;" />
 <path d="  M 27,40  L 27,39  L 26,39  L 26,40  Z  " style="fill:rgb(0, 0, 0); fill-opacity:0.243; stroke:none;" />
 <path d="  M 26,42  L 27,42  L 27,41  L 26,41  Z  " style="fill:rgb(0, 0, 0); fill-opacity:0.494; stroke:none;" />
 <path d="  M 38,46  L 39,46  L 39,45  L 38,45  Z  " style="fill:rgb(0, 0, 0); fill-opacity:0.494; stroke:none;" />
 <path d="  M 27,43  L 27,42  L 26,42  L 26,43  Z  " style="fill:rgb(0, 0, 0); fill-opacity:0.616; stroke:none;" />
 <path d="  M 27,44  L 27,43  L 26,43  L 26,44  Z  " style="fill:rgb(0, 0, 0); fill-opacity:0.757; stroke:none;" />
 <path d="  M 28,4  L 28,3  L 27,3  L 27,4  Z  " style="fill:rgb(0, 0, 0); fill-opacity:0.122; stroke:none;" />
 <path d="  M 27,31  L 28,31  L 28,30  L 27,30  Z  " style="fill:rgb(0, 0, 0); fill-opacity:0.122; stroke:none;" />
 <path d="  M 28,5  L 28,4  L 27,4  L 27,5  Z  " style="fill:rgb(0, 0, 0); fill-opacity:0.925; stroke:none;" />
 <path d="  M 39,17  L 38,17  L 38,18  L 39,18  Z  " style="fill:rgb(0, 0, 0); fill-opacity:0.925; stroke:none;" />
 <path d="  M 40,18  L 40,19  L 41,19  L 41,18  Z  " style="fill:rgb(0, 0, 0); fill-opacity:0.925; stroke:none;" />
 <path d="  M 43,19  L 42,19  L 42,20  L 43,20  Z  " style="fill:rgb(0, 0, 0); fill-opacity:0.925; stroke:none;" />
 <path d="  M 27,7  L 28,7  L 28,6  L 27,6  Z  " style="fill:rgb(0, 0, 0); fill-opacity:0.914; stroke:none;" />
 <path d="  M 28,9  L 29,9  L 29,8  L 28,8  Z  " style="fill:rgb(0, 0, 0); fill-opacity:0.914; stroke:none;" />
 <path d="  M 29,11  L 30,11  L 30,10  L 29,10  Z  " style="fill:rgb(0, 0, 0); fill-opacity:0.914; stroke:none;" />
 <path d="  M 27,7  L 27,8  L 28,8  L 28,7  Z  " style="fill:rgb(0, 0, 0); fill-opacity:0.463; stroke:none;" />
 <path d="  M 28,10  L 29,10  L 29,9  L 28,9  Z  " style="fill:rgb(0, 0, 0); fill-opacity:0.463; stroke:none;" />
 <path d="  M 27,32  L 28,32  L 28,31  L 27,31  Z  " style="fill:rgb(0, 0, 0); fill-opacity:0.247; stroke:none;" />
 <path d="  M 27,32  L 27,33  L 28,33  L 28,32  Z  " style="fill:rgb(0, 0, 0); fill-opacity:0.373; stroke:none;" />
 <path d="  M 28,34  L 27,34  L 27,35  L 28,35  Z  " style="fill:rgb(0, 0, 0); fill-opacity:0.620; stroke:none;" />
 <path d="  M 28,35  L 27,35  L 27,36  L 28,36  Z  " style="fill:rgb(0, 0, 0); fill-opacity:0.745; stroke:none;" />
 <path d="  M 28,5  L 29,5  L 29,4  L 28,4  Z  " style="fill:rgb(0, 0, 0); fill-opacity:0.196; stroke:none;" />
 <path d="  M 32,12  L 32,13  L 33,13  L 33,12  Z  " style="fill:rgb(0, 0, 0); fill-opacity:0.196; stroke:none;" />
 <path d="  M 29,5  L 28,5  L 28,6  L 29,6  Z  " style="fill:rgb(0, 0, 0); fill-opacity:0.847; stroke:none;" />
 <path d="  M 33,17  L 34,17  L 34,16  L 33,16  Z  " style="fill:rgb(0, 0, 0); fill-opacity:0.847; stroke:none;" />
 <path d="  M 36,17  L 35,17  L 35,18  L 36,18  Z  " style="fill:rgb(0, 0, 0); fill-opacity:0.847; stroke:none;" />
 <path d="  M 38,18  L 37,18  L 37,19  L 38,19  Z  " style="fill:rgb(0, 0, 0); fill-opacity:0.847; stroke:none;" />
 <path d="  M 39,19  L 39,20  L 40,20  L 40,19  Z  " style="fill:rgb(0, 0, 0); fill-opacity:0.847; stroke:none;" />
 <path d="  M 28,21  L 28,22  L 29,22  L 29,21  Z  " style="fill:rgb(0, 0, 0); fill-opacity:0.016; stroke:none;" />
 <path d="  M 29,13  L 29,14  L 30,14  L 30,13  Z  " style="fill:rgb(0, 0, 0); fill-opacity:0.016; stroke:none;" />
 <path d="  M 47,29  L 46,29  L 46,30  L 47,30  Z  " style="fill:rgb(0, 0, 0); fill-opacity:0.016; stroke:none;" />
 <path d="  M 29,23  L 29,22  L 28,22  L 28,23  Z  " style="fill:rgb(0, 0, 0); fill-opacity:0.125; stroke:none;" />
 <path d="  M 28,23  L 28,24  L 29,24  L 29,23  Z  " style="fill:rgb(0, 0, 0); fill-opacity:0.251; stroke:none;" />
 <path d="  M 28,27  L 29,27  L 29,26  L 28,26  Z  " style="fill:rgb(0, 0, 0); fill-opacity:0.624; stroke:none;" />
 <path d="  M 29,28  L 29,27  L 28,27  L 28,28  Z  " style="fill:rgb(0, 0, 0); fill-opacity:0.749; stroke:none;" />
 <path d="  M 28,28  L 28,29  L 29,29  L 29,28  Z  " style="fill:rgb(0, 0, 0); fill-opacity:0.875; stroke:none;" />
 <path d="  M 32,11  L 31,11  L 31,12  L 32,12  Z  " style="fill:rgb(0, 0, 0); fill-opacity:0.875; stroke:none;" />
 <path d="  M 28,29  L 28,30  L 29,30  L 29,29  Z  " style="fill:rgb(0, 0, 0); fill-opacity:0.984; stroke:none;" />
 <path d="  M 29,21  L 29,22  L 30,22  L 30,21  Z  " style="fill:rgb(0, 0, 0); fill-opacity:0.984; stroke:none;" />
 <path d="  M 29,41  L 29,40  L 28,40  L 28,41  Z  " style="fill:rgb(0, 0, 0); fill-opacity:0.922; stroke:none;" />
 <path d="  M 44,20  L 44,21  L 45,21  L 45,20  Z  " style="fill:rgb(0, 0, 0); fill-opacity:0.922; stroke:none;" />
 <path d="  M 29,43  L 29,42  L 28,42  L 28,43  Z  " style="fill:rgb(0, 0, 0); fill-opacity:0.478; stroke:none;" />
 <path d="  M 29,43  L 28,43  L 28,44  L 29,44  Z  " style="fill:rgb(0, 0, 0); fill-opacity:0.353; stroke:none;" />
 <path d="  M 29,5  L 29,6  L 30,6  L 30,5  Z  " style="fill:rgb(0, 0, 0); fill-opacity:0.020; stroke:none;" />
 <path d="  M 31,38  L 30,38  L 30,39  L 31,39  Z  " style="fill:rgb(0, 0, 0); fill-opacity:0.020; stroke:none;" />
 <path d="  M 32,12  L 33,12  L 33,11  L 32,11  Z  " style="fill:rgb(0, 0, 0); fill-opacity:0.020; stroke:none;" />
 <path d="  M 30,6  L 29,6  L 29,7  L 30,7  Z  " style="fill:rgb(0, 0, 0); fill-opacity:0.396; stroke:none;" />
 <path d="  M 31,8  L 30,8  L 30,9  L 31,9  Z  " style="fill:rgb(0, 0, 0); fill-opacity:0.396; stroke:none;" />
 <path d="  M 31,11  L 32,11  L 32,10  L 31,10  Z  " style="fill:rgb(0, 0, 0); fill-opacity:0.396; stroke:none;" />
 <path d="  M 29,11  L 29,12  L 30,12  L 30,11  Z  " style="fill:rgb(0, 0, 0); fill-opacity:0.459; stroke:none;" />
 <path d="  M 30,15  L 30,14  L 29,14  L 29,15  Z  " style="fill:rgb(0, 0, 0); fill-opacity:0.129; stroke:none;" />
 <path d="  M 30,15  L 29,15  L 29,16  L 30,16  Z  " style="fill:rgb(0, 0, 0); fill-opacity:0.255; stroke:none;" />
 <path d="  M 30,16  L 29,16  L 29,17  L 30,17  Z  " style="fill:rgb(0, 0, 0); fill-opacity:0.380; stroke:none;" />
 <path d="  M 29,18  L 29,19  L 30,19  L 30,18  Z  " style="fill:rgb(0, 0, 0); fill-opacity:0.627; stroke:none;" />
 <path d="  M 29,21  L 30,21  L 30,20  L 29,20  Z  " style="fill:rgb(0, 0, 0); fill-opacity:0.878; stroke:none;" />
 <path d="  M 35,41  L 36,41  L 36,40  L 35,40  Z  " style="fill:rgb(0, 0, 0); fill-opacity:0.878; stroke:none;" />
 <path d="  M 30,32  L 30,31  L 29,31  L 29,32  Z  " style="fill:rgb(0, 0, 0); fill-opacity:0.855; stroke:none;" />
 <path d="  M 47,22  L 46,22  L 46,28  L 47,28  Z  " style="fill:rgb(0, 0, 0); fill-opacity:0.855; stroke:none;" />
 <path d="  M 29,33  L 30,33  L 30,32  L 29,32  Z  " style="fill:rgb(0, 0, 0); fill-opacity:0.729; stroke:none;" />
 <path d="  M 29,35  L 30,35  L 30,34  L 29,34  Z  " style="fill:rgb(0, 0, 0); fill-opacity:0.482; stroke:none;" />
 <path d="  M 36,15  L 35,15  L 35,16  L 36,16  Z  " style="fill:rgb(0, 0, 0); fill-opacity:0.482; stroke:none;" />
 <path d="  M 29,36  L 30,36  L 30,35  L 29,35  Z  " style="fill:rgb(0, 0, 0); fill-opacity:0.357; stroke:none;" />
 <path d="  M 29,37  L 30,37  L 30,36  L 29,36  Z  " style="fill:rgb(0, 0, 0); fill-opacity:0.231; stroke:none;" />
 <path d="  M 44,27  L 45,27  L 45,23  L 44,23  Z  " style="fill:rgb(0, 0, 0); fill-opacity:0.231; stroke:none;" />
 <path d="  M 29,37  L 29,38  L 30,38  L 30,37  Z  " style="fill:rgb(0, 0, 0); fill-opacity:0.106; stroke:none;" />
 <path d="  M 29,38  L 29,39  L 30,39  L 30,38  Z  " style="fill:rgb(0, 0, 0); fill-opacity:0.224; stroke:none;" />
 <path d="  M 30,29  L 30,30  L 31,30  L 31,29  Z  " style="fill:rgb(0, 0, 0); fill-opacity:0.224; stroke:none;" />
 <path d="  M 31,13  L 31,12  L 30,12  L 30,13  Z  " style="fill:rgb(0, 0, 0); fill-opacity:0.957; stroke:none;" />
 <path d="  M 30,27  L 30,28  L 31,28  L 31,27  Z  " style="fill:rgb(0, 0, 0); fill-opacity:0.957; stroke:none;" />
 <path d="  M 31,24  L 31,23  L 30,23  L 30,24  Z  " style="fill:rgb(0, 0, 0); fill-opacity:0.859; stroke:none;" />
 <path d="  M 31,24  L 30,24  L 30,25  L 31,25  Z  " style="fill:rgb(0, 0, 0); fill-opacity:0.733; stroke:none;" />
 <path d="  M 31,27  L 31,26  L 30,26  L 30,27  Z  " style="fill:rgb(0, 0, 0); fill-opacity:0.486; stroke:none;" />
 <path d="  M 33,14  L 33,15  L 34,15  L 34,14  Z  " style="fill:rgb(0, 0, 0); fill-opacity:0.486; stroke:none;" />
 <path d="  M 31,17  L 32,17  L 32,16  L 31,16  Z  " style="fill:rgb(0, 0, 0); fill-opacity:0.741; stroke:none;" />
 <path d="  M 31,18  L 32,18  L 32,17  L 31,17  Z  " style="fill:rgb(0, 0, 0); fill-opacity:0.612; stroke:none;" />
 <path d="  M 33,42  L 33,41  L 32,41  L 32,42  Z  " style="fill:rgb(0, 0, 0); fill-opacity:0.612; stroke:none;" />
 <path d="  M 31,19  L 32,19  L 32,18  L 31,18  Z  " style="fill:rgb(0, 0, 0); fill-opacity:0.490; stroke:none;" />
 <path d="  M 32,21  L 31,21  L 31,22  L 32,22  Z  " style="fill:rgb(0, 0, 0); fill-opacity:0.110; stroke:none;" />
 <path d="  M 31,41  L 31,42  L 32,42  L 32,41  Z  " style="fill:rgb(0, 0, 0); fill-opacity:0.384; stroke:none;" />
 <path d="  M 32,40  L 33,40  L 33,39  L 32,39  Z  " style="fill:rgb(0, 0, 0); fill-opacity:0.545; stroke:none;" />
 <path d="  M 34,40  L 34,39  L 33,39  L 33,40  Z  " style="fill:rgb(0, 0, 0); fill-opacity:0.318; stroke:none;" />
 <path d="  M 33,41  L 33,42  L 34,42  L 34,41  Z  " style="fill:rgb(0, 0, 0); fill-opacity:0.831; stroke:none;" />
 <path d="  M 34,40  L 35,40  L 35,39  L 34,39  Z  " style="fill:rgb(0, 0, 0); fill-opacity:0.098; stroke:none;" />
 <path d="  M 36,42  L 36,43  L 37,43  L 37,42  Z  " style="fill:rgb(0, 0, 0); fill-opacity:0.765; stroke:none;" />
 <path d="  M 37,43  L 36,43  L 36,44  L 37,44  Z  " style="fill:rgb(0, 0, 0); fill-opacity:0.580; stroke:none;" />
 <path d="  M 36,45  L 37,45  L 37,44  L 36,44  Z  " style="fill:rgb(0, 0, 0); fill-opacity:0.694; stroke:none;" />
 <path d="  M 39,40  L 38,40  L 38,41  L 39,41  Z  " style="fill:rgb(0, 0, 0); fill-opacity:0.031; stroke:none;" />
 <path d="  M 38,42  L 39,42  L 39,41  L 38,41  Z  " style="fill:rgb(0, 0, 0); fill-opacity:0.431; stroke:none;" />
 <path d="  M 39,47  L 39,46  L 38,46  L 38,47  Z  " style="fill:rgb(0, 0, 0); fill-opacity:0.192; stroke:none;" />
 <path d="  M 41,21  L 41,20  L 40,20  L 40,21  Z  " style="fill:rgb(0, 0, 0); fill-opacity:0.365; stroke:none;" />
 <path d="  M 43,22  L 43,21  L 42,21  L 42,22  Z  " style="fill:rgb(0, 0, 0); fill-opacity:0.365; stroke:none;" />
 <path d="  M 41,20  L 41,21  L 42,21  L 42,20  Z  " style="fill:rgb(0, 0, 0); fill-opacity:0.851; stroke:none;" />
 <path d="  M 44,21  L 43,21  L 43,22  L 44,22  Z  " style="fill:rgb(0, 0, 0); fill-opacity:0.851; stroke:none;" />
 <path d="  M 46,21  L 46,20  L 45,20  L 45,21  Z  " style="fill:rgb(0, 0, 0); fill-opacity:0.471; stroke:none;" />
 <path d="  M 46,22  L 47,22  L 47,21  L 46,21  Z  " style="fill:rgb(0, 0, 0); fill-opacity:0.710; stroke:none;" />
 <path d="  M 47,29  L 47,28  L 46,28  L 46,29  Z  " style="fill:rgb(0, 0, 0); fill-opacity:0.698; stroke:none;" />
</svg>

