<?xml version="1.0" encoding="UTF-8" standalone="no"?>
<!DOCTYPE svg PUBLIC "-//W3C//DTD SVG 1.1//EN" 
  "http://www.w3.org/Graphics/SVG/1.1/DTD/svg11.dtd">
<svg width="50" height="50"
     xmlns="http://www.w3.org/2000/svg" version="1.1">
 <path d="  M 0,0  L 0,50  L 50,50  L 50,0  Z  M 2,20  L 3,20  L 3,19  L 5,19  L 5,18  L 7,18  L 7,17  L 9,17  L 9,16  L 11,16  L 11,15  L 13,15  L 13,14  L 15,14  L 15,13  L 16,13  L 16,11  L 17,11  L 17,9  L 18,9  L 18,7  L 19,7  L 19,5  L 20,5  L 20,3  L 22,3  L 22,2  L 28,2  L 28,3  L 30,3  L 30,5  L 31,5  L 31,7  L 32,7  L 32,9  L 33,9  L 33,11  L 34,11  L 34,13  L 35,13  L 35,14  L 37,14  L 37,15  L 39,15  L 39,16  L 41,16  L 41,17  L 43,17  L 43,18  L 45,18  L 45,19  L 47,19  L 47,20  L 48,20  L 48,30  L 47,30  L 47,31  L 31,31  L 31,38  L 36,38  L 36,39  L 39,39  L 39,40  L 40,40  L 40,48  L 10,48  L 10,40  L 11,40  L 11,39  L 14,39  L 14,38  L 19,38  L 19,32  L 18,32  L 18,31  L 3,31  L 3,30  L 2,30  Z  " style="fill:rgb(0, 0, 0); fill-opacity:0.000; stroke:none;" />
 <path d="  M 11,22  L 9,22  L 9,23  L 7,23  L 7,26  L 18,26  L 18,24  L 17,24  L 17,19  L 15,19  L 15,20  L 13,20  L 13,21  L 11,21  Z  " style="fill:rgb(0, 0, 0); fill-opacity:0.000; stroke:none;" />
 <path d="  M 25,38  L 25,37  L 26,37  L 26,29  L 27,29  L 27,21  L 28,21  L 28,11  L 27,11  L 27,9  L 26,9  L 26,7  L 24,7  L 24,9  L 23,9  L 23,11  L 22,11  L 22,13  L 21,13  L 21,14  L 22,14  L 22,22  L 23,22  L 23,30  L 24,30  L 24,38  Z  " style="fill:rgb(0, 0, 0); fill-opacity:0.000; stroke:none;" />
 <path d="  M 43,23  L 41,23  L 41,22  L 39,22  L 39,21  L 37,21  L 37,20  L 35,20  L 35,19  L 33,19  L 33,23  L 32,23  L 32,26  L 43,26  Z  " style="fill:rgb(0, 0, 0); fill-opacity:0.000; stroke:none;" />
 <path d="  M 2,21  L 3,21  L 3,20  L 2,20  Z  " style="fill:rgb(0, 0, 0); fill-opacity:0.400; stroke:none;" />
 <path d="  M 3,21  L 2,21  L 2,22  L 3,22  Z  " style="fill:rgb(0, 0, 0); fill-opacity:0.878; stroke:none;" />
 <path d="  M 3,28  L 3,22  L 2,22  L 2,28  Z  " style="fill:rgb(0, 0, 0); fill-opacity:0.937; stroke:none;" />
 <path d="  M 2,29  L 3,29  L 3,28  L 2,28  Z  " style="fill:rgb(0, 0, 0); fill-opacity:0.859; stroke:none;" />
 <path d="  M 26,43  L 25,43  L 25,44  L 26,44  Z  " style="fill:rgb(0, 0, 0); fill-opacity:0.859; stroke:none;" />
 <path d="  M 3,29  L 2,29  L 2,30  L 3,30  Z  " style="fill:rgb(0, 0, 0); fill-opacity:0.341; stroke:none;" />
 <path d="  M 4,20  L 4,19  L 3,19  L 3,20  Z  " style="fill:rgb(0, 0, 0); fill-opacity:0.169; stroke:none;" />
 <path d="  M 16,39  L 16,38  L 15,38  L 15,39  Z  " style="fill:rgb(0, 0, 0); fill-opacity:0.169; stroke:none;" />
 <path d="  M 18,22  L 17,22  L 17,23  L 18,23  Z  " style="fill:rgb(0, 0, 0); fill-opacity:0.169; stroke:none;" />
 <path d="  M 28,22  L 27,22  L 27,23  L 28,23  Z  " style="fill:rgb(0, 0, 0); fill-opacity:0.169; stroke:none;" />
 <path d="  M 3,20  L 3,21  L 4,21  L 4,20  Z  " style="fill:rgb(0, 0, 0); fill-opacity:0.988; stroke:none;" />
 <path d="  M 6,20  L 6,19  L 5,19  L 5,20  Z  " style="fill:rgb(0, 0, 0); fill-opacity:0.988; stroke:none;" />
 <path d="  M 7,19  L 8,19  L 8,18  L 7,18  Z  " style="fill:rgb(0, 0, 0); fill-opacity:0.988; stroke:none;" />
 <path d="  M 12,17  L 12,16  L 11,16  L 11,17  Z  " style="fill:rgb(0, 0, 0); fill-opacity:0.988; stroke:none;" />
 <path d="  M 13,15  L 13,16  L 14,16  L 14,15  Z  " style="fill:rgb(0, 0, 0); fill-opacity:0.988; stroke:none;" />
 <path d="  M 15,14  L 15,15  L 16,15  L 16,14  Z  " style="fill:rgb(0, 0, 0); fill-opacity:0.988; stroke:none;" />
 <path d="  M 39,47  L 39,41  L 38,41  L 38,40  L 35,40  L 35,39  L 31,39  L 31,38  L 30,38  L 30,30  L 46,30  L 46,29  L 47,29  L 47,21  L 46,21  L 46,20  L 44,20  L 44,19  L 42,19  L 42,18  L 40,18  L 40,17  L 38,17  L 38,16  L 36,16  L 36,15  L 34,15  L 34,14  L 33,14  L 33,12  L 32,12  L 32,10  L 31,10  L 31,8  L 30,8  L 30,6  L 29,6  L 29,4  L 28,4  L 28,3  L 22,3  L 22,4  L 21,4  L 21,6  L 20,6  L 20,7  L 19,7  L 19,9  L 18,9  L 18,11  L 17,11  L 17,14  L 16,14  L 16,15  L 14,15  L 14,16  L 12,16  L 12,17  L 10,17  L 10,18  L 8,18  L 8,19  L 6,19  L 6,20  L 4,20  L 4,21  L 3,21  L 3,29  L 4,29  L 4,30  L 19,30  L 19,31  L 20,31  L 20,39  L 15,39  L 15,40  L 12,40  L 12,41  L 11,41  L 11,47  Z  M 23,30  L 22,30  L 22,22  L 21,22  L 21,14  L 20,14  L 20,12  L 21,12  L 21,10  L 22,10  L 22,8  L 23,8  L 23,6  L 27,6  L 27,8  L 28,8  L 28,10  L 29,10  L 29,12  L 30,12  L 30,13  L 29,13  L 29,21  L 28,21  L 28,30  L 27,30  L 27,38  L 26,38  L 26,44  L 24,44  L 24,38  L 23,38  Z  M 16,18  L 16,17  L 18,17  L 18,23  L 19,23  L 19,26  L 6,26  L 6,22  L 8,22  L 8,21  L 10,21  L 10,20  L 12,20  L 12,19  L 14,19  L 14,18  Z  M 31,23  L 32,23  L 32,17  L 34,17  L 34,18  L 36,18  L 36,19  L 38,19  L 38,20  L 40,20  L 40,21  L 42,21  L 42,22  L 44,22  L 44,26  L 31,26  Z  M 36,44  L 29,44  L 29,42  L 34,42  L 34,43  L 36,43  Z  M 16,43  L 16,42  L 21,42  L 21,44  L 14,44  L 14,43  Z  " style="fill:rgb(0, 0, 0); fill-opacity:1.000; stroke:none;" />
 <path d="  M 3,29  L 3,30  L 4,30  L 4,29  Z  " style="fill:rgb(0, 0, 0); fill-opacity:0.969; stroke:none;" />
 <path d="  M 21,12  L 20,12  L 20,13  L 21,13  Z  " style="fill:rgb(0, 0, 0); fill-opacity:0.969; stroke:none;" />
 <path d="  M 22,11  L 22,10  L 21,10  L 21,11  Z  " style="fill:rgb(0, 0, 0); fill-opacity:0.969; stroke:none;" />
 <path d="  M 23,8  L 22,8  L 22,9  L 23,9  Z  " style="fill:rgb(0, 0, 0); fill-opacity:0.969; stroke:none;" />
 <path d="  M 29,5  L 29,6  L 30,6  L 30,5  Z  " style="fill:rgb(0, 0, 0); fill-opacity:0.969; stroke:none;" />
 <path d="  M 32,12  L 33,12  L 33,11  L 32,11  Z  " style="fill:rgb(0, 0, 0); fill-opacity:0.969; stroke:none;" />
 <path d="  M 4,30  L 3,30  L 3,31  L 4,31  Z  " style="fill:rgb(0, 0, 0); fill-opacity:0.059; stroke:none;" />
 <path d="  M 4,19  L 4,20  L 5,20  L 5,19  Z  " style="fill:rgb(0, 0, 0); fill-opacity:0.635; stroke:none;" />
 <path d="  M 6,18  L 6,19  L 7,19  L 7,18  Z  " style="fill:rgb(0, 0, 0); fill-opacity:0.635; stroke:none;" />
 <path d="  M 11,17  L 11,16  L 10,16  L 10,17  Z  " style="fill:rgb(0, 0, 0); fill-opacity:0.635; stroke:none;" />
 <path d="  M 12,16  L 13,16  L 13,15  L 12,15  Z  " style="fill:rgb(0, 0, 0); fill-opacity:0.635; stroke:none;" />
 <path d="  M 15,14  L 14,14  L 14,15  L 15,15  Z  " style="fill:rgb(0, 0, 0); fill-opacity:0.635; stroke:none;" />
 <path d="  M 33,39  L 33,38  L 32,38  L 32,39  Z  " style="fill:rgb(0, 0, 0); fill-opacity:0.635; stroke:none;" />
 <path d="  M 4,31  L 5,31  L 5,30  L 4,30  Z  " style="fill:rgb(0, 0, 0); fill-opacity:0.196; stroke:none;" />
 <path d="  M 23,31  L 23,32  L 24,32  L 24,31  Z  " style="fill:rgb(0, 0, 0); fill-opacity:0.196; stroke:none;" />
 <path d="  M 6,19  L 6,18  L 5,18  L 5,19  Z  " style="fill:rgb(0, 0, 0); fill-opacity:0.165; stroke:none;" />
 <path d="  M 9,16  L 9,17  L 10,17  L 10,16  Z  " style="fill:rgb(0, 0, 0); fill-opacity:0.165; stroke:none;" />
 <path d="  M 12,16  L 12,15  L 11,15  L 11,16  Z  " style="fill:rgb(0, 0, 0); fill-opacity:0.165; stroke:none;" />
 <path d="  M 13,15  L 14,15  L 14,14  L 13,14  Z  " style="fill:rgb(0, 0, 0); fill-opacity:0.165; stroke:none;" />
 <path d="  M 18,30  L 5,30  L 5,31  L 18,31  Z  " style="fill:rgb(0, 0, 0); fill-opacity:0.200; stroke:none;" />
 <path d="  M 22,24  L 23,24  L 23,23  L 22,23  Z  " style="fill:rgb(0, 0, 0); fill-opacity:0.200; stroke:none;" />
 <path d="  M 45,31  L 45,30  L 32,30  L 32,31  Z  " style="fill:rgb(0, 0, 0); fill-opacity:0.200; stroke:none;" />
 <path d="  M 34,38  L 34,39  L 35,39  L 35,38  Z  " style="fill:rgb(0, 0, 0); fill-opacity:0.200; stroke:none;" />
 <path d="  M 6,23  L 7,23  L 7,22  L 6,22  Z  " style="fill:rgb(0, 0, 0); fill-opacity:0.953; stroke:none;" />
 <path d="  M 13,19  L 12,19  L 12,20  L 13,20  Z  " style="fill:rgb(0, 0, 0); fill-opacity:0.953; stroke:none;" />
 <path d="  M 15,18  L 14,18  L 14,19  L 15,19  Z  " style="fill:rgb(0, 0, 0); fill-opacity:0.953; stroke:none;" />
 <path d="  M 15,40  L 15,39  L 14,39  L 14,40  Z  " style="fill:rgb(0, 0, 0); fill-opacity:0.953; stroke:none;" />
 <path d="  M 21,13  L 20,13  L 20,14  L 21,14  Z  " style="fill:rgb(0, 0, 0); fill-opacity:0.953; stroke:none;" />
 <path d="  M 47,29  L 46,29  L 46,30  L 47,30  Z  " style="fill:rgb(0, 0, 0); fill-opacity:0.953; stroke:none;" />
 <path d="  M 6,23  L 6,24  L 7,24  L 7,23  Z  " style="fill:rgb(0, 0, 0); fill-opacity:0.251; stroke:none;" />
 <path d="  M 7,26  L 7,24  L 6,24  L 6,26  Z  " style="fill:rgb(0, 0, 0); fill-opacity:0.231; stroke:none;" />
 <path d="  M 8,17  L 7,17  L 7,18  L 8,18  Z  " style="fill:rgb(0, 0, 0); fill-opacity:0.173; stroke:none;" />
 <path d="  M 15,14  L 16,14  L 16,13  L 15,13  Z  " style="fill:rgb(0, 0, 0); fill-opacity:0.173; stroke:none;" />
 <path d="  M 28,14  L 28,15  L 29,15  L 29,14  Z  " style="fill:rgb(0, 0, 0); fill-opacity:0.173; stroke:none;" />
 <path d="  M 33,22  L 33,21  L 32,21  L 32,22  Z  " style="fill:rgb(0, 0, 0); fill-opacity:0.173; stroke:none;" />
 <path d="  M 7,22  L 7,23  L 8,23  L 8,22  Z  " style="fill:rgb(0, 0, 0); fill-opacity:0.533; stroke:none;" />
 <path d="  M 13,19  L 13,20  L 14,20  L 14,19  Z  " style="fill:rgb(0, 0, 0); fill-opacity:0.533; stroke:none;" />
 <path d="  M 26,34  L 27,34  L 27,33  L 26,33  Z  " style="fill:rgb(0, 0, 0); fill-opacity:0.533; stroke:none;" />
 <path d="  M 30,34  L 30,35  L 31,35  L 31,34  Z  " style="fill:rgb(0, 0, 0); fill-opacity:0.533; stroke:none;" />
 <path d="  M 8,17  L 8,18  L 9,18  L 9,17  Z  " style="fill:rgb(0, 0, 0); fill-opacity:0.667; stroke:none;" />
 <path d="  M 18,19  L 18,18  L 17,18  L 17,19  Z  " style="fill:rgb(0, 0, 0); fill-opacity:0.667; stroke:none;" />
 <path d="  M 27,27  L 28,27  L 28,26  L 27,26  Z  " style="fill:rgb(0, 0, 0); fill-opacity:0.667; stroke:none;" />
 <path d="  M 31,25  L 31,26  L 32,26  L 32,25  Z  " style="fill:rgb(0, 0, 0); fill-opacity:0.667; stroke:none;" />
 <path d="  M 33,14  L 34,14  L 34,13  L 33,13  Z  " style="fill:rgb(0, 0, 0); fill-opacity:0.667; stroke:none;" />
 <path d="  M 35,15  L 36,15  L 36,14  L 35,14  Z  " style="fill:rgb(0, 0, 0); fill-opacity:0.667; stroke:none;" />
 <path d="  M 37,15  L 37,16  L 38,16  L 38,15  Z  " style="fill:rgb(0, 0, 0); fill-opacity:0.667; stroke:none;" />
 <path d="  M 40,17  L 40,16  L 39,16  L 39,17  Z  " style="fill:rgb(0, 0, 0); fill-opacity:0.667; stroke:none;" />
 <path d="  M 44,18  L 43,18  L 43,19  L 44,19  Z  " style="fill:rgb(0, 0, 0); fill-opacity:0.667; stroke:none;" />
 <path d="  M 45,19  L 45,20  L 46,20  L 46,19  Z  " style="fill:rgb(0, 0, 0); fill-opacity:0.667; stroke:none;" />
 <path d="  M 8,22  L 9,22  L 9,21  L 8,21  Z  " style="fill:rgb(0, 0, 0); fill-opacity:0.945; stroke:none;" />
 <path d="  M 11,20  L 10,20  L 10,21  L 11,21  Z  " style="fill:rgb(0, 0, 0); fill-opacity:0.945; stroke:none;" />
 <path d="  M 24,38  L 24,37  L 23,37  L 23,38  Z  " style="fill:rgb(0, 0, 0); fill-opacity:0.945; stroke:none;" />
 <path d="  M 36,18  L 35,18  L 35,19  L 36,19  Z  " style="fill:rgb(0, 0, 0); fill-opacity:0.945; stroke:none;" />
 <path d="  M 38,20  L 38,19  L 37,19  L 37,20  Z  " style="fill:rgb(0, 0, 0); fill-opacity:0.945; stroke:none;" />
 <path d="  M 44,23  L 44,22  L 43,22  L 43,23  Z  " style="fill:rgb(0, 0, 0); fill-opacity:0.945; stroke:none;" />
 <path d="  M 9,22  L 8,22  L 8,23  L 9,23  Z  " style="fill:rgb(0, 0, 0); fill-opacity:0.071; stroke:none;" />
 <path d="  M 11,22  L 11,21  L 10,21  L 10,22  Z  " style="fill:rgb(0, 0, 0); fill-opacity:0.071; stroke:none;" />
 <path d="  M 12,21  L 13,21  L 13,20  L 12,20  Z  " style="fill:rgb(0, 0, 0); fill-opacity:0.071; stroke:none;" />
 <path d="  M 15,19  L 14,19  L 14,20  L 15,20  Z  " style="fill:rgb(0, 0, 0); fill-opacity:0.071; stroke:none;" />
 <path d="  M 23,31  L 24,31  L 24,30  L 23,30  Z  " style="fill:rgb(0, 0, 0); fill-opacity:0.071; stroke:none;" />
 <path d="  M 9,18  L 10,18  L 10,17  L 9,17  Z  " style="fill:rgb(0, 0, 0); fill-opacity:0.992; stroke:none;" />
 <path d="  M 30,12  L 29,12  L 29,13  L 30,13  Z  " style="fill:rgb(0, 0, 0); fill-opacity:0.992; stroke:none;" />
 <path d="  M 35,15  L 35,14  L 34,14  L 34,15  Z  " style="fill:rgb(0, 0, 0); fill-opacity:0.992; stroke:none;" />
 <path d="  M 36,15  L 36,16  L 37,16  L 37,15  Z  " style="fill:rgb(0, 0, 0); fill-opacity:0.992; stroke:none;" />
 <path d="  M 38,16  L 38,17  L 39,17  L 39,16  Z  " style="fill:rgb(0, 0, 0); fill-opacity:0.992; stroke:none;" />
 <path d="  M 43,18  L 42,18  L 42,19  L 43,19  Z  " style="fill:rgb(0, 0, 0); fill-opacity:0.992; stroke:none;" />
 <path d="  M 45,19  L 44,19  L 44,20  L 45,20  Z  " style="fill:rgb(0, 0, 0); fill-opacity:0.992; stroke:none;" />
 <path d="  M 10,21  L 9,21  L 9,22  L 10,22  Z  " style="fill:rgb(0, 0, 0); fill-opacity:0.510; stroke:none;" />
 <path d="  M 11,40  L 10,40  L 10,41  L 11,41  Z  " style="fill:rgb(0, 0, 0); fill-opacity:0.247; stroke:none;" />
 <path d="  M 11,42  L 11,41  L 10,41  L 10,42  Z  " style="fill:rgb(0, 0, 0); fill-opacity:0.573; stroke:none;" />
 <path d="  M 12,48  L 12,47  L 11,47  L 11,48  Z  " style="fill:rgb(0, 0, 0); fill-opacity:0.573; stroke:none;" />
 <path d="  M 22,19  L 22,18  L 21,18  L 21,19  Z  " style="fill:rgb(0, 0, 0); fill-opacity:0.573; stroke:none;" />
 <path d="  M 29,42  L 29,43  L 30,43  L 30,42  Z  " style="fill:rgb(0, 0, 0); fill-opacity:0.573; stroke:none;" />
 <path d="  M 30,6  L 30,7  L 31,7  L 31,6  Z  " style="fill:rgb(0, 0, 0); fill-opacity:0.573; stroke:none;" />
 <path d="  M 31,8  L 31,9  L 32,9  L 32,8  Z  " style="fill:rgb(0, 0, 0); fill-opacity:0.573; stroke:none;" />
 <path d="  M 33,10  L 32,10  L 32,11  L 33,11  Z  " style="fill:rgb(0, 0, 0); fill-opacity:0.573; stroke:none;" />
 <path d="  M 10,42  L 10,45  L 11,45  L 11,42  Z  " style="fill:rgb(0, 0, 0); fill-opacity:0.604; stroke:none;" />
 <path d="  M 10,45  L 10,46  L 11,46  L 11,45  Z  " style="fill:rgb(0, 0, 0); fill-opacity:0.600; stroke:none;" />
 <path d="  M 17,38  L 17,39  L 18,39  L 18,38  Z  " style="fill:rgb(0, 0, 0); fill-opacity:0.600; stroke:none;" />
 <path d="  M 11,47  L 11,46  L 10,46  L 10,47  Z  " style="fill:rgb(0, 0, 0); fill-opacity:0.427; stroke:none;" />
 <path d="  M 11,48  L 11,47  L 10,47  L 10,48  Z  " style="fill:rgb(0, 0, 0); fill-opacity:0.024; stroke:none;" />
 <path d="  M 12,21  L 12,20  L 11,20  L 11,21  Z  " style="fill:rgb(0, 0, 0); fill-opacity:0.514; stroke:none;" />
 <path d="  M 11,39  L 11,40  L 12,40  L 12,39  Z  " style="fill:rgb(0, 0, 0); fill-opacity:0.192; stroke:none;" />
 <path d="  M 25,39  L 24,39  L 24,40  L 25,40  Z  " style="fill:rgb(0, 0, 0); fill-opacity:0.192; stroke:none;" />
 <path d="  M 46,31  L 46,30  L 45,30  L 45,31  Z  " style="fill:rgb(0, 0, 0); fill-opacity:0.192; stroke:none;" />
 <path d="  M 12,41  L 12,40  L 11,40  L 11,41  Z  " style="fill:rgb(0, 0, 0); fill-opacity:0.984; stroke:none;" />
 <path d="  M 26,6  L 26,7  L 27,7  L 27,6  Z  " style="fill:rgb(0, 0, 0); fill-opacity:0.984; stroke:none;" />
 <path d="  M 40,17  L 40,18  L 41,18  L 41,17  Z  " style="fill:rgb(0, 0, 0); fill-opacity:0.984; stroke:none;" />
 <path d="  M 13,40  L 13,39  L 12,39  L 12,40  Z  " style="fill:rgb(0, 0, 0); fill-opacity:0.522; stroke:none;" />
 <path d="  M 13,48  L 13,47  L 12,47  L 12,48  Z  " style="fill:rgb(0, 0, 0); fill-opacity:0.847; stroke:none;" />
 <path d="  M 13,39  L 13,40  L 14,40  L 14,39  Z  " style="fill:rgb(0, 0, 0); fill-opacity:0.749; stroke:none;" />
 <path d="  M 13,47  L 13,48  L 37,48  L 37,47  Z  " style="fill:rgb(0, 0, 0); fill-opacity:0.867; stroke:none;" />
 <path d="  M 25,2  L 25,3  L 26,3  L 26,2  Z  " style="fill:rgb(0, 0, 0); fill-opacity:0.867; stroke:none;" />
 <path d="  M 32,39  L 32,38  L 31,38  L 31,39  Z  " style="fill:rgb(0, 0, 0); fill-opacity:0.867; stroke:none;" />
 <path d="  M 14,38  L 14,39  L 15,39  L 15,38  Z  " style="fill:rgb(0, 0, 0); fill-opacity:0.012; stroke:none;" />
 <path d="  M 15,43  L 14,43  L 14,44  L 15,44  Z  " style="fill:rgb(0, 0, 0); fill-opacity:0.792; stroke:none;" />
 <path d="  M 32,24  L 31,24  L 31,25  L 32,25  Z  " style="fill:rgb(0, 0, 0); fill-opacity:0.792; stroke:none;" />
 <path d="  M 16,18  L 15,18  L 15,19  L 16,19  Z  " style="fill:rgb(0, 0, 0); fill-opacity:0.569; stroke:none;" />
 <path d="  M 23,27  L 23,26  L 22,26  L 22,27  Z  " style="fill:rgb(0, 0, 0); fill-opacity:0.569; stroke:none;" />
 <path d="  M 16,44  L 16,43  L 15,43  L 15,44  Z  " style="fill:rgb(0, 0, 0); fill-opacity:0.369; stroke:none;" />
 <path d="  M 17,38  L 16,38  L 16,39  L 17,39  Z  " style="fill:rgb(0, 0, 0); fill-opacity:0.369; stroke:none;" />
 <path d="  M 17,11  L 16,11  L 16,12  L 17,12  Z  " style="fill:rgb(0, 0, 0); fill-opacity:0.204; stroke:none;" />
 <path d="  M 22,16  L 22,15  L 21,15  L 21,16  Z  " style="fill:rgb(0, 0, 0); fill-opacity:0.204; stroke:none;" />
 <path d="  M 16,12  L 16,13  L 17,13  L 17,12  Z  " style="fill:rgb(0, 0, 0); fill-opacity:0.388; stroke:none;" />
 <path d="  M 17,14  L 17,13  L 16,13  L 16,14  Z  " style="fill:rgb(0, 0, 0); fill-opacity:0.722; stroke:none;" />
 <path d="  M 16,18  L 17,18  L 17,17  L 16,17  Z  " style="fill:rgb(0, 0, 0); fill-opacity:0.949; stroke:none;" />
 <path d="  M 22,21  L 21,21  L 21,22  L 22,22  Z  " style="fill:rgb(0, 0, 0); fill-opacity:0.949; stroke:none;" />
 <path d="  M 23,30  L 23,29  L 22,29  L 22,30  Z  " style="fill:rgb(0, 0, 0); fill-opacity:0.949; stroke:none;" />
 <path d="  M 17,19  L 17,18  L 16,18  L 16,19  Z  " style="fill:rgb(0, 0, 0); fill-opacity:0.090; stroke:none;" />
 <path d="  M 17,42  L 16,42  L 16,43  L 17,43  Z  " style="fill:rgb(0, 0, 0); fill-opacity:0.886; stroke:none;" />
 <path d="  M 16,43  L 16,44  L 20,44  L 20,43  Z  " style="fill:rgb(0, 0, 0); fill-opacity:0.267; stroke:none;" />
 <path d="  M 30,44  L 34,44  L 34,43  L 30,43  Z  " style="fill:rgb(0, 0, 0); fill-opacity:0.267; stroke:none;" />
 <path d="  M 18,10  L 18,9  L 17,9  L 17,10  Z  " style="fill:rgb(0, 0, 0); fill-opacity:0.227; stroke:none;" />
 <path d="  M 18,7  L 18,8  L 19,8  L 19,7  Z  " style="fill:rgb(0, 0, 0); fill-opacity:0.227; stroke:none;" />
 <path d="  M 20,42  L 19,42  L 19,43  L 20,43  Z  " style="fill:rgb(0, 0, 0); fill-opacity:0.227; stroke:none;" />
 <path d="  M 17,11  L 18,11  L 18,10  L 17,10  Z  " style="fill:rgb(0, 0, 0); fill-opacity:0.733; stroke:none;" />
 <path d="  M 17,18  L 18,18  L 18,17  L 17,17  Z  " style="fill:rgb(0, 0, 0); fill-opacity:0.925; stroke:none;" />
 <path d="  M 18,20  L 18,19  L 17,19  L 17,20  Z  " style="fill:rgb(0, 0, 0); fill-opacity:0.541; stroke:none;" />
 <path d="  M 27,26  L 28,26  L 28,25  L 27,25  Z  " style="fill:rgb(0, 0, 0); fill-opacity:0.541; stroke:none;" />
 <path d="  M 33,19  L 33,18  L 32,18  L 32,19  Z  " style="fill:rgb(0, 0, 0); fill-opacity:0.541; stroke:none;" />
 <path d="  M 39,21  L 39,20  L 38,20  L 38,21  Z  " style="fill:rgb(0, 0, 0); fill-opacity:0.541; stroke:none;" />
 <path d="  M 39,42  L 39,45  L 40,45  L 40,42  Z  " style="fill:rgb(0, 0, 0); fill-opacity:0.541; stroke:none;" />
 <path d="  M 40,21  L 40,22  L 41,22  L 41,21  Z  " style="fill:rgb(0, 0, 0); fill-opacity:0.541; stroke:none;" />
 <path d="  M 17,20  L 17,21  L 18,21  L 18,20  Z  " style="fill:rgb(0, 0, 0); fill-opacity:0.416; stroke:none;" />
 <path d="  M 20,37  L 20,36  L 19,36  L 19,37  Z  " style="fill:rgb(0, 0, 0); fill-opacity:0.416; stroke:none;" />
 <path d="  M 17,22  L 18,22  L 18,21  L 17,21  Z  " style="fill:rgb(0, 0, 0); fill-opacity:0.290; stroke:none;" />
 <path d="  M 27,31  L 26,31  L 26,32  L 27,32  Z  " style="fill:rgb(0, 0, 0); fill-opacity:0.290; stroke:none;" />
 <path d="  M 27,24  L 28,24  L 28,23  L 27,23  Z  " style="fill:rgb(0, 0, 0); fill-opacity:0.290; stroke:none;" />
 <path d="  M 44,26  L 44,24  L 43,24  L 43,26  Z  " style="fill:rgb(0, 0, 0); fill-opacity:0.290; stroke:none;" />
 <path d="  M 17,23  L 17,24  L 18,24  L 18,23  Z  " style="fill:rgb(0, 0, 0); fill-opacity:0.043; stroke:none;" />
 <path d="  M 27,22  L 28,22  L 28,21  L 27,21  Z  " style="fill:rgb(0, 0, 0); fill-opacity:0.043; stroke:none;" />
 <path d="  M 17,42  L 17,43  L 18,43  L 18,42  Z  " style="fill:rgb(0, 0, 0); fill-opacity:0.663; stroke:none;" />
 <path d="  M 20,34  L 19,34  L 19,35  L 20,35  Z  " style="fill:rgb(0, 0, 0); fill-opacity:0.663; stroke:none;" />
 <path d="  M 19,8  L 18,8  L 18,9  L 19,9  Z  " style="fill:rgb(0, 0, 0); fill-opacity:0.737; stroke:none;" />
 <path d="  M 20,6  L 19,6  L 19,7  L 20,7  Z  " style="fill:rgb(0, 0, 0); fill-opacity:0.737; stroke:none;" />
 <path d="  M 19,24  L 19,23  L 18,23  L 18,24  Z  " style="fill:rgb(0, 0, 0); fill-opacity:0.996; stroke:none;" />
 <path d="  M 20,32  L 20,31  L 19,31  L 19,32  Z  " style="fill:rgb(0, 0, 0); fill-opacity:0.996; stroke:none;" />
 <path d="  M 19,38  L 19,39  L 20,39  L 20,38  Z  " style="fill:rgb(0, 0, 0); fill-opacity:0.996; stroke:none;" />
 <path d="  M 21,5  L 20,5  L 20,6  L 21,6  Z  " style="fill:rgb(0, 0, 0); fill-opacity:0.996; stroke:none;" />
 <path d="  M 27,38  L 27,37  L 26,37  L 26,38  Z  " style="fill:rgb(0, 0, 0); fill-opacity:0.996; stroke:none;" />
 <path d="  M 27,29  L 27,30  L 28,30  L 28,29  Z  " style="fill:rgb(0, 0, 0); fill-opacity:0.996; stroke:none;" />
 <path d="  M 31,31  L 31,30  L 30,30  L 30,31  Z  " style="fill:rgb(0, 0, 0); fill-opacity:0.996; stroke:none;" />
 <path d="  M 18,24  L 18,25  L 19,25  L 19,24  Z  " style="fill:rgb(0, 0, 0); fill-opacity:0.914; stroke:none;" />
 <path d="  M 19,33  L 20,33  L 20,32  L 19,32  Z  " style="fill:rgb(0, 0, 0); fill-opacity:0.914; stroke:none;" />
 <path d="  M 27,29  L 28,29  L 28,28  L 27,28  Z  " style="fill:rgb(0, 0, 0); fill-opacity:0.914; stroke:none;" />
 <path d="  M 19,25  L 18,25  L 18,26  L 19,26  Z  " style="fill:rgb(0, 0, 0); fill-opacity:0.788; stroke:none;" />
 <path d="  M 19,34  L 20,34  L 20,33  L 19,33  Z  " style="fill:rgb(0, 0, 0); fill-opacity:0.788; stroke:none;" />
 <path d="  M 27,27  L 27,28  L 28,28  L 28,27  Z  " style="fill:rgb(0, 0, 0); fill-opacity:0.788; stroke:none;" />
 <path d="  M 47,28  L 47,29  L 48,29  L 48,28  Z  " style="fill:rgb(0, 0, 0); fill-opacity:0.788; stroke:none;" />
 <path d="  M 19,31  L 19,30  L 18,30  L 18,31  Z  " style="fill:rgb(0, 0, 0); fill-opacity:0.318; stroke:none;" />
 <path d="  M 24,40  L 24,41  L 25,41  L 25,40  Z  " style="fill:rgb(0, 0, 0); fill-opacity:0.318; stroke:none;" />
 <path d="  M 19,32  L 19,31  L 18,31  L 18,32  Z  " style="fill:rgb(0, 0, 0); fill-opacity:0.035; stroke:none;" />
 <path d="  M 25,37  L 25,38  L 26,38  L 26,37  Z  " style="fill:rgb(0, 0, 0); fill-opacity:0.035; stroke:none;" />
 <path d="  M 19,38  L 18,38  L 18,39  L 19,39  Z  " style="fill:rgb(0, 0, 0); fill-opacity:0.835; stroke:none;" />
 <path d="  M 19,42  L 18,42  L 18,43  L 19,43  Z  " style="fill:rgb(0, 0, 0); fill-opacity:0.443; stroke:none;" />
 <path d="  M 24,33  L 23,33  L 23,34  L 24,34  Z  " style="fill:rgb(0, 0, 0); fill-opacity:0.443; stroke:none;" />
 <path d="  M 24,42  L 25,42  L 25,41  L 24,41  Z  " style="fill:rgb(0, 0, 0); fill-opacity:0.443; stroke:none;" />
 <path d="  M 19,6  L 20,6  L 20,5  L 19,5  Z  " style="fill:rgb(0, 0, 0); fill-opacity:0.239; stroke:none;" />
 <path d="  M 19,35  L 19,36  L 20,36  L 20,35  Z  " style="fill:rgb(0, 0, 0); fill-opacity:0.537; stroke:none;" />
 <path d="  M 40,46  L 40,45  L 39,45  L 39,46  Z  " style="fill:rgb(0, 0, 0); fill-opacity:0.537; stroke:none;" />
 <path d="  M 19,37  L 19,38  L 20,38  L 20,37  Z  " style="fill:rgb(0, 0, 0); fill-opacity:0.329; stroke:none;" />
 <path d="  M 21,16  L 21,17  L 22,17  L 22,16  Z  " style="fill:rgb(0, 0, 0); fill-opacity:0.329; stroke:none;" />
 <path d="  M 48,20  L 47,20  L 47,21  L 48,21  Z  " style="fill:rgb(0, 0, 0); fill-opacity:0.329; stroke:none;" />
 <path d="  M 20,4  L 21,4  L 21,3  L 20,3  Z  " style="fill:rgb(0, 0, 0); fill-opacity:0.020; stroke:none;" />
 <path d="  M 20,4  L 20,5  L 21,5  L 21,4  Z  " style="fill:rgb(0, 0, 0); fill-opacity:0.502; stroke:none;" />
 <path d="  M 34,19  L 35,19  L 35,18  L 34,18  Z  " style="fill:rgb(0, 0, 0); fill-opacity:0.502; stroke:none;" />
 <path d="  M 36,20  L 37,20  L 37,19  L 36,19  Z  " style="fill:rgb(0, 0, 0); fill-opacity:0.502; stroke:none;" />
 <path d="  M 43,23  L 43,22  L 42,22  L 42,23  Z  " style="fill:rgb(0, 0, 0); fill-opacity:0.502; stroke:none;" />
 <path d="  M 20,42  L 20,43  L 21,43  L 21,42  Z  " style="fill:rgb(0, 0, 0); fill-opacity:0.682; stroke:none;" />
 <path d="  M 21,44  L 21,43  L 20,43  L 20,44  Z  " style="fill:rgb(0, 0, 0); fill-opacity:0.671; stroke:none;" />
 <path d="  M 28,19  L 29,19  L 29,18  L 28,18  Z  " style="fill:rgb(0, 0, 0); fill-opacity:0.671; stroke:none;" />
 <path d="  M 22,3  L 21,3  L 21,4  L 22,4  Z  " style="fill:rgb(0, 0, 0); fill-opacity:0.620; stroke:none;" />
 <path d="  M 21,11  L 21,12  L 22,12  L 22,11  Z  " style="fill:rgb(0, 0, 0); fill-opacity:0.553; stroke:none;" />
 <path d="  M 22,10  L 23,10  L 23,9  L 22,9  Z  " style="fill:rgb(0, 0, 0); fill-opacity:0.553; stroke:none;" />
 <path d="  M 21,12  L 21,13  L 22,13  L 22,12  Z  " style="fill:rgb(0, 0, 0); fill-opacity:0.094; stroke:none;" />
 <path d="  M 22,14  L 21,14  L 21,15  L 22,15  Z  " style="fill:rgb(0, 0, 0); fill-opacity:0.078; stroke:none;" />
 <path d="  M 33,18  L 33,19  L 34,19  L 34,18  Z  " style="fill:rgb(0, 0, 0); fill-opacity:0.078; stroke:none;" />
 <path d="  M 35,20  L 36,20  L 36,19  L 35,19  Z  " style="fill:rgb(0, 0, 0); fill-opacity:0.078; stroke:none;" />
 <path d="  M 42,23  L 42,22  L 41,22  L 41,23  Z  " style="fill:rgb(0, 0, 0); fill-opacity:0.078; stroke:none;" />
 <path d="  M 21,17  L 21,18  L 22,18  L 22,17  Z  " style="fill:rgb(0, 0, 0); fill-opacity:0.455; stroke:none;" />
 <path d="  M 31,42  L 31,43  L 32,43  L 32,42  Z  " style="fill:rgb(0, 0, 0); fill-opacity:0.455; stroke:none;" />
 <path d="  M 21,20  L 22,20  L 22,19  L 21,19  Z  " style="fill:rgb(0, 0, 0); fill-opacity:0.698; stroke:none;" />
 <path d="  M 21,20  L 21,21  L 22,21  L 22,20  Z  " style="fill:rgb(0, 0, 0); fill-opacity:0.827; stroke:none;" />
 <path d="  M 23,2  L 22,2  L 22,3  L 23,3  Z  " style="fill:rgb(0, 0, 0); fill-opacity:0.298; stroke:none;" />
 <path d="  M 29,16  L 29,15  L 28,15  L 28,16  Z  " style="fill:rgb(0, 0, 0); fill-opacity:0.298; stroke:none;" />
 <path d="  M 33,20  L 32,20  L 32,21  L 33,21  Z  " style="fill:rgb(0, 0, 0); fill-opacity:0.298; stroke:none;" />
 <path d="  M 22,10  L 22,11  L 23,11  L 23,10  Z  " style="fill:rgb(0, 0, 0); fill-opacity:0.102; stroke:none;" />
 <path d="  M 24,8  L 23,8  L 23,9  L 24,9  Z  " style="fill:rgb(0, 0, 0); fill-opacity:0.102; stroke:none;" />
 <path d="  M 23,23  L 23,22  L 22,22  L 22,23  Z  " style="fill:rgb(0, 0, 0); fill-opacity:0.075; stroke:none;" />
 <path d="  M 22,24  L 22,25  L 23,25  L 23,24  Z  " style="fill:rgb(0, 0, 0); fill-opacity:0.325; stroke:none;" />
 <path d="  M 23,25  L 22,25  L 22,26  L 23,26  Z  " style="fill:rgb(0, 0, 0); fill-opacity:0.447; stroke:none;" />
 <path d="  M 23,27  L 22,27  L 22,28  L 23,28  Z  " style="fill:rgb(0, 0, 0); fill-opacity:0.694; stroke:none;" />
 <path d="  M 23,29  L 23,28  L 22,28  L 22,29  Z  " style="fill:rgb(0, 0, 0); fill-opacity:0.824; stroke:none;" />
 <path d="  M 35,43  L 35,44  L 36,44  L 36,43  Z  " style="fill:rgb(0, 0, 0); fill-opacity:0.824; stroke:none;" />
 <path d="  M 23,3  L 24,3  L 24,2  L 23,2  Z  " style="fill:rgb(0, 0, 0); fill-opacity:0.702; stroke:none;" />
 <path d="  M 23,7  L 24,7  L 24,6  L 23,6  Z  " style="fill:rgb(0, 0, 0); fill-opacity:0.976; stroke:none;" />
 <path d="  M 46,20  L 46,21  L 47,21  L 47,20  Z  " style="fill:rgb(0, 0, 0); fill-opacity:0.976; stroke:none;" />
 <path d="  M 23,8  L 24,8  L 24,7  L 23,7  Z  " style="fill:rgb(0, 0, 0); fill-opacity:0.557; stroke:none;" />
 <path d="  M 24,33  L 24,32  L 23,32  L 23,33  Z  " style="fill:rgb(0, 0, 0); fill-opacity:0.322; stroke:none;" />
 <path d="  M 23,34  L 23,35  L 24,35  L 24,34  Z  " style="fill:rgb(0, 0, 0); fill-opacity:0.565; stroke:none;" />
 <path d="  M 24,42  L 24,43  L 25,43  L 25,42  Z  " style="fill:rgb(0, 0, 0); fill-opacity:0.565; stroke:none;" />
 <path d="  M 24,36  L 24,35  L 23,35  L 23,36  Z  " style="fill:rgb(0, 0, 0); fill-opacity:0.690; stroke:none;" />
 <path d="  M 24,36  L 23,36  L 23,37  L 24,37  Z  " style="fill:rgb(0, 0, 0); fill-opacity:0.816; stroke:none;" />
 <path d="  M 25,3  L 25,2  L 24,2  L 24,3  Z  " style="fill:rgb(0, 0, 0); fill-opacity:0.871; stroke:none;" />
 <path d="  M 25,6  L 24,6  L 24,7  L 25,7  Z  " style="fill:rgb(0, 0, 0); fill-opacity:0.424; stroke:none;" />
 <path d="  M 28,17  L 29,17  L 29,16  L 28,16  Z  " style="fill:rgb(0, 0, 0); fill-opacity:0.424; stroke:none;" />
 <path d="  M 25,38  L 24,38  L 24,39  L 25,39  Z  " style="fill:rgb(0, 0, 0); fill-opacity:0.067; stroke:none;" />
 <path d="  M 25,43  L 24,43  L 24,44  L 25,44  Z  " style="fill:rgb(0, 0, 0); fill-opacity:0.796; stroke:none;" />
 <path d="  M 29,19  L 28,19  L 28,20  L 29,20  Z  " style="fill:rgb(0, 0, 0); fill-opacity:0.796; stroke:none;" />
 <path d="  M 26,6  L 25,6  L 25,7  L 26,7  Z  " style="fill:rgb(0, 0, 0); fill-opacity:0.404; stroke:none;" />
 <path d="  M 26,41  L 26,40  L 25,40  L 25,41  Z  " style="fill:rgb(0, 0, 0); fill-opacity:0.404; stroke:none;" />
 <path d="  M 26,39  L 26,38  L 25,38  L 25,39  Z  " style="fill:rgb(0, 0, 0); fill-opacity:0.161; stroke:none;" />
 <path d="  M 26,31  L 27,31  L 27,30  L 26,30  Z  " style="fill:rgb(0, 0, 0); fill-opacity:0.161; stroke:none;" />
 <path d="  M 25,40  L 26,40  L 26,39  L 25,39  Z  " style="fill:rgb(0, 0, 0); fill-opacity:0.282; stroke:none;" />
 <path d="  M 47,29  L 47,30  L 48,30  L 48,29  Z  " style="fill:rgb(0, 0, 0); fill-opacity:0.282; stroke:none;" />
 <path d="  M 26,42  L 26,41  L 25,41  L 25,42  Z  " style="fill:rgb(0, 0, 0); fill-opacity:0.529; stroke:none;" />
 <path d="  M 39,48  L 39,47  L 38,47  L 38,48  Z  " style="fill:rgb(0, 0, 0); fill-opacity:0.529; stroke:none;" />
 <path d="  M 26,43  L 26,42  L 25,42  L 25,43  Z  " style="fill:rgb(0, 0, 0); fill-opacity:0.655; stroke:none;" />
 <path d="  M 27,3  L 27,2  L 26,2  L 26,3  Z  " style="fill:rgb(0, 0, 0); fill-opacity:0.686; stroke:none;" />
 <path d="  M 27,7  L 26,7  L 26,8  L 27,8  Z  " style="fill:rgb(0, 0, 0); fill-opacity:0.616; stroke:none;" />
 <path d="  M 28,9  L 27,9  L 27,10  L 28,10  Z  " style="fill:rgb(0, 0, 0); fill-opacity:0.616; stroke:none;" />
 <path d="  M 28,11  L 28,12  L 29,12  L 29,11  Z  " style="fill:rgb(0, 0, 0); fill-opacity:0.616; stroke:none;" />
 <path d="  M 26,8  L 26,9  L 27,9  L 27,8  Z  " style="fill:rgb(0, 0, 0); fill-opacity:0.133; stroke:none;" />
 <path d="  M 28,10  L 27,10  L 27,11  L 28,11  Z  " style="fill:rgb(0, 0, 0); fill-opacity:0.133; stroke:none;" />
 <path d="  M 28,13  L 29,13  L 29,12  L 28,12  Z  " style="fill:rgb(0, 0, 0); fill-opacity:0.133; stroke:none;" />
 <path d="  M 27,29  L 26,29  L 26,30  L 27,30  Z  " style="fill:rgb(0, 0, 0); fill-opacity:0.039; stroke:none;" />
 <path d="  M 26,32  L 26,33  L 27,33  L 27,32  Z  " style="fill:rgb(0, 0, 0); fill-opacity:0.412; stroke:none;" />
 <path d="  M 31,36  L 31,35  L 30,35  L 30,36  Z  " style="fill:rgb(0, 0, 0); fill-opacity:0.412; stroke:none;" />
 <path d="  M 27,34  L 26,34  L 26,35  L 27,35  Z  " style="fill:rgb(0, 0, 0); fill-opacity:0.659; stroke:none;" />
 <path d="  M 30,34  L 31,34  L 31,33  L 30,33  Z  " style="fill:rgb(0, 0, 0); fill-opacity:0.659; stroke:none;" />
 <path d="  M 26,35  L 26,36  L 27,36  L 27,35  Z  " style="fill:rgb(0, 0, 0); fill-opacity:0.784; stroke:none;" />
 <path d="  M 31,32  L 30,32  L 30,33  L 31,33  Z  " style="fill:rgb(0, 0, 0); fill-opacity:0.784; stroke:none;" />
 <path d="  M 27,36  L 26,36  L 26,37  L 27,37  Z  " style="fill:rgb(0, 0, 0); fill-opacity:0.910; stroke:none;" />
 <path d="  M 30,31  L 30,32  L 31,32  L 31,31  Z  " style="fill:rgb(0, 0, 0); fill-opacity:0.910; stroke:none;" />
 <path d="  M 28,3  L 28,2  L 27,2  L 27,3  Z  " style="fill:rgb(0, 0, 0); fill-opacity:0.275; stroke:none;" />
 <path d="  M 28,9  L 28,8  L 27,8  L 27,9  Z  " style="fill:rgb(0, 0, 0); fill-opacity:0.980; stroke:none;" />
 <path d="  M 29,11  L 29,10  L 28,10  L 28,11  Z  " style="fill:rgb(0, 0, 0); fill-opacity:0.980; stroke:none;" />
 <path d="  M 28,25  L 28,24  L 27,24  L 27,25  Z  " style="fill:rgb(0, 0, 0); fill-opacity:0.420; stroke:none;" />
 <path d="  M 32,19  L 32,20  L 33,20  L 33,19  Z  " style="fill:rgb(0, 0, 0); fill-opacity:0.420; stroke:none;" />
 <path d="  M 28,4  L 29,4  L 29,3  L 28,3  Z  " style="fill:rgb(0, 0, 0); fill-opacity:0.584; stroke:none;" />
 <path d="  M 28,14  L 29,14  L 29,13  L 28,13  Z  " style="fill:rgb(0, 0, 0); fill-opacity:0.047; stroke:none;" />
 <path d="  M 33,22  L 32,22  L 32,23  L 33,23  Z  " style="fill:rgb(0, 0, 0); fill-opacity:0.047; stroke:none;" />
 <path d="  M 29,18  L 29,17  L 28,17  L 28,18  Z  " style="fill:rgb(0, 0, 0); fill-opacity:0.545; stroke:none;" />
 <path d="  M 29,21  L 29,20  L 28,20  L 28,21  Z  " style="fill:rgb(0, 0, 0); fill-opacity:0.918; stroke:none;" />
 <path d="  M 30,4  L 30,3  L 29,3  L 29,4  Z  " style="fill:rgb(0, 0, 0); fill-opacity:0.008; stroke:none;" />
 <path d="  M 36,38  L 35,38  L 35,39  L 36,39  Z  " style="fill:rgb(0, 0, 0); fill-opacity:0.008; stroke:none;" />
 <path d="  M 40,47  L 39,47  L 39,48  L 40,48  Z  " style="fill:rgb(0, 0, 0); fill-opacity:0.008; stroke:none;" />
 <path d="  M 30,4  L 29,4  L 29,5  L 30,5  Z  " style="fill:rgb(0, 0, 0); fill-opacity:0.467; stroke:none;" />
 <path d="  M 30,44  L 30,43  L 29,43  L 29,44  Z  " style="fill:rgb(0, 0, 0); fill-opacity:0.580; stroke:none;" />
 <path d="  M 31,6  L 31,5  L 30,5  L 30,6  Z  " style="fill:rgb(0, 0, 0); fill-opacity:0.106; stroke:none;" />
 <path d="  M 30,7  L 30,8  L 31,8  L 31,7  Z  " style="fill:rgb(0, 0, 0); fill-opacity:0.973; stroke:none;" />
 <path d="  M 32,10  L 32,9  L 31,9  L 31,10  Z  " style="fill:rgb(0, 0, 0); fill-opacity:0.973; stroke:none;" />
 <path d="  M 30,36  L 30,37  L 31,37  L 31,36  Z  " style="fill:rgb(0, 0, 0); fill-opacity:0.286; stroke:none;" />
 <path d="  M 31,38  L 31,37  L 30,37  L 30,38  Z  " style="fill:rgb(0, 0, 0); fill-opacity:0.208; stroke:none;" />
 <path d="  M 31,42  L 30,42  L 30,43  L 31,43  Z  " style="fill:rgb(0, 0, 0); fill-opacity:0.235; stroke:none;" />
 <path d="  M 32,8  L 32,7  L 31,7  L 31,8  Z  " style="fill:rgb(0, 0, 0); fill-opacity:0.110; stroke:none;" />
 <path d="  M 33,9  L 32,9  L 32,10  L 33,10  Z  " style="fill:rgb(0, 0, 0); fill-opacity:0.110; stroke:none;" />
 <path d="  M 31,23  L 31,24  L 32,24  L 32,23  Z  " style="fill:rgb(0, 0, 0); fill-opacity:0.922; stroke:none;" />
 <path d="  M 31,30  L 31,31  L 32,31  L 32,30  Z  " style="fill:rgb(0, 0, 0); fill-opacity:0.224; stroke:none;" />
 <path d="  M 32,17  L 32,18  L 33,18  L 33,17  Z  " style="fill:rgb(0, 0, 0); fill-opacity:0.890; stroke:none;" />
 <path d="  M 32,42  L 32,43  L 33,43  L 33,42  Z  " style="fill:rgb(0, 0, 0); fill-opacity:0.678; stroke:none;" />
 <path d="  M 33,11  L 33,12  L 34,12  L 34,11  Z  " style="fill:rgb(0, 0, 0); fill-opacity:0.086; stroke:none;" />
 <path d="  M 37,20  L 37,21  L 38,21  L 38,20  Z  " style="fill:rgb(0, 0, 0); fill-opacity:0.086; stroke:none;" />
 <path d="  M 33,12  L 33,13  L 34,13  L 34,12  Z  " style="fill:rgb(0, 0, 0); fill-opacity:0.263; stroke:none;" />
 <path d="  M 34,18  L 34,17  L 33,17  L 33,18  Z  " style="fill:rgb(0, 0, 0); fill-opacity:0.957; stroke:none;" />
 <path d="  M 40,20  L 39,20  L 39,21  L 40,21  Z  " style="fill:rgb(0, 0, 0); fill-opacity:0.957; stroke:none;" />
 <path d="  M 41,21  L 41,22  L 42,22  L 42,21  Z  " style="fill:rgb(0, 0, 0); fill-opacity:0.957; stroke:none;" />
 <path d="  M 33,38  L 33,39  L 34,39  L 34,38  Z  " style="fill:rgb(0, 0, 0); fill-opacity:0.435; stroke:none;" />
 <path d="  M 34,43  L 34,42  L 33,42  L 33,43  Z  " style="fill:rgb(0, 0, 0); fill-opacity:0.894; stroke:none;" />
 <path d="  M 34,13  L 34,14  L 35,14  L 35,13  Z  " style="fill:rgb(0, 0, 0); fill-opacity:0.141; stroke:none;" />
 <path d="  M 42,17  L 42,18  L 43,18  L 43,17  Z  " style="fill:rgb(0, 0, 0); fill-opacity:0.141; stroke:none;" />
 <path d="  M 35,43  L 34,43  L 34,44  L 35,44  Z  " style="fill:rgb(0, 0, 0); fill-opacity:0.380; stroke:none;" />
 <path d="  M 35,39  L 35,40  L 36,40  L 36,39  Z  " style="fill:rgb(0, 0, 0); fill-opacity:0.941; stroke:none;" />
 <path d="  M 36,15  L 37,15  L 37,14  L 36,14  Z  " style="fill:rgb(0, 0, 0); fill-opacity:0.149; stroke:none;" />
 <path d="  M 38,15  L 38,16  L 39,16  L 39,15  Z  " style="fill:rgb(0, 0, 0); fill-opacity:0.149; stroke:none;" />
 <path d="  M 41,16  L 40,16  L 40,17  L 41,17  Z  " style="fill:rgb(0, 0, 0); fill-opacity:0.149; stroke:none;" />
 <path d="  M 45,19  L 45,18  L 44,18  L 44,19  Z  " style="fill:rgb(0, 0, 0); fill-opacity:0.149; stroke:none;" />
 <path d="  M 46,20  L 47,20  L 47,19  L 46,19  Z  " style="fill:rgb(0, 0, 0); fill-opacity:0.149; stroke:none;" />
 <path d="  M 36,39  L 36,40  L 37,40  L 37,39  Z  " style="fill:rgb(0, 0, 0); fill-opacity:0.725; stroke:none;" />
 <path d="  M 37,40  L 38,40  L 38,39  L 37,39  Z  " style="fill:rgb(0, 0, 0); fill-opacity:0.506; stroke:none;" />
 <path d="  M 39,41  L 39,42  L 40,42  L 40,41  Z  " style="fill:rgb(0, 0, 0); fill-opacity:0.506; stroke:none;" />
 <path d="  M 38,47  L 37,47  L 37,48  L 38,48  Z  " style="fill:rgb(0, 0, 0); fill-opacity:0.843; stroke:none;" />
 <path d="  M 38,39  L 38,40  L 39,40  L 39,39  Z  " style="fill:rgb(0, 0, 0); fill-opacity:0.157; stroke:none;" />
 <path d="  M 39,40  L 38,40  L 38,41  L 39,41  Z  " style="fill:rgb(0, 0, 0); fill-opacity:0.965; stroke:none;" />
 <path d="  M 40,22  L 40,21  L 39,21  L 39,22  Z  " style="fill:rgb(0, 0, 0); fill-opacity:0.082; stroke:none;" />
 <path d="  M 39,41  L 40,41  L 40,40  L 39,40  Z  " style="fill:rgb(0, 0, 0); fill-opacity:0.184; stroke:none;" />
 <path d="  M 40,47  L 40,46  L 39,46  L 39,47  Z  " style="fill:rgb(0, 0, 0); fill-opacity:0.357; stroke:none;" />
 <path d="  M 41,18  L 42,18  L 42,17  L 41,17  Z  " style="fill:rgb(0, 0, 0); fill-opacity:0.624; stroke:none;" />
 <path d="  M 44,24  L 44,23  L 43,23  L 43,24  Z  " style="fill:rgb(0, 0, 0); fill-opacity:0.310; stroke:none;" />
 <path d="  M 46,31  L 47,31  L 47,30  L 46,30  Z  " style="fill:rgb(0, 0, 0); fill-opacity:0.051; stroke:none;" />
 <path d="  M 47,21  L 47,22  L 48,22  L 48,21  Z  " style="fill:rgb(0, 0, 0); fill-opacity:0.812; stroke:none;" />
 <path d="  M 47,28  L 48,28  L 48,22  L 47,22  Z  " style="fill:rgb(0, 0, 0); fill-opacity:0.875; stroke:none;" />
</svg>

