<?xml version="1.0" encoding="UTF-8" standalone="no"?>
<!DOCTYPE svg PUBLIC "-//W3C//DTD SVG 1.1//EN" 
  "http://www.w3.org/Graphics/SVG/1.1/DTD/svg11.dtd">
<svg width="50" height="50"
     xmlns="http://www.w3.org/2000/svg" version="1.1">
 <path d="  M 24,6  L 24,3  L 27,3  L 27,6  L 30,6  L 30,10  L 29,10  L 29,12  L 49,12  L 49,14  L 50,14  L 50,0  L 0,0  L 0,16  L 1,16  L 1,13  L 2,13  L 2,12  L 22,12  L 22,10  L 21,10  L 21,6  Z  " style="fill:rgb(0, 0, 0); fill-opacity:0.000; stroke:none;" />
 <path d="  M 23,35  L 23,28  L 22,28  L 22,26  L 21,26  L 21,25  L 19,25  L 19,24  L 16,24  L 16,23  L 12,23  L 12,22  L 9,22  L 9,21  L 5,21  L 5,20  L 2,20  L 2,19  L 1,19  L 1,17  L 0,17  L 0,50  L 50,50  L 50,19  L 49,19  L 49,20  L 46,20  L 46,21  L 42,21  L 42,22  L 39,22  L 39,23  L 35,23  L 35,24  L 32,24  L 32,25  L 30,25  L 30,26  L 29,26  L 29,27  L 28,27  L 28,32  L 27,32  L 27,34  L 28,34  L 28,35  L 32,35  L 32,36  L 35,36  L 35,38  L 36,38  L 36,40  L 35,40  L 35,41  L 34,41  L 34,42  L 32,42  L 32,43  L 30,43  L 30,44  L 28,44  L 28,43  L 27,43  L 27,42  L 26,42  L 26,44  L 25,44  L 25,43  L 23,43  L 23,44  L 21,44  L 21,43  L 19,43  L 19,42  L 17,42  L 17,41  L 16,41  L 16,40  L 15,40  L 15,37  L 16,37  L 16,36  L 19,36  L 19,35  Z  " style="fill:rgb(0, 0, 0); fill-opacity:0.000; stroke:none;" />
 <path d="  M 0,17  L 1,17  L 1,16  L 0,16  Z  " style="fill:rgb(36, 36, 36); fill-opacity:0.027; stroke:none;" />
 <path d="  M 22,44  L 23,44  L 23,43  L 22,43  Z  " style="fill:rgb(36, 36, 36); fill-opacity:0.027; stroke:none;" />
 <path d="  M 30,44  L 30,43  L 29,43  L 29,44  Z  " style="fill:rgb(36, 36, 36); fill-opacity:0.027; stroke:none;" />
 <path d="  M 39,22  L 38,22  L 38,23  L 39,23  Z  " style="fill:rgb(36, 36, 36); fill-opacity:0.027; stroke:none;" />
 <path d="  M 1,13  L 1,14  L 2,14  L 2,13  Z  " style="fill:rgb(44, 44, 44); fill-opacity:0.090; stroke:none;" />
 <path d="  M 2,14  L 1,14  L 1,15  L 2,15  Z  " style="fill:rgb(43, 41, 41); fill-opacity:0.580; stroke:none;" />
 <path d="  M 1,16  L 2,16  L 2,15  L 1,15  Z  " style="fill:rgb(43, 43, 41); fill-opacity:0.918; stroke:none;" />
 <path d="  M 2,14  L 3,14  L 3,13  L 2,13  Z  " style="fill:rgb(43, 43, 41); fill-opacity:0.918; stroke:none;" />
 <path d="  M 28,36  L 28,35  L 26,35  L 26,31  L 27,31  L 27,26  L 28,26  L 28,25  L 29,25  L 29,24  L 31,24  L 31,23  L 35,23  L 35,22  L 38,22  L 38,21  L 42,21  L 42,20  L 45,20  L 45,19  L 48,19  L 48,18  L 49,18  L 49,15  L 48,15  L 48,13  L 28,13  L 28,9  L 29,9  L 29,7  L 26,7  L 26,4  L 25,4  L 25,7  L 22,7  L 22,9  L 23,9  L 23,12  L 24,12  L 24,13  L 3,13  L 3,14  L 2,14  L 2,16  L 1,16  L 1,17  L 2,17  L 2,18  L 3,18  L 3,19  L 6,19  L 6,20  L 9,20  L 9,21  L 13,21  L 13,22  L 16,22  L 16,23  L 20,23  L 20,24  L 22,24  L 22,25  L 23,25  L 23,27  L 24,27  L 24,34  L 25,34  L 25,35  L 23,35  L 23,36  L 20,36  L 20,37  L 17,37  L 17,38  L 16,38  L 16,40  L 18,40  L 18,41  L 19,41  L 19,42  L 23,42  L 23,41  L 24,41  L 24,40  L 27,40  L 27,42  L 31,42  L 31,41  L 33,41  L 33,40  L 34,40  L 34,39  L 35,39  L 35,38  L 34,38  L 34,37  L 31,37  L 31,36  Z  " style="fill:rgb(43, 42, 41); fill-opacity:1.000; stroke:none;" />
 <path d="  M 2,17  L 1,17  L 1,18  L 2,18  Z  " style="fill:rgb(43, 42, 42); fill-opacity:0.843; stroke:none;" />
 <path d="  M 23,35  L 22,35  L 22,36  L 23,36  Z  " style="fill:rgb(43, 42, 42); fill-opacity:0.843; stroke:none;" />
 <path d="  M 2,19  L 2,18  L 1,18  L 1,19  Z  " style="fill:rgb(44, 41, 41); fill-opacity:0.271; stroke:none;" />
 <path d="  M 3,12  L 2,12  L 2,13  L 3,13  Z  " style="fill:rgb(42, 42, 42); fill-opacity:0.169; stroke:none;" />
 <path d="  M 10,21  L 9,21  L 9,22  L 10,22  Z  " style="fill:rgb(42, 42, 42); fill-opacity:0.169; stroke:none;" />
 <path d="  M 3,19  L 3,18  L 2,18  L 2,19  Z  " style="fill:rgb(43, 42, 41); fill-opacity:0.957; stroke:none;" />
 <path d="  M 31,23  L 31,24  L 32,24  L 32,23  Z  " style="fill:rgb(43, 42, 41); fill-opacity:0.957; stroke:none;" />
 <path d="  M 2,20  L 3,20  L 3,19  L 2,19  Z  " style="fill:rgb(47, 38, 38); fill-opacity:0.106; stroke:none;" />
 <path d="  M 4,12  L 3,12  L 3,13  L 4,13  Z  " style="fill:rgb(43, 43, 41); fill-opacity:0.631; stroke:none;" />
 <path d="  M 4,20  L 4,19  L 3,19  L 3,20  Z  " style="fill:rgb(44, 41, 41); fill-opacity:0.482; stroke:none;" />
 <path d="  M 22,10  L 22,11  L 23,11  L 23,10  Z  " style="fill:rgb(44, 41, 41); fill-opacity:0.482; stroke:none;" />
 <path d="  M 48,13  L 48,14  L 49,14  L 49,13  Z  " style="fill:rgb(44, 41, 41); fill-opacity:0.482; stroke:none;" />
 <path d="  M 23,13  L 23,12  L 4,12  L 4,13  Z  " style="fill:rgb(44, 42, 41); fill-opacity:0.667; stroke:none;" />
 <path d="  M 47,13  L 47,12  L 29,12  L 29,13  Z  " style="fill:rgb(44, 42, 41); fill-opacity:0.667; stroke:none;" />
 <path d="  M 33,42  L 33,41  L 32,41  L 32,42  Z  " style="fill:rgb(44, 42, 41); fill-opacity:0.667; stroke:none;" />
 <path d="  M 4,19  L 4,20  L 5,20  L 5,19  Z  " style="fill:rgb(43, 42, 41); fill-opacity:0.784; stroke:none;" />
 <path d="  M 6,20  L 6,19  L 5,19  L 5,20  Z  " style="fill:rgb(43, 43, 41); fill-opacity:0.988; stroke:none;" />
 <path d="  M 6,20  L 5,20  L 5,21  L 6,21  Z  " style="fill:rgb(40, 40, 40); fill-opacity:0.075; stroke:none;" />
 <path d="  M 6,21  L 7,21  L 7,20  L 6,20  Z  " style="fill:rgb(42, 42, 42); fill-opacity:0.333; stroke:none;" />
 <path d="  M 18,37  L 18,36  L 17,36  L 17,37  Z  " style="fill:rgb(42, 42, 42); fill-opacity:0.333; stroke:none;" />
 <path d="  M 44,20  L 44,21  L 45,21  L 45,20  Z  " style="fill:rgb(42, 42, 42); fill-opacity:0.333; stroke:none;" />
 <path d="  M 8,20  L 7,20  L 7,21  L 8,21  Z  " style="fill:rgb(43, 42, 42); fill-opacity:0.600; stroke:none;" />
 <path d="  M 37,23  L 37,22  L 36,22  L 36,23  Z  " style="fill:rgb(43, 42, 42); fill-opacity:0.600; stroke:none;" />
 <path d="  M 43,20  L 43,21  L 44,21  L 44,20  Z  " style="fill:rgb(43, 42, 42); fill-opacity:0.600; stroke:none;" />
 <path d="  M 9,20  L 8,20  L 8,21  L 9,21  Z  " style="fill:rgb(43, 42, 40); fill-opacity:0.890; stroke:none;" />
 <path d="  M 26,43  L 26,42  L 25,42  L 25,43  Z  " style="fill:rgb(43, 42, 40); fill-opacity:0.890; stroke:none;" />
 <path d="  M 11,22  L 11,21  L 10,21  L 10,22  Z  " style="fill:rgb(43, 43, 41); fill-opacity:0.467; stroke:none;" />
 <path d="  M 40,21  L 40,22  L 41,22  L 41,21  Z  " style="fill:rgb(43, 43, 41); fill-opacity:0.467; stroke:none;" />
 <path d="  M 12,21  L 11,21  L 11,22  L 12,22  Z  " style="fill:rgb(44, 42, 41); fill-opacity:0.733; stroke:none;" />
 <path d="  M 40,22  L 40,21  L 39,21  L 39,22  Z  " style="fill:rgb(44, 42, 41); fill-opacity:0.733; stroke:none;" />
 <path d="  M 13,21  L 12,21  L 12,22  L 13,22  Z  " style="fill:rgb(43, 42, 41); fill-opacity:0.976; stroke:none;" />
 <path d="  M 17,40  L 17,41  L 18,41  L 18,40  Z  " style="fill:rgb(43, 42, 41); fill-opacity:0.976; stroke:none;" />
 <path d="  M 12,23  L 13,23  L 13,22  L 12,22  Z  " style="fill:rgb(46, 46, 46); fill-opacity:0.043; stroke:none;" />
 <path d="  M 16,37  L 15,37  L 15,38  L 16,38  Z  " style="fill:rgb(46, 46, 46); fill-opacity:0.043; stroke:none;" />
 <path d="  M 16,36  L 16,37  L 17,37  L 17,36  Z  " style="fill:rgb(46, 46, 46); fill-opacity:0.043; stroke:none;" />
 <path d="  M 20,25  L 20,24  L 19,24  L 19,25  Z  " style="fill:rgb(46, 46, 46); fill-opacity:0.043; stroke:none;" />
 <path d="  M 30,6  L 29,6  L 29,7  L 30,7  Z  " style="fill:rgb(46, 46, 46); fill-opacity:0.043; stroke:none;" />
 <path d="  M 13,22  L 13,23  L 14,23  L 14,22  Z  " style="fill:rgb(41, 41, 41); fill-opacity:0.267; stroke:none;" />
 <path d="  M 20,42  L 19,42  L 19,43  L 20,43  Z  " style="fill:rgb(41, 41, 41); fill-opacity:0.267; stroke:none;" />
 <path d="  M 33,37  L 34,37  L 34,36  L 33,36  Z  " style="fill:rgb(41, 41, 41); fill-opacity:0.267; stroke:none;" />
 <path d="  M 15,23  L 15,22  L 14,22  L 14,23  Z  " style="fill:rgb(42, 42, 40); fill-opacity:0.569; stroke:none;" />
 <path d="  M 15,22  L 15,23  L 16,23  L 16,22  Z  " style="fill:rgb(43, 42, 41); fill-opacity:0.878; stroke:none;" />
 <path d="  M 16,39  L 16,38  L 15,38  L 15,39  Z  " style="fill:rgb(43, 41, 41); fill-opacity:0.392; stroke:none;" />
 <path d="  M 16,39  L 15,39  L 15,40  L 16,40  Z  " style="fill:rgb(44, 44, 40); fill-opacity:0.275; stroke:none;" />
 <path d="  M 17,24  L 17,23  L 16,23  L 16,24  Z  " style="fill:rgb(45, 45, 38); fill-opacity:0.133; stroke:none;" />
 <path d="  M 17,38  L 17,37  L 16,37  L 16,38  Z  " style="fill:rgb(43, 41, 41); fill-opacity:0.820; stroke:none;" />
 <path d="  M 17,40  L 16,40  L 16,41  L 17,41  Z  " style="fill:rgb(43, 43, 41); fill-opacity:0.443; stroke:none;" />
 <path d="  M 27,29  L 28,29  L 28,28  L 27,28  Z  " style="fill:rgb(43, 43, 41); fill-opacity:0.443; stroke:none;" />
 <path d="  M 17,23  L 17,24  L 18,24  L 18,23  Z  " style="fill:rgb(43, 43, 40); fill-opacity:0.400; stroke:none;" />
 <path d="  M 34,23  L 33,23  L 33,24  L 34,24  Z  " style="fill:rgb(43, 43, 40); fill-opacity:0.400; stroke:none;" />
 <path d="  M 17,42  L 18,42  L 18,41  L 17,41  Z  " style="fill:rgb(43, 43, 43); fill-opacity:0.188; stroke:none;" />
 <path d="  M 19,24  L 19,23  L 18,23  L 18,24  Z  " style="fill:rgb(43, 41, 41); fill-opacity:0.702; stroke:none;" />
 <path d="  M 33,23  L 32,23  L 32,24  L 33,24  Z  " style="fill:rgb(43, 41, 41); fill-opacity:0.702; stroke:none;" />
 <path d="  M 18,37  L 19,37  L 19,36  L 18,36  Z  " style="fill:rgb(42, 42, 41); fill-opacity:0.639; stroke:none;" />
 <path d="  M 18,41  L 18,42  L 19,42  L 19,41  Z  " style="fill:rgb(43, 42, 41); fill-opacity:0.765; stroke:none;" />
 <path d="  M 28,7  L 29,7  L 29,6  L 28,6  Z  " style="fill:rgb(43, 42, 41); fill-opacity:0.765; stroke:none;" />
 <path d="  M 19,24  L 20,24  L 20,23  L 19,23  Z  " style="fill:rgb(43, 42, 41); fill-opacity:0.973; stroke:none;" />
 <path d="  M 27,27  L 28,27  L 28,26  L 27,26  Z  " style="fill:rgb(43, 42, 41); fill-opacity:0.973; stroke:none;" />
 <path d="  M 48,15  L 49,15  L 49,14  L 48,14  Z  " style="fill:rgb(43, 42, 41); fill-opacity:0.973; stroke:none;" />
 <path d="  M 19,35  L 19,36  L 20,36  L 20,35  Z  " style="fill:rgb(85, 0, 0); fill-opacity:0.012; stroke:none;" />
 <path d="  M 21,9  L 21,10  L 22,10  L 22,9  Z  " style="fill:rgb(85, 0, 0); fill-opacity:0.012; stroke:none;" />
 <path d="  M 34,37  L 35,37  L 35,36  L 34,36  Z  " style="fill:rgb(85, 0, 0); fill-opacity:0.012; stroke:none;" />
 <path d="  M 20,37  L 20,36  L 19,36  L 19,37  Z  " style="fill:rgb(43, 42, 41); fill-opacity:0.929; stroke:none;" />
 <path d="  M 20,24  L 20,25  L 21,25  L 21,24  Z  " style="fill:rgb(42, 42, 42); fill-opacity:0.337; stroke:none;" />
 <path d="  M 21,36  L 21,35  L 20,35  L 20,36  Z  " style="fill:rgb(43, 43, 43); fill-opacity:0.235; stroke:none;" />
 <path d="  M 31,36  L 31,35  L 30,35  L 30,36  Z  " style="fill:rgb(43, 43, 43); fill-opacity:0.235; stroke:none;" />
 <path d="  M 20,42  L 20,43  L 21,43  L 21,42  Z  " style="fill:rgb(43, 43, 41); fill-opacity:0.682; stroke:none;" />
 <path d="  M 27,27  L 27,28  L 28,28  L 28,27  Z  " style="fill:rgb(43, 43, 41); fill-opacity:0.682; stroke:none;" />
 <path d="  M 22,6  L 21,6  L 21,7  L 22,7  Z  " style="fill:rgb(0, 0, 0); fill-opacity:0.004; stroke:none;" />
 <path d="  M 23,27  L 22,27  L 22,28  L 23,28  Z  " style="fill:rgb(0, 0, 0); fill-opacity:0.004; stroke:none;" />
 <path d="  M 24,3  L 24,4  L 25,4  L 25,3  Z  " style="fill:rgb(0, 0, 0); fill-opacity:0.004; stroke:none;" />
 <path d="  M 31,36  L 32,36  L 32,35  L 31,35  Z  " style="fill:rgb(0, 0, 0); fill-opacity:0.004; stroke:none;" />
 <path d="  M 48,13  L 49,13  L 49,12  L 48,12  Z  " style="fill:rgb(0, 0, 0); fill-opacity:0.004; stroke:none;" />
 <path d="  M 21,8  L 22,8  L 22,7  L 21,7  Z  " style="fill:rgb(44, 44, 44); fill-opacity:0.137; stroke:none;" />
 <path d="  M 21,9  L 22,9  L 22,8  L 21,8  Z  " style="fill:rgb(41, 41, 41); fill-opacity:0.145; stroke:none;" />
 <path d="  M 22,24  L 21,24  L 21,25  L 22,25  Z  " style="fill:rgb(43, 42, 41); fill-opacity:0.875; stroke:none;" />
 <path d="  M 32,36  L 31,36  L 31,37  L 32,37  Z  " style="fill:rgb(43, 42, 41); fill-opacity:0.875; stroke:none;" />
 <path d="  M 22,26  L 22,25  L 21,25  L 21,26  Z  " style="fill:rgb(49, 36, 36); fill-opacity:0.082; stroke:none;" />
 <path d="  M 22,35  L 21,35  L 21,36  L 22,36  Z  " style="fill:rgb(43, 41, 41); fill-opacity:0.533; stroke:none;" />
 <path d="  M 29,36  L 30,36  L 30,35  L 29,35  Z  " style="fill:rgb(43, 41, 41); fill-opacity:0.533; stroke:none;" />
 <path d="  M 21,43  L 22,43  L 22,42  L 21,42  Z  " style="fill:rgb(43, 42, 41); fill-opacity:0.980; stroke:none;" />
 <path d="  M 28,10  L 29,10  L 29,9  L 28,9  Z  " style="fill:rgb(43, 42, 41); fill-opacity:0.980; stroke:none;" />
 <path d="  M 21,44  L 22,44  L 22,43  L 21,43  Z  " style="fill:rgb(51, 51, 51); fill-opacity:0.039; stroke:none;" />
 <path d="  M 23,7  L 23,6  L 22,6  L 22,7  Z  " style="fill:rgb(43, 42, 42); fill-opacity:0.647; stroke:none;" />
 <path d="  M 22,10  L 23,10  L 23,9  L 22,9  Z  " style="fill:rgb(43, 42, 41); fill-opacity:0.898; stroke:none;" />
 <path d="  M 26,32  L 26,33  L 27,33  L 27,32  Z  " style="fill:rgb(43, 42, 41); fill-opacity:0.898; stroke:none;" />
 <path d="  M 22,12  L 23,12  L 23,11  L 22,11  Z  " style="fill:rgb(44, 44, 44); fill-opacity:0.114; stroke:none;" />
 <path d="  M 24,42  L 24,43  L 25,43  L 25,42  Z  " style="fill:rgb(44, 44, 44); fill-opacity:0.114; stroke:none;" />
 <path d="  M 23,25  L 22,25  L 22,26  L 23,26  Z  " style="fill:rgb(43, 43, 41); fill-opacity:0.871; stroke:none;" />
 <path d="  M 23,27  L 23,26  L 22,26  L 22,27  Z  " style="fill:rgb(43, 43, 40); fill-opacity:0.302; stroke:none;" />
 <path d="  M 29,8  L 30,8  L 30,7  L 29,7  Z  " style="fill:rgb(43, 43, 40); fill-opacity:0.302; stroke:none;" />
 <path d="  M 37,23  L 38,23  L 38,22  L 37,22  Z  " style="fill:rgb(43, 43, 40); fill-opacity:0.302; stroke:none;" />
 <path d="  M 23,42  L 22,42  L 22,43  L 23,43  Z  " style="fill:rgb(43, 42, 41); fill-opacity:0.949; stroke:none;" />
 <path d="  M 23,7  L 24,7  L 24,6  L 23,6  Z  " style="fill:rgb(43, 42, 41); fill-opacity:0.933; stroke:none;" />
 <path d="  M 27,7  L 28,7  L 28,6  L 27,6  Z  " style="fill:rgb(43, 42, 41); fill-opacity:0.933; stroke:none;" />
 <path d="  M 23,13  L 24,13  L 24,12  L 23,12  Z  " style="fill:rgb(43, 42, 41); fill-opacity:0.992; stroke:none;" />
 <path d="  M 29,43  L 29,42  L 28,42  L 28,43  Z  " style="fill:rgb(43, 42, 41); fill-opacity:0.992; stroke:none;" />
 <path d="  M 31,41  L 31,42  L 32,42  L 32,41  Z  " style="fill:rgb(43, 42, 41); fill-opacity:0.992; stroke:none;" />
 <path d="  M 23,28  L 24,28  L 24,27  L 23,27  Z  " style="fill:rgb(43, 42, 41); fill-opacity:0.902; stroke:none;" />
 <path d="  M 23,29  L 24,29  L 24,28  L 23,28  Z  " style="fill:rgb(43, 43, 41); fill-opacity:0.659; stroke:none;" />
 <path d="  M 23,29  L 23,30  L 24,30  L 24,29  Z  " style="fill:rgb(43, 43, 41); fill-opacity:0.518; stroke:none;" />
 <path d="  M 23,31  L 24,31  L 24,30  L 23,30  Z  " style="fill:rgb(44, 41, 41); fill-opacity:0.388; stroke:none;" />
 <path d="  M 23,31  L 23,32  L 24,32  L 24,31  Z  " style="fill:rgb(43, 43, 39); fill-opacity:0.255; stroke:none;" />
 <path d="  M 24,33  L 24,32  L 23,32  L 23,33  Z  " style="fill:rgb(41, 41, 41); fill-opacity:0.122; stroke:none;" />
 <path d="  M 24,33  L 23,33  L 23,34  L 24,34  Z  " style="fill:rgb(57, 28, 28); fill-opacity:0.035; stroke:none;" />
 <path d="  M 27,32  L 28,32  L 28,31  L 27,31  Z  " style="fill:rgb(57, 28, 28); fill-opacity:0.035; stroke:none;" />
 <path d="  M 49,20  L 49,19  L 48,19  L 48,20  Z  " style="fill:rgb(57, 28, 28); fill-opacity:0.035; stroke:none;" />
 <path d="  M 23,34  L 23,35  L 24,35  L 24,34  Z  " style="fill:rgb(41, 41, 41); fill-opacity:0.173; stroke:none;" />
 <path d="  M 23,41  L 23,42  L 24,42  L 24,41  Z  " style="fill:rgb(43, 42, 41); fill-opacity:0.953; stroke:none;" />
 <path d="  M 24,43  L 24,42  L 23,42  L 23,43  Z  " style="fill:rgb(43, 43, 40); fill-opacity:0.349; stroke:none;" />
 <path d="  M 25,5  L 25,4  L 24,4  L 24,5  Z  " style="fill:rgb(43, 43, 43); fill-opacity:0.141; stroke:none;" />
 <path d="  M 25,6  L 25,5  L 24,5  L 24,6  Z  " style="fill:rgb(42, 42, 42); fill-opacity:0.310; stroke:none;" />
 <path d="  M 25,6  L 24,6  L 24,7  L 25,7  Z  " style="fill:rgb(43, 42, 41); fill-opacity:0.961; stroke:none;" />
 <path d="  M 38,21  L 38,22  L 39,22  L 39,21  Z  " style="fill:rgb(43, 42, 41); fill-opacity:0.961; stroke:none;" />
 <path d="  M 24,35  L 25,35  L 25,34  L 24,34  Z  " style="fill:rgb(43, 42, 41); fill-opacity:0.996; stroke:none;" />
 <path d="  M 27,31  L 26,31  L 26,32  L 27,32  Z  " style="fill:rgb(43, 42, 41); fill-opacity:0.996; stroke:none;" />
 <path d="  M 24,40  L 24,41  L 25,41  L 25,40  Z  " style="fill:rgb(43, 41, 41); fill-opacity:0.773; stroke:none;" />
 <path d="  M 24,42  L 25,42  L 25,41  L 24,41  Z  " style="fill:rgb(43, 43, 40); fill-opacity:0.278; stroke:none;" />
 <path d="  M 28,11  L 28,12  L 29,12  L 29,11  Z  " style="fill:rgb(43, 43, 40); fill-opacity:0.278; stroke:none;" />
 <path d="  M 26,4  L 26,3  L 25,3  L 25,4  Z  " style="fill:rgb(43, 42, 42); fill-opacity:0.698; stroke:none;" />
 <path d="  M 26,41  L 26,40  L 25,40  L 25,41  Z  " style="fill:rgb(43, 42, 41); fill-opacity:0.984; stroke:none;" />
 <path d="  M 26,42  L 26,41  L 25,41  L 25,42  Z  " style="fill:rgb(43, 42, 41); fill-opacity:0.969; stroke:none;" />
 <path d="  M 26,6  L 26,7  L 27,7  L 27,6  Z  " style="fill:rgb(43, 42, 41); fill-opacity:0.969; stroke:none;" />
 <path d="  M 26,43  L 25,43  L 25,44  L 26,44  Z  " style="fill:rgb(41, 41, 41); fill-opacity:0.314; stroke:none;" />
 <path d="  M 27,5  L 27,4  L 26,4  L 26,5  Z  " style="fill:rgb(41, 41, 41); fill-opacity:0.314; stroke:none;" />
 <path d="  M 29,8  L 29,9  L 30,9  L 30,8  Z  " style="fill:rgb(41, 41, 41); fill-opacity:0.314; stroke:none;" />
 <path d="  M 26,3  L 26,4  L 27,4  L 27,3  Z  " style="fill:rgb(45, 45, 45); fill-opacity:0.067; stroke:none;" />
 <path d="  M 50,18  L 49,18  L 49,19  L 50,19  Z  " style="fill:rgb(45, 45, 45); fill-opacity:0.067; stroke:none;" />
 <path d="  M 27,5  L 26,5  L 26,6  L 27,6  Z  " style="fill:rgb(44, 42, 42); fill-opacity:0.478; stroke:none;" />
 <path d="  M 26,34  L 27,34  L 27,33  L 26,33  Z  " style="fill:rgb(43, 42, 41); fill-opacity:0.812; stroke:none;" />
 <path d="  M 27,34  L 26,34  L 26,35  L 27,35  Z  " style="fill:rgb(43, 42, 41); fill-opacity:0.839; stroke:none;" />
 <path d="  M 27,40  L 26,40  L 26,41  L 27,41  Z  " style="fill:rgb(44, 42, 41); fill-opacity:0.757; stroke:none;" />
 <path d="  M 26,42  L 27,42  L 27,41  L 26,41  Z  " style="fill:rgb(41, 41, 41); fill-opacity:0.243; stroke:none;" />
 <path d="  M 27,29  L 27,30  L 28,30  L 28,29  Z  " style="fill:rgb(44, 44, 40); fill-opacity:0.298; stroke:none;" />
 <path d="  M 27,31  L 28,31  L 28,30  L 27,30  Z  " style="fill:rgb(44, 44, 44); fill-opacity:0.161; stroke:none;" />
 <path d="  M 36,38  L 35,38  L 35,39  L 36,39  Z  " style="fill:rgb(44, 44, 44); fill-opacity:0.161; stroke:none;" />
 <path d="  M 41,21  L 41,22  L 42,22  L 42,21  Z  " style="fill:rgb(44, 44, 44); fill-opacity:0.161; stroke:none;" />
 <path d="  M 28,34  L 27,34  L 27,35  L 28,35  Z  " style="fill:rgb(46, 46, 36); fill-opacity:0.110; stroke:none;" />
 <path d="  M 28,42  L 27,42  L 27,43  L 28,43  Z  " style="fill:rgb(43, 43, 41); fill-opacity:0.565; stroke:none;" />
 <path d="  M 29,11  L 29,10  L 28,10  L 28,11  Z  " style="fill:rgb(43, 41, 41); fill-opacity:0.651; stroke:none;" />
 <path d="  M 28,13  L 29,13  L 29,12  L 28,12  Z  " style="fill:rgb(43, 42, 40); fill-opacity:0.718; stroke:none;" />
 <path d="  M 29,26  L 29,25  L 28,25  L 28,26  Z  " style="fill:rgb(43, 43, 41); fill-opacity:0.706; stroke:none;" />
 <path d="  M 28,27  L 29,27  L 29,26  L 28,26  Z  " style="fill:rgb(39, 39, 39); fill-opacity:0.102; stroke:none;" />
 <path d="  M 33,41  L 33,42  L 34,42  L 34,41  Z  " style="fill:rgb(39, 39, 39); fill-opacity:0.102; stroke:none;" />
 <path d="  M 29,36  L 29,35  L 28,35  L 28,36  Z  " style="fill:rgb(43, 42, 41); fill-opacity:0.835; stroke:none;" />
 <path d="  M 49,18  L 48,18  L 48,19  L 49,19  Z  " style="fill:rgb(43, 42, 41); fill-opacity:0.835; stroke:none;" />
 <path d="  M 29,43  L 28,43  L 28,44  L 29,44  Z  " style="fill:rgb(43, 43, 43); fill-opacity:0.047; stroke:none;" />
 <path d="  M 30,10  L 30,9  L 29,9  L 29,10  Z  " style="fill:rgb(43, 43, 43); fill-opacity:0.094; stroke:none;" />
 <path d="  M 49,15  L 50,15  L 50,14  L 49,14  Z  " style="fill:rgb(43, 43, 43); fill-opacity:0.094; stroke:none;" />
 <path d="  M 29,25  L 30,25  L 30,24  L 29,24  Z  " style="fill:rgb(43, 42, 42); fill-opacity:0.769; stroke:none;" />
 <path d="  M 29,25  L 29,26  L 30,26  L 30,25  Z  " style="fill:rgb(64, 64, 64); fill-opacity:0.016; stroke:none;" />
 <path d="  M 32,24  L 31,24  L 31,25  L 32,25  Z  " style="fill:rgb(64, 64, 64); fill-opacity:0.016; stroke:none;" />
 <path d="  M 29,42  L 29,43  L 30,43  L 30,42  Z  " style="fill:rgb(43, 42, 41); fill-opacity:0.945; stroke:none;" />
 <path d="  M 31,24  L 30,24  L 30,25  L 31,25  Z  " style="fill:rgb(44, 44, 40); fill-opacity:0.251; stroke:none;" />
 <path d="  M 31,42  L 30,42  L 30,43  L 31,43  Z  " style="fill:rgb(43, 41, 41); fill-opacity:0.604; stroke:none;" />
 <path d="  M 31,42  L 31,43  L 32,43  L 32,42  Z  " style="fill:rgb(44, 44, 39); fill-opacity:0.180; stroke:none;" />
 <path d="  M 33,37  L 33,36  L 32,36  L 32,37  Z  " style="fill:rgb(44, 42, 40); fill-opacity:0.573; stroke:none;" />
 <path d="  M 50,17  L 50,16  L 49,16  L 49,17  Z  " style="fill:rgb(44, 42, 40); fill-opacity:0.573; stroke:none;" />
 <path d="  M 34,41  L 34,40  L 33,40  L 33,41  Z  " style="fill:rgb(43, 42, 41); fill-opacity:0.922; stroke:none;" />
 <path d="  M 34,23  L 34,24  L 35,24  L 35,23  Z  " style="fill:rgb(43, 43, 43); fill-opacity:0.118; stroke:none;" />
 <path d="  M 34,37  L 34,38  L 35,38  L 35,37  Z  " style="fill:rgb(43, 42, 42); fill-opacity:0.624; stroke:none;" />
 <path d="  M 34,40  L 35,40  L 35,39  L 34,39  Z  " style="fill:rgb(43, 43, 41); fill-opacity:0.965; stroke:none;" />
 <path d="  M 45,19  L 45,20  L 46,20  L 46,19  Z  " style="fill:rgb(43, 43, 41); fill-opacity:0.965; stroke:none;" />
 <path d="  M 34,40  L 34,41  L 35,41  L 35,40  Z  " style="fill:rgb(42, 42, 42); fill-opacity:0.286; stroke:none;" />
 <path d="  M 36,23  L 36,22  L 35,22  L 35,23  Z  " style="fill:rgb(43, 42, 42); fill-opacity:0.867; stroke:none;" />
 <path d="  M 42,20  L 42,21  L 43,21  L 43,20  Z  " style="fill:rgb(43, 42, 42); fill-opacity:0.867; stroke:none;" />
 <path d="  M 35,39  L 35,40  L 36,40  L 36,39  Z  " style="fill:rgb(41, 41, 41); fill-opacity:0.098; stroke:none;" />
 <path d="  M 46,21  L 46,20  L 45,20  L 45,21  Z  " style="fill:rgb(39, 39, 39); fill-opacity:0.051; stroke:none;" />
 <path d="  M 46,20  L 47,20  L 47,19  L 46,19  Z  " style="fill:rgb(43, 42, 42); fill-opacity:0.722; stroke:none;" />
 <path d="  M 47,12  L 47,13  L 48,13  L 48,12  Z  " style="fill:rgb(43, 43, 40); fill-opacity:0.447; stroke:none;" />
 <path d="  M 47,19  L 47,20  L 48,20  L 48,19  Z  " style="fill:rgb(44, 42, 42); fill-opacity:0.408; stroke:none;" />
 <path d="  M 49,15  L 49,16  L 50,16  L 50,15  Z  " style="fill:rgb(42, 42, 42); fill-opacity:0.427; stroke:none;" />
 <path d="  M 49,18  L 50,18  L 50,17  L 49,17  Z  " style="fill:rgb(43, 41, 41); fill-opacity:0.439; stroke:none;" />
</svg>

