<?xml version="1.0" encoding="UTF-8" standalone="no"?>
<!DOCTYPE svg PUBLIC "-//W3C//DTD SVG 1.1//EN" 
  "http://www.w3.org/Graphics/SVG/1.1/DTD/svg11.dtd">
<svg width="50" height="50"
     xmlns="http://www.w3.org/2000/svg" version="1.1">
 <path d="  M 0,0  L 0,50  L 50,50  L 50,0  Z  M 23,8  L 18,8  L 18,5  L 32,5  L 32,8  L 27,8  L 27,10  L 29,10  L 29,11  L 30,11  L 30,18  L 31,18  L 31,19  L 36,19  L 36,20  L 42,20  L 42,21  L 45,21  L 45,29  L 44,29  L 44,30  L 30,30  L 30,35  L 31,35  L 31,36  L 33,36  L 33,37  L 35,37  L 35,45  L 15,45  L 15,37  L 17,37  L 17,36  L 19,36  L 19,35  L 20,35  L 20,30  L 6,30  L 6,29  L 5,29  L 5,21  L 9,21  L 9,20  L 14,20  L 14,19  L 19,19  L 19,18  L 20,18  L 20,11  L 21,11  L 21,10  L 23,10  Z  " style="fill:rgb(0, 0, 0); fill-opacity:0.000; stroke:none;" />
 <path d="  M 11,24  L 11,25  L 9,25  L 9,26  L 20,26  L 20,23  L 17,23  L 17,24  Z  " style="fill:rgb(0, 0, 0); fill-opacity:0.000; stroke:none;" />
 <path d="  M 22,40  L 20,40  L 20,41  L 22,41  Z  " style="fill:rgb(0, 0, 0); fill-opacity:0.000; stroke:none;" />
 <path d="  M 26,14  L 24,14  L 24,32  L 26,32  Z  " style="fill:rgb(0, 0, 0); fill-opacity:0.000; stroke:none;" />
 <path d="  M 30,41  L 30,40  L 28,40  L 28,41  Z  " style="fill:rgb(0, 0, 0); fill-opacity:0.000; stroke:none;" />
 <path d="  M 39,25  L 39,24  L 33,24  L 33,23  L 30,23  L 30,26  L 41,26  L 41,25  Z  " style="fill:rgb(0, 0, 0); fill-opacity:0.000; stroke:none;" />
 <path d="  M 6,22  L 6,21  L 5,21  L 5,22  Z  " style="fill:rgb(0, 0, 0); fill-opacity:0.086; stroke:none;" />
 <path d="  M 35,20  L 36,20  L 36,19  L 35,19  Z  " style="fill:rgb(0, 0, 0); fill-opacity:0.086; stroke:none;" />
 <path d="  M 45,22  L 45,21  L 44,21  L 44,22  Z  " style="fill:rgb(0, 0, 0); fill-opacity:0.086; stroke:none;" />
 <path d="  M 5,23  L 6,23  L 6,22  L 5,22  Z  " style="fill:rgb(0, 0, 0); fill-opacity:0.753; stroke:none;" />
 <path d="  M 23,31  L 24,31  L 24,30  L 23,30  Z  " style="fill:rgb(0, 0, 0); fill-opacity:0.753; stroke:none;" />
 <path d="  M 5,24  L 6,24  L 6,23  L 5,23  Z  " style="fill:rgb(0, 0, 0); fill-opacity:0.988; stroke:none;" />
 <path d="  M 6,27  L 6,26  L 5,26  L 5,27  Z  " style="fill:rgb(0, 0, 0); fill-opacity:0.988; stroke:none;" />
 <path d="  M 9,29  L 8,29  L 8,30  L 9,30  Z  " style="fill:rgb(0, 0, 0); fill-opacity:0.988; stroke:none;" />
 <path d="  M 21,13  L 20,13  L 20,14  L 21,14  Z  " style="fill:rgb(0, 0, 0); fill-opacity:0.988; stroke:none;" />
 <path d="  M 24,11  L 24,10  L 23,10  L 23,11  Z  " style="fill:rgb(0, 0, 0); fill-opacity:0.988; stroke:none;" />
 <path d="  M 26,11  L 27,11  L 27,10  L 26,10  Z  " style="fill:rgb(0, 0, 0); fill-opacity:0.988; stroke:none;" />
 <path d="  M 29,13  L 29,14  L 30,14  L 30,13  Z  " style="fill:rgb(0, 0, 0); fill-opacity:0.988; stroke:none;" />
 <path d="  M 42,30  L 42,29  L 41,29  L 41,30  Z  " style="fill:rgb(0, 0, 0); fill-opacity:0.988; stroke:none;" />
 <path d="  M 45,24  L 45,23  L 44,23  L 44,24  Z  " style="fill:rgb(0, 0, 0); fill-opacity:0.988; stroke:none;" />
 <path d="  M 45,27  L 45,26  L 44,26  L 44,27  Z  " style="fill:rgb(0, 0, 0); fill-opacity:0.988; stroke:none;" />
 <path d="  M 28,39  L 28,38  L 29,38  L 29,39  L 31,39  L 31,40  L 32,40  L 32,42  L 27,42  L 27,39  Z  M 29,23  L 30,23  L 30,22  L 34,22  L 34,23  L 39,23  L 39,24  L 42,24  L 42,27  L 29,27  Z  M 28,36  L 28,34  L 29,34  L 29,30  L 41,30  L 41,29  L 44,29  L 44,26  L 45,26  L 45,24  L 44,24  L 44,22  L 41,22  L 41,21  L 36,21  L 36,20  L 30,20  L 30,14  L 29,14  L 29,11  L 26,11  L 26,7  L 31,7  L 31,5  L 19,5  L 19,7  L 24,7  L 24,11  L 21,11  L 21,14  L 20,14  L 20,20  L 15,20  L 15,21  L 9,21  L 9,22  L 6,22  L 6,24  L 5,24  L 5,26  L 6,26  L 6,29  L 9,29  L 9,30  L 21,30  L 21,34  L 22,34  L 22,36  L 20,36  L 20,37  L 18,37  L 18,38  L 16,38  L 16,40  L 15,40  L 15,45  L 35,45  L 35,40  L 34,40  L 34,38  L 32,38  L 32,37  L 30,37  L 30,36  Z  M 18,40  L 19,40  L 19,39  L 21,39  L 21,38  L 22,38  L 22,39  L 23,39  L 23,42  L 18,42  Z  M 23,13  L 27,13  L 27,33  L 26,33  L 26,38  L 24,38  L 24,33  L 23,33  Z  M 16,23  L 16,22  L 20,22  L 20,23  L 21,23  L 21,27  L 8,27  L 8,24  L 11,24  L 11,23  Z  " style="fill:rgb(0, 0, 0); fill-opacity:1.000; stroke:none;" />
 <path d="  M 5,28  L 6,28  L 6,27  L 5,27  Z  " style="fill:rgb(0, 0, 0); fill-opacity:0.831; stroke:none;" />
 <path d="  M 8,30  L 8,29  L 7,29  L 7,30  Z  " style="fill:rgb(0, 0, 0); fill-opacity:0.831; stroke:none;" />
 <path d="  M 30,12  L 29,12  L 29,13  L 30,13  Z  " style="fill:rgb(0, 0, 0); fill-opacity:0.831; stroke:none;" />
 <path d="  M 6,29  L 6,28  L 5,28  L 5,29  Z  " style="fill:rgb(0, 0, 0); fill-opacity:0.373; stroke:none;" />
 <path d="  M 6,30  L 7,30  L 7,29  L 6,29  Z  " style="fill:rgb(0, 0, 0); fill-opacity:0.373; stroke:none;" />
 <path d="  M 6,21  L 6,22  L 7,22  L 7,21  Z  " style="fill:rgb(0, 0, 0); fill-opacity:0.565; stroke:none;" />
 <path d="  M 24,35  L 24,36  L 25,36  L 25,35  Z  " style="fill:rgb(0, 0, 0); fill-opacity:0.565; stroke:none;" />
 <path d="  M 44,21  L 43,21  L 43,22  L 44,22  Z  " style="fill:rgb(0, 0, 0); fill-opacity:0.565; stroke:none;" />
 <path d="  M 8,22  L 8,21  L 7,21  L 7,22  Z  " style="fill:rgb(0, 0, 0); fill-opacity:0.792; stroke:none;" />
 <path d="  M 43,22  L 43,21  L 42,21  L 42,22  Z  " style="fill:rgb(0, 0, 0); fill-opacity:0.792; stroke:none;" />
 <path d="  M 8,22  L 9,22  L 9,21  L 8,21  Z  " style="fill:rgb(0, 0, 0); fill-opacity:0.961; stroke:none;" />
 <path d="  M 41,21  L 41,22  L 42,22  L 42,21  Z  " style="fill:rgb(0, 0, 0); fill-opacity:0.961; stroke:none;" />
 <path d="  M 8,24  L 8,25  L 9,25  L 9,24  Z  " style="fill:rgb(0, 0, 0); fill-opacity:0.592; stroke:none;" />
 <path d="  M 42,24  L 41,24  L 41,25  L 42,25  Z  " style="fill:rgb(0, 0, 0); fill-opacity:0.592; stroke:none;" />
 <path d="  M 8,25  L 8,26  L 9,26  L 9,25  Z  " style="fill:rgb(0, 0, 0); fill-opacity:0.333; stroke:none;" />
 <path d="  M 9,27  L 20,27  L 20,26  L 9,26  Z  " style="fill:rgb(0, 0, 0); fill-opacity:0.333; stroke:none;" />
 <path d="  M 19,41  L 19,42  L 22,42  L 22,41  Z  " style="fill:rgb(0, 0, 0); fill-opacity:0.333; stroke:none;" />
 <path d="  M 24,14  L 23,14  L 23,23  L 24,23  Z  " style="fill:rgb(0, 0, 0); fill-opacity:0.333; stroke:none;" />
 <path d="  M 24,13  L 24,14  L 26,14  L 26,13  Z  " style="fill:rgb(0, 0, 0); fill-opacity:0.333; stroke:none;" />
 <path d="  M 26,23  L 27,23  L 27,14  L 26,14  Z  " style="fill:rgb(0, 0, 0); fill-opacity:0.333; stroke:none;" />
 <path d="  M 31,42  L 31,41  L 28,41  L 28,42  Z  " style="fill:rgb(0, 0, 0); fill-opacity:0.333; stroke:none;" />
 <path d="  M 30,26  L 30,27  L 41,27  L 41,26  Z  " style="fill:rgb(0, 0, 0); fill-opacity:0.333; stroke:none;" />
 <path d="  M 42,26  L 42,25  L 41,25  L 41,26  Z  " style="fill:rgb(0, 0, 0); fill-opacity:0.333; stroke:none;" />
 <path d="  M 8,27  L 9,27  L 9,26  L 8,26  Z  " style="fill:rgb(0, 0, 0); fill-opacity:0.553; stroke:none;" />
 <path d="  M 18,41  L 18,42  L 19,42  L 19,41  Z  " style="fill:rgb(0, 0, 0); fill-opacity:0.553; stroke:none;" />
 <path d="  M 24,13  L 23,13  L 23,14  L 24,14  Z  " style="fill:rgb(0, 0, 0); fill-opacity:0.553; stroke:none;" />
 <path d="  M 26,13  L 26,14  L 27,14  L 27,13  Z  " style="fill:rgb(0, 0, 0); fill-opacity:0.553; stroke:none;" />
 <path d="  M 31,41  L 31,42  L 32,42  L 32,41  Z  " style="fill:rgb(0, 0, 0); fill-opacity:0.553; stroke:none;" />
 <path d="  M 42,27  L 42,26  L 41,26  L 41,27  Z  " style="fill:rgb(0, 0, 0); fill-opacity:0.553; stroke:none;" />
 <path d="  M 10,21  L 10,20  L 9,20  L 9,21  Z  " style="fill:rgb(0, 0, 0); fill-opacity:0.102; stroke:none;" />
 <path d="  M 10,25  L 10,24  L 9,24  L 9,25  Z  " style="fill:rgb(0, 0, 0); fill-opacity:0.235; stroke:none;" />
 <path d="  M 15,19  L 15,20  L 16,20  L 16,19  Z  " style="fill:rgb(0, 0, 0); fill-opacity:0.235; stroke:none;" />
 <path d="  M 40,24  L 40,25  L 41,25  L 41,24  Z  " style="fill:rgb(0, 0, 0); fill-opacity:0.235; stroke:none;" />
 <path d="  M 11,20  L 10,20  L 10,21  L 11,21  Z  " style="fill:rgb(0, 0, 0); fill-opacity:0.302; stroke:none;" />
 <path d="  M 35,20  L 35,19  L 34,19  L 34,20  Z  " style="fill:rgb(0, 0, 0); fill-opacity:0.302; stroke:none;" />
 <path d="  M 11,25  L 11,24  L 10,24  L 10,25  Z  " style="fill:rgb(0, 0, 0); fill-opacity:0.059; stroke:none;" />
 <path d="  M 40,25  L 40,24  L 39,24  L 39,25  Z  " style="fill:rgb(0, 0, 0); fill-opacity:0.059; stroke:none;" />
 <path d="  M 12,21  L 12,20  L 11,20  L 11,21  Z  " style="fill:rgb(0, 0, 0); fill-opacity:0.502; stroke:none;" />
 <path d="  M 11,24  L 12,24  L 12,23  L 11,23  Z  " style="fill:rgb(0, 0, 0); fill-opacity:0.871; stroke:none;" />
 <path d="  M 39,23  L 38,23  L 38,24  L 39,24  Z  " style="fill:rgb(0, 0, 0); fill-opacity:0.871; stroke:none;" />
 <path d="  M 12,21  L 13,21  L 13,20  L 12,20  Z  " style="fill:rgb(0, 0, 0); fill-opacity:0.667; stroke:none;" />
 <path d="  M 19,7  L 19,5  L 18,5  L 18,7  Z  " style="fill:rgb(0, 0, 0); fill-opacity:0.667; stroke:none;" />
 <path d="  M 31,7  L 32,7  L 32,5  L 31,5  Z  " style="fill:rgb(0, 0, 0); fill-opacity:0.667; stroke:none;" />
 <path d="  M 12,24  L 13,24  L 13,23  L 12,23  Z  " style="fill:rgb(0, 0, 0); fill-opacity:0.690; stroke:none;" />
 <path d="  M 38,24  L 38,23  L 37,23  L 37,24  Z  " style="fill:rgb(0, 0, 0); fill-opacity:0.690; stroke:none;" />
 <path d="  M 14,21  L 14,20  L 13,20  L 13,21  Z  " style="fill:rgb(0, 0, 0); fill-opacity:0.835; stroke:none;" />
 <path d="  M 22,10  L 22,11  L 23,11  L 23,10  Z  " style="fill:rgb(0, 0, 0); fill-opacity:0.835; stroke:none;" />
 <path d="  M 28,10  L 27,10  L 27,11  L 28,11  Z  " style="fill:rgb(0, 0, 0); fill-opacity:0.835; stroke:none;" />
 <path d="  M 32,19  L 31,19  L 31,20  L 32,20  Z  " style="fill:rgb(0, 0, 0); fill-opacity:0.835; stroke:none;" />
 <path d="  M 14,23  L 13,23  L 13,24  L 14,24  Z  " style="fill:rgb(0, 0, 0); fill-opacity:0.510; stroke:none;" />
 <path d="  M 36,23  L 36,24  L 37,24  L 37,23  Z  " style="fill:rgb(0, 0, 0); fill-opacity:0.510; stroke:none;" />
 <path d="  M 15,19  L 14,19  L 14,20  L 15,20  Z  " style="fill:rgb(0, 0, 0); fill-opacity:0.055; stroke:none;" />
 <path d="  M 15,20  L 14,20  L 14,21  L 15,21  Z  " style="fill:rgb(0, 0, 0); fill-opacity:0.996; stroke:none;" />
 <path d="  M 24,33  L 24,32  L 23,32  L 23,33  Z  " style="fill:rgb(0, 0, 0); fill-opacity:0.996; stroke:none;" />
 <path d="  M 26,32  L 26,33  L 27,33  L 27,32  Z  " style="fill:rgb(0, 0, 0); fill-opacity:0.996; stroke:none;" />
 <path d="  M 14,24  L 15,24  L 15,23  L 14,23  Z  " style="fill:rgb(0, 0, 0); fill-opacity:0.329; stroke:none;" />
 <path d="  M 36,24  L 36,23  L 35,23  L 35,24  Z  " style="fill:rgb(0, 0, 0); fill-opacity:0.329; stroke:none;" />
 <path d="  M 16,23  L 15,23  L 15,24  L 16,24  Z  " style="fill:rgb(0, 0, 0); fill-opacity:0.145; stroke:none;" />
 <path d="  M 34,23  L 34,24  L 35,24  L 35,23  Z  " style="fill:rgb(0, 0, 0); fill-opacity:0.145; stroke:none;" />
 <path d="  M 16,37  L 15,37  L 15,38  L 16,38  Z  " style="fill:rgb(0, 0, 0); fill-opacity:0.004; stroke:none;" />
 <path d="  M 19,41  L 20,41  L 20,40  L 19,40  Z  " style="fill:rgb(0, 0, 0); fill-opacity:0.004; stroke:none;" />
 <path d="  M 31,41  L 31,40  L 30,40  L 30,41  Z  " style="fill:rgb(0, 0, 0); fill-opacity:0.004; stroke:none;" />
 <path d="  M 34,37  L 34,38  L 35,38  L 35,37  Z  " style="fill:rgb(0, 0, 0); fill-opacity:0.004; stroke:none;" />
 <path d="  M 16,39  L 16,38  L 15,38  L 15,39  Z  " style="fill:rgb(0, 0, 0); fill-opacity:0.455; stroke:none;" />
 <path d="  M 16,39  L 15,39  L 15,40  L 16,40  Z  " style="fill:rgb(0, 0, 0); fill-opacity:0.906; stroke:none;" />
 <path d="  M 16,19  L 16,20  L 17,20  L 17,19  Z  " style="fill:rgb(0, 0, 0); fill-opacity:0.400; stroke:none;" />
 <path d="  M 17,22  L 16,22  L 16,23  L 17,23  Z  " style="fill:rgb(0, 0, 0); fill-opacity:0.957; stroke:none;" />
 <path d="  M 20,19  L 19,19  L 19,20  L 20,20  Z  " style="fill:rgb(0, 0, 0); fill-opacity:0.957; stroke:none;" />
 <path d="  M 34,23  L 34,22  L 33,22  L 33,23  Z  " style="fill:rgb(0, 0, 0); fill-opacity:0.957; stroke:none;" />
 <path d="  M 17,24  L 17,23  L 16,23  L 16,24  Z  " style="fill:rgb(0, 0, 0); fill-opacity:0.008; stroke:none;" />
 <path d="  M 22,39  L 21,39  L 21,40  L 22,40  Z  " style="fill:rgb(0, 0, 0); fill-opacity:0.008; stroke:none;" />
 <path d="  M 28,39  L 28,40  L 29,40  L 29,39  Z  " style="fill:rgb(0, 0, 0); fill-opacity:0.008; stroke:none;" />
 <path d="  M 34,23  L 33,23  L 33,24  L 34,24  Z  " style="fill:rgb(0, 0, 0); fill-opacity:0.008; stroke:none;" />
 <path d="  M 17,38  L 17,37  L 16,37  L 16,38  Z  " style="fill:rgb(0, 0, 0); fill-opacity:0.388; stroke:none;" />
 <path d="  M 21,12  L 21,11  L 20,11  L 20,12  Z  " style="fill:rgb(0, 0, 0); fill-opacity:0.388; stroke:none;" />
 <path d="  M 34,37  L 33,37  L 33,38  L 34,38  Z  " style="fill:rgb(0, 0, 0); fill-opacity:0.388; stroke:none;" />
 <path d="  M 18,20  L 18,19  L 17,19  L 17,20  Z  " style="fill:rgb(0, 0, 0); fill-opacity:0.569; stroke:none;" />
 <path d="  M 21,30  L 20,30  L 20,31  L 21,31  Z  " style="fill:rgb(0, 0, 0); fill-opacity:0.569; stroke:none;" />
 <path d="  M 26,36  L 26,35  L 25,35  L 25,36  Z  " style="fill:rgb(0, 0, 0); fill-opacity:0.569; stroke:none;" />
 <path d="  M 39,21  L 39,20  L 38,20  L 38,21  Z  " style="fill:rgb(0, 0, 0); fill-opacity:0.569; stroke:none;" />
 <path d="  M 18,22  L 17,22  L 17,23  L 18,23  Z  " style="fill:rgb(0, 0, 0); fill-opacity:0.784; stroke:none;" />
 <path d="  M 33,22  L 32,22  L 32,23  L 33,23  Z  " style="fill:rgb(0, 0, 0); fill-opacity:0.784; stroke:none;" />
 <path d="  M 18,37  L 18,36  L 17,36  L 17,37  Z  " style="fill:rgb(0, 0, 0); fill-opacity:0.024; stroke:none;" />
 <path d="  M 17,38  L 18,38  L 18,37  L 17,37  Z  " style="fill:rgb(0, 0, 0); fill-opacity:0.886; stroke:none;" />
 <path d="  M 30,36  L 30,37  L 31,37  L 31,36  Z  " style="fill:rgb(0, 0, 0); fill-opacity:0.886; stroke:none;" />
 <path d="  M 33,37  L 32,37  L 32,38  L 33,38  Z  " style="fill:rgb(0, 0, 0); fill-opacity:0.886; stroke:none;" />
 <path d="  M 18,7  L 18,8  L 19,8  L 19,7  Z  " style="fill:rgb(0, 0, 0); fill-opacity:0.357; stroke:none;" />
 <path d="  M 32,8  L 32,7  L 31,7  L 31,8  Z  " style="fill:rgb(0, 0, 0); fill-opacity:0.357; stroke:none;" />
 <path d="  M 18,20  L 19,20  L 19,19  L 18,19  Z  " style="fill:rgb(0, 0, 0); fill-opacity:0.769; stroke:none;" />
 <path d="  M 18,23  L 19,23  L 19,22  L 18,22  Z  " style="fill:rgb(0, 0, 0); fill-opacity:0.600; stroke:none;" />
 <path d="  M 31,23  L 32,23  L 32,22  L 31,22  Z  " style="fill:rgb(0, 0, 0); fill-opacity:0.600; stroke:none;" />
 <path d="  M 18,37  L 19,37  L 19,36  L 18,36  Z  " style="fill:rgb(0, 0, 0); fill-opacity:0.369; stroke:none;" />
 <path d="  M 40,20  L 39,20  L 39,21  L 40,21  Z  " style="fill:rgb(0, 0, 0); fill-opacity:0.369; stroke:none;" />
 <path d="  M 44,30  L 44,29  L 43,29  L 43,30  Z  " style="fill:rgb(0, 0, 0); fill-opacity:0.369; stroke:none;" />
 <path d="  M 19,41  L 19,40  L 18,40  L 18,41  Z  " style="fill:rgb(0, 0, 0); fill-opacity:0.482; stroke:none;" />
 <path d="  M 23,28  L 24,28  L 24,27  L 23,27  Z  " style="fill:rgb(0, 0, 0); fill-opacity:0.482; stroke:none;" />
 <path d="  M 31,40  L 31,41  L 32,41  L 32,40  Z  " style="fill:rgb(0, 0, 0); fill-opacity:0.482; stroke:none;" />
 <path d="  M 19,7  L 19,8  L 23,8  L 23,7  Z  " style="fill:rgb(0, 0, 0); fill-opacity:0.533; stroke:none;" />
 <path d="  M 31,8  L 31,7  L 27,7  L 27,8  Z  " style="fill:rgb(0, 0, 0); fill-opacity:0.533; stroke:none;" />
 <path d="  M 19,19  L 20,19  L 20,18  L 19,18  Z  " style="fill:rgb(0, 0, 0); fill-opacity:0.012; stroke:none;" />
 <path d="  M 21,34  L 20,34  L 20,35  L 21,35  Z  " style="fill:rgb(0, 0, 0); fill-opacity:0.012; stroke:none;" />
 <path d="  M 31,19  L 31,18  L 30,18  L 30,19  Z  " style="fill:rgb(0, 0, 0); fill-opacity:0.012; stroke:none;" />
 <path d="  M 41,20  L 41,21  L 42,21  L 42,20  Z  " style="fill:rgb(0, 0, 0); fill-opacity:0.012; stroke:none;" />
 <path d="  M 20,22  L 19,22  L 19,23  L 20,23  Z  " style="fill:rgb(0, 0, 0); fill-opacity:0.420; stroke:none;" />
 <path d="  M 23,26  L 23,27  L 24,27  L 24,26  Z  " style="fill:rgb(0, 0, 0); fill-opacity:0.420; stroke:none;" />
 <path d="  M 31,23  L 31,22  L 30,22  L 30,23  Z  " style="fill:rgb(0, 0, 0); fill-opacity:0.420; stroke:none;" />
 <path d="  M 19,35  L 19,36  L 20,36  L 20,35  Z  " style="fill:rgb(0, 0, 0); fill-opacity:0.027; stroke:none;" />
 <path d="  M 31,36  L 31,35  L 30,35  L 30,36  Z  " style="fill:rgb(0, 0, 0); fill-opacity:0.027; stroke:none;" />
 <path d="  M 20,37  L 20,36  L 19,36  L 19,37  Z  " style="fill:rgb(0, 0, 0); fill-opacity:0.867; stroke:none;" />
 <path d="  M 20,40  L 20,39  L 19,39  L 19,40  Z  " style="fill:rgb(0, 0, 0); fill-opacity:0.808; stroke:none;" />
 <path d="  M 30,39  L 30,40  L 31,40  L 31,39  Z  " style="fill:rgb(0, 0, 0); fill-opacity:0.808; stroke:none;" />
 <path d="  M 21,12  L 20,12  L 20,13  L 21,13  Z  " style="fill:rgb(0, 0, 0); fill-opacity:0.839; stroke:none;" />
 <path d="  M 21,24  L 21,23  L 20,23  L 20,24  Z  " style="fill:rgb(0, 0, 0); fill-opacity:0.992; stroke:none;" />
 <path d="  M 29,23  L 29,24  L 30,24  L 30,23  Z  " style="fill:rgb(0, 0, 0); fill-opacity:0.992; stroke:none;" />
 <path d="  M 20,24  L 20,25  L 21,25  L 21,24  Z  " style="fill:rgb(0, 0, 0); fill-opacity:0.969; stroke:none;" />
 <path d="  M 22,35  L 21,35  L 21,36  L 22,36  Z  " style="fill:rgb(0, 0, 0); fill-opacity:0.969; stroke:none;" />
 <path d="  M 29,36  L 29,35  L 28,35  L 28,36  Z  " style="fill:rgb(0, 0, 0); fill-opacity:0.969; stroke:none;" />
 <path d="  M 29,25  L 30,25  L 30,24  L 29,24  Z  " style="fill:rgb(0, 0, 0); fill-opacity:0.969; stroke:none;" />
 <path d="  M 21,25  L 20,25  L 20,26  L 21,26  Z  " style="fill:rgb(0, 0, 0); fill-opacity:0.941; stroke:none;" />
 <path d="  M 20,27  L 21,27  L 21,26  L 20,26  Z  " style="fill:rgb(0, 0, 0); fill-opacity:0.945; stroke:none;" />
 <path d="  M 30,26  L 29,26  L 29,27  L 30,27  Z  " style="fill:rgb(0, 0, 0); fill-opacity:0.945; stroke:none;" />
 <path d="  M 21,32  L 21,31  L 20,31  L 20,32  Z  " style="fill:rgb(0, 0, 0); fill-opacity:0.427; stroke:none;" />
 <path d="  M 20,33  L 21,33  L 21,32  L 20,32  Z  " style="fill:rgb(0, 0, 0); fill-opacity:0.282; stroke:none;" />
 <path d="  M 20,34  L 21,34  L 21,33  L 20,33  Z  " style="fill:rgb(0, 0, 0); fill-opacity:0.137; stroke:none;" />
 <path d="  M 21,36  L 21,35  L 20,35  L 20,36  Z  " style="fill:rgb(0, 0, 0); fill-opacity:0.416; stroke:none;" />
 <path d="  M 29,36  L 30,36  L 30,35  L 29,35  Z  " style="fill:rgb(0, 0, 0); fill-opacity:0.416; stroke:none;" />
 <path d="  M 21,40  L 21,39  L 20,39  L 20,40  Z  " style="fill:rgb(0, 0, 0); fill-opacity:0.310; stroke:none;" />
 <path d="  M 29,40  L 30,40  L 30,39  L 29,39  Z  " style="fill:rgb(0, 0, 0); fill-opacity:0.310; stroke:none;" />
 <path d="  M 22,11  L 22,10  L 21,10  L 21,11  Z  " style="fill:rgb(0, 0, 0); fill-opacity:0.384; stroke:none;" />
 <path d="  M 21,34  L 21,35  L 22,35  L 22,34  Z  " style="fill:rgb(0, 0, 0); fill-opacity:0.976; stroke:none;" />
 <path d="  M 29,35  L 29,34  L 28,34  L 28,35  Z  " style="fill:rgb(0, 0, 0); fill-opacity:0.976; stroke:none;" />
 <path d="  M 30,19  L 30,20  L 31,20  L 31,19  Z  " style="fill:rgb(0, 0, 0); fill-opacity:0.976; stroke:none;" />
 <path d="  M 22,39  L 22,38  L 21,38  L 21,39  Z  " style="fill:rgb(0, 0, 0); fill-opacity:0.851; stroke:none;" />
 <path d="  M 28,38  L 28,39  L 29,39  L 29,38  Z  " style="fill:rgb(0, 0, 0); fill-opacity:0.851; stroke:none;" />
 <path d="  M 22,39  L 22,40  L 23,40  L 23,39  Z  " style="fill:rgb(0, 0, 0); fill-opacity:0.914; stroke:none;" />
 <path d="  M 28,39  L 27,39  L 27,40  L 28,40  Z  " style="fill:rgb(0, 0, 0); fill-opacity:0.914; stroke:none;" />
 <path d="  M 22,41  L 23,41  L 23,40  L 22,40  Z  " style="fill:rgb(0, 0, 0); fill-opacity:0.651; stroke:none;" />
 <path d="  M 23,8  L 24,8  L 24,7  L 23,7  Z  " style="fill:rgb(0, 0, 0); fill-opacity:0.651; stroke:none;" />
 <path d="  M 27,7  L 26,7  L 26,8  L 27,8  Z  " style="fill:rgb(0, 0, 0); fill-opacity:0.651; stroke:none;" />
 <path d="  M 27,40  L 27,41  L 28,41  L 28,40  Z  " style="fill:rgb(0, 0, 0); fill-opacity:0.651; stroke:none;" />
 <path d="  M 23,41  L 22,41  L 22,42  L 23,42  Z  " style="fill:rgb(0, 0, 0); fill-opacity:0.620; stroke:none;" />
 <path d="  M 28,41  L 27,41  L 27,42  L 28,42  Z  " style="fill:rgb(0, 0, 0); fill-opacity:0.620; stroke:none;" />
 <path d="  M 24,10  L 24,8  L 23,8  L 23,10  Z  " style="fill:rgb(0, 0, 0); fill-opacity:0.251; stroke:none;" />
 <path d="  M 27,8  L 26,8  L 26,10  L 27,10  Z  " style="fill:rgb(0, 0, 0); fill-opacity:0.251; stroke:none;" />
 <path d="  M 23,23  L 23,24  L 24,24  L 24,23  Z  " style="fill:rgb(0, 0, 0); fill-opacity:0.337; stroke:none;" />
 <path d="  M 26,24  L 27,24  L 27,23  L 26,23  Z  " style="fill:rgb(0, 0, 0); fill-opacity:0.337; stroke:none;" />
 <path d="  M 23,24  L 23,25  L 24,25  L 24,24  Z  " style="fill:rgb(0, 0, 0); fill-opacity:0.365; stroke:none;" />
 <path d="  M 26,25  L 27,25  L 27,24  L 26,24  Z  " style="fill:rgb(0, 0, 0); fill-opacity:0.365; stroke:none;" />
 <path d="  M 45,28  L 44,28  L 44,29  L 45,29  Z  " style="fill:rgb(0, 0, 0); fill-opacity:0.365; stroke:none;" />
 <path d="  M 24,26  L 24,25  L 23,25  L 23,26  Z  " style="fill:rgb(0, 0, 0); fill-opacity:0.392; stroke:none;" />
 <path d="  M 23,29  L 24,29  L 24,28  L 23,28  Z  " style="fill:rgb(0, 0, 0); fill-opacity:0.573; stroke:none;" />
 <path d="  M 29,31  L 30,31  L 30,30  L 29,30  Z  " style="fill:rgb(0, 0, 0); fill-opacity:0.573; stroke:none;" />
 <path d="  M 23,29  L 23,30  L 24,30  L 24,29  Z  " style="fill:rgb(0, 0, 0); fill-opacity:0.659; stroke:none;" />
 <path d="  M 23,31  L 23,32  L 24,32  L 24,31  Z  " style="fill:rgb(0, 0, 0); fill-opacity:0.890; stroke:none;" />
 <path d="  M 26,33  L 26,32  L 24,32  L 24,33  Z  " style="fill:rgb(0, 0, 0); fill-opacity:0.043; stroke:none;" />
 <path d="  M 25,34  L 25,33  L 24,33  L 24,34  Z  " style="fill:rgb(0, 0, 0); fill-opacity:0.180; stroke:none;" />
 <path d="  M 24,35  L 25,35  L 25,34  L 24,34  Z  " style="fill:rgb(0, 0, 0); fill-opacity:0.353; stroke:none;" />
 <path d="  M 24,37  L 25,37  L 25,36  L 24,36  Z  " style="fill:rgb(0, 0, 0); fill-opacity:0.773; stroke:none;" />
 <path d="  M 24,37  L 24,38  L 26,38  L 26,37  Z  " style="fill:rgb(0, 0, 0); fill-opacity:0.965; stroke:none;" />
 <path d="  M 25,34  L 26,34  L 26,33  L 25,33  Z  " style="fill:rgb(0, 0, 0); fill-opacity:0.192; stroke:none;" />
 <path d="  M 26,35  L 26,34  L 25,34  L 25,35  Z  " style="fill:rgb(0, 0, 0); fill-opacity:0.361; stroke:none;" />
 <path d="  M 25,37  L 26,37  L 26,36  L 25,36  Z  " style="fill:rgb(0, 0, 0); fill-opacity:0.780; stroke:none;" />
 <path d="  M 26,26  L 27,26  L 27,25  L 26,25  Z  " style="fill:rgb(0, 0, 0); fill-opacity:0.396; stroke:none;" />
 <path d="  M 27,27  L 27,26  L 26,26  L 26,27  Z  " style="fill:rgb(0, 0, 0); fill-opacity:0.424; stroke:none;" />
 <path d="  M 30,32  L 30,31  L 29,31  L 29,32  Z  " style="fill:rgb(0, 0, 0); fill-opacity:0.424; stroke:none;" />
 <path d="  M 26,28  L 27,28  L 27,27  L 26,27  Z  " style="fill:rgb(0, 0, 0); fill-opacity:0.486; stroke:none;" />
 <path d="  M 26,29  L 27,29  L 27,28  L 26,28  Z  " style="fill:rgb(0, 0, 0); fill-opacity:0.576; stroke:none;" />
 <path d="  M 27,29  L 26,29  L 26,30  L 27,30  Z  " style="fill:rgb(0, 0, 0); fill-opacity:0.663; stroke:none;" />
 <path d="  M 26,31  L 27,31  L 27,30  L 26,30  Z  " style="fill:rgb(0, 0, 0); fill-opacity:0.757; stroke:none;" />
 <path d="  M 27,31  L 26,31  L 26,32  L 27,32  Z  " style="fill:rgb(0, 0, 0); fill-opacity:0.898; stroke:none;" />
 <path d="  M 29,11  L 29,10  L 28,10  L 28,11  Z  " style="fill:rgb(0, 0, 0); fill-opacity:0.376; stroke:none;" />
 <path d="  M 29,11  L 29,12  L 30,12  L 30,11  Z  " style="fill:rgb(0, 0, 0); fill-opacity:0.376; stroke:none;" />
 <path d="  M 29,25  L 29,26  L 30,26  L 30,25  Z  " style="fill:rgb(0, 0, 0); fill-opacity:0.937; stroke:none;" />
 <path d="  M 29,33  L 30,33  L 30,32  L 29,32  Z  " style="fill:rgb(0, 0, 0); fill-opacity:0.278; stroke:none;" />
 <path d="  M 29,33  L 29,34  L 30,34  L 30,33  Z  " style="fill:rgb(0, 0, 0); fill-opacity:0.133; stroke:none;" />
 <path d="  M 29,35  L 30,35  L 30,34  L 29,34  Z  " style="fill:rgb(0, 0, 0); fill-opacity:0.016; stroke:none;" />
 <path d="  M 32,36  L 31,36  L 31,37  L 32,37  Z  " style="fill:rgb(0, 0, 0); fill-opacity:0.435; stroke:none;" />
 <path d="  M 32,19  L 32,20  L 33,20  L 33,19  Z  " style="fill:rgb(0, 0, 0); fill-opacity:0.635; stroke:none;" />
 <path d="  M 33,37  L 33,36  L 32,36  L 32,37  Z  " style="fill:rgb(0, 0, 0); fill-opacity:0.031; stroke:none;" />
 <path d="  M 33,19  L 33,20  L 34,20  L 34,19  Z  " style="fill:rgb(0, 0, 0); fill-opacity:0.467; stroke:none;" />
 <path d="  M 34,38  L 34,39  L 35,39  L 35,38  Z  " style="fill:rgb(0, 0, 0); fill-opacity:0.451; stroke:none;" />
 <path d="  M 34,40  L 35,40  L 35,39  L 34,39  Z  " style="fill:rgb(0, 0, 0); fill-opacity:0.902; stroke:none;" />
 <path d="  M 36,20  L 36,21  L 37,21  L 37,20  Z  " style="fill:rgb(0, 0, 0); fill-opacity:0.902; stroke:none;" />
 <path d="  M 37,20  L 37,21  L 38,21  L 38,20  Z  " style="fill:rgb(0, 0, 0); fill-opacity:0.733; stroke:none;" />
 <path d="  M 41,21  L 41,20  L 40,20  L 40,21  Z  " style="fill:rgb(0, 0, 0); fill-opacity:0.169; stroke:none;" />
 <path d="  M 43,29  L 42,29  L 42,30  L 43,30  Z  " style="fill:rgb(0, 0, 0); fill-opacity:0.827; stroke:none;" />
 <path d="  M 44,27  L 44,28  L 45,28  L 45,27  Z  " style="fill:rgb(0, 0, 0); fill-opacity:0.827; stroke:none;" />
 <path d="  M 45,22  L 44,22  L 44,23  L 45,23  Z  " style="fill:rgb(0, 0, 0); fill-opacity:0.749; stroke:none;" />
</svg>

