<?xml version="1.0" encoding="UTF-8" standalone="no"?>
<!DOCTYPE svg PUBLIC "-//W3C//DTD SVG 1.1//EN" 
  "http://www.w3.org/Graphics/SVG/1.1/DTD/svg11.dtd">
<svg width="50" height="50"
     xmlns="http://www.w3.org/2000/svg" version="1.1">
 <path d="  M 0,0  L 0,13  L 21,13  L 21,8  L 22,8  L 22,6  L 23,6  L 23,5  L 27,5  L 27,6  L 28,6  L 28,8  L 29,8  L 29,13  L 50,13  L 50,0  Z  " style="fill:rgb(0, 0, 0); fill-opacity:0.000; stroke:none;" />
 <path d="  M 50,18  L 49,18  L 49,19  L 43,19  L 43,20  L 37,20  L 37,21  L 31,21  L 31,22  L 29,22  L 29,24  L 28,24  L 28,38  L 34,38  L 34,39  L 36,39  L 36,44  L 32,44  L 32,45  L 18,45  L 18,44  L 14,44  L 14,39  L 16,39  L 16,38  L 22,38  L 22,24  L 21,24  L 21,22  L 19,22  L 19,21  L 13,21  L 13,20  L 7,20  L 7,19  L 1,19  L 1,18  L 0,18  L 0,50  L 50,50  Z  " style="fill:rgb(0, 0, 0); fill-opacity:0.000; stroke:none;" />
 <path d="  M 11,17  L 11,18  L 17,18  L 17,19  L 21,19  L 21,15  L 2,15  L 2,16  L 5,16  L 5,17  Z  " style="fill:rgb(0, 0, 0); fill-opacity:0.000; stroke:none;" />
 <path d="  M 17,42  L 33,42  L 33,41  L 30,41  L 30,40  L 20,40  L 20,41  L 17,41  Z  " style="fill:rgb(0, 0, 0); fill-opacity:0.000; stroke:none;" />
 <path d="  M 26,9  L 26,8  L 24,8  L 24,9  Z  " style="fill:rgb(0, 0, 0); fill-opacity:0.000; stroke:none;" />
 <path d="  M 24,16  L 26,16  L 26,12  L 24,12  Z  " style="fill:rgb(0, 0, 0); fill-opacity:0.000; stroke:none;" />
 <path d="  M 26,19  L 24,19  L 24,32  L 26,32  Z  " style="fill:rgb(0, 0, 0); fill-opacity:0.000; stroke:none;" />
 <path d="  M 29,15  L 29,19  L 33,19  L 33,18  L 39,18  L 39,17  L 45,17  L 45,16  L 48,16  L 48,15  Z  " style="fill:rgb(0, 0, 0); fill-opacity:0.000; stroke:none;" />
 <path d="  M 1,14  L 1,13  L 0,13  L 0,14  Z  " style="fill:rgb(0, 0, 0); fill-opacity:0.545; stroke:none;" />
 <path d="  M 24,42  L 24,43  L 26,43  L 26,42  Z  " style="fill:rgb(0, 0, 0); fill-opacity:0.545; stroke:none;" />
 <path d="  M 49,13  L 49,14  L 50,14  L 50,13  Z  " style="fill:rgb(0, 0, 0); fill-opacity:0.545; stroke:none;" />
 <path d="  M 0,17  L 1,17  L 1,14  L 0,14  Z  " style="fill:rgb(0, 0, 0); fill-opacity:1.000; stroke:none;" />
 <path d="  M 4,17  L 1,17  L 1,18  L 4,18  Z  " style="fill:rgb(0, 0, 0); fill-opacity:1.000; stroke:none;" />
 <path d="  M 11,19  L 11,18  L 7,18  L 7,19  Z  " style="fill:rgb(0, 0, 0); fill-opacity:1.000; stroke:none;" />
 <path d="  M 17,20  L 17,19  L 14,19  L 14,20  Z  " style="fill:rgb(0, 0, 0); fill-opacity:1.000; stroke:none;" />
 <path d="  M 15,40  L 15,43  L 16,43  L 16,40  Z  " style="fill:rgb(0, 0, 0); fill-opacity:1.000; stroke:none;" />
 <path d="  M 16,39  L 16,40  L 19,40  L 19,39  Z  " style="fill:rgb(0, 0, 0); fill-opacity:1.000; stroke:none;" />
 <path d="  M 32,44  L 32,43  L 18,43  L 18,44  Z  " style="fill:rgb(0, 0, 0); fill-opacity:1.000; stroke:none;" />
 <path d="  M 22,24  L 23,24  L 23,18  L 24,18  L 24,17  L 23,17  L 23,11  L 24,11  L 24,10  L 23,10  L 23,9  L 22,9  Z  " style="fill:rgb(0, 0, 0); fill-opacity:1.000; stroke:none;" />
 <path d="  M 28,39  L 28,38  L 22,38  L 22,39  Z  " style="fill:rgb(0, 0, 0); fill-opacity:1.000; stroke:none;" />
 <path d="  M 23,32  L 23,36  L 24,36  L 24,32  Z  " style="fill:rgb(0, 0, 0); fill-opacity:1.000; stroke:none;" />
 <path d="  M 26,7  L 26,6  L 24,6  L 24,7  Z  " style="fill:rgb(0, 0, 0); fill-opacity:1.000; stroke:none;" />
 <path d="  M 27,10  L 26,10  L 26,11  L 27,11  L 27,17  L 26,17  L 26,18  L 27,18  L 27,23  L 28,23  L 28,9  L 27,9  Z  " style="fill:rgb(0, 0, 0); fill-opacity:1.000; stroke:none;" />
 <path d="  M 26,36  L 27,36  L 27,32  L 26,32  Z  " style="fill:rgb(0, 0, 0); fill-opacity:1.000; stroke:none;" />
 <path d="  M 34,40  L 34,39  L 31,39  L 31,40  Z  " style="fill:rgb(0, 0, 0); fill-opacity:1.000; stroke:none;" />
 <path d="  M 36,20  L 36,19  L 33,19  L 33,20  Z  " style="fill:rgb(0, 0, 0); fill-opacity:1.000; stroke:none;" />
 <path d="  M 34,43  L 35,43  L 35,40  L 34,40  Z  " style="fill:rgb(0, 0, 0); fill-opacity:1.000; stroke:none;" />
 <path d="  M 39,18  L 39,19  L 43,19  L 43,18  Z  " style="fill:rgb(0, 0, 0); fill-opacity:1.000; stroke:none;" />
 <path d="  M 46,18  L 49,18  L 49,17  L 46,17  Z  " style="fill:rgb(0, 0, 0); fill-opacity:1.000; stroke:none;" />
 <path d="  M 50,17  L 50,14  L 49,14  L 49,17  Z  " style="fill:rgb(0, 0, 0); fill-opacity:1.000; stroke:none;" />
 <path d="  M 1,17  L 0,17  L 0,18  L 1,18  Z  " style="fill:rgb(0, 0, 0); fill-opacity:0.812; stroke:none;" />
 <path d="  M 19,21  L 19,20  L 18,20  L 18,21  Z  " style="fill:rgb(0, 0, 0); fill-opacity:0.812; stroke:none;" />
 <path d="  M 26,12  L 27,12  L 27,11  L 26,11  Z  " style="fill:rgb(0, 0, 0); fill-opacity:0.812; stroke:none;" />
 <path d="  M 31,21  L 32,21  L 32,20  L 31,20  Z  " style="fill:rgb(0, 0, 0); fill-opacity:0.812; stroke:none;" />
 <path d="  M 20,14  L 20,13  L 1,13  L 1,14  Z  " style="fill:rgb(0, 0, 0); fill-opacity:0.733; stroke:none;" />
 <path d="  M 6,19  L 6,18  L 5,18  L 5,19  Z  " style="fill:rgb(0, 0, 0); fill-opacity:0.733; stroke:none;" />
 <path d="  M 21,15  L 21,14  L 20,14  L 20,15  Z  " style="fill:rgb(0, 0, 0); fill-opacity:0.733; stroke:none;" />
 <path d="  M 21,38  L 20,38  L 20,39  L 21,39  Z  " style="fill:rgb(0, 0, 0); fill-opacity:0.733; stroke:none;" />
 <path d="  M 30,15  L 30,14  L 29,14  L 29,15  Z  " style="fill:rgb(0, 0, 0); fill-opacity:0.733; stroke:none;" />
 <path d="  M 49,14  L 49,13  L 30,13  L 30,14  Z  " style="fill:rgb(0, 0, 0); fill-opacity:0.733; stroke:none;" />
 <path d="  M 45,19  L 45,18  L 44,18  L 44,19  Z  " style="fill:rgb(0, 0, 0); fill-opacity:0.733; stroke:none;" />
 <path d="  M 2,14  L 1,14  L 1,15  L 2,15  Z  " style="fill:rgb(0, 0, 0); fill-opacity:0.941; stroke:none;" />
 <path d="  M 48,15  L 49,15  L 49,14  L 48,14  Z  " style="fill:rgb(0, 0, 0); fill-opacity:0.941; stroke:none;" />
 <path d="  M 1,16  L 2,16  L 2,15  L 1,15  Z  " style="fill:rgb(0, 0, 0); fill-opacity:0.561; stroke:none;" />
 <path d="  M 48,15  L 48,16  L 49,16  L 49,15  Z  " style="fill:rgb(0, 0, 0); fill-opacity:0.561; stroke:none;" />
 <path d="  M 1,16  L 1,17  L 2,17  L 2,16  Z  " style="fill:rgb(0, 0, 0); fill-opacity:0.757; stroke:none;" />
 <path d="  M 26,17  L 27,17  L 27,16  L 26,16  Z  " style="fill:rgb(0, 0, 0); fill-opacity:0.757; stroke:none;" />
 <path d="  M 26,28  L 27,28  L 27,27  L 26,27  Z  " style="fill:rgb(0, 0, 0); fill-opacity:0.757; stroke:none;" />
 <path d="  M 49,17  L 49,16  L 48,16  L 48,17  Z  " style="fill:rgb(0, 0, 0); fill-opacity:0.757; stroke:none;" />
 <path d="  M 2,19  L 2,18  L 1,18  L 1,19  Z  " style="fill:rgb(0, 0, 0); fill-opacity:0.090; stroke:none;" />
 <path d="  M 23,37  L 22,37  L 22,38  L 23,38  Z  " style="fill:rgb(0, 0, 0); fill-opacity:0.090; stroke:none;" />
 <path d="  M 27,37  L 27,38  L 28,38  L 28,37  Z  " style="fill:rgb(0, 0, 0); fill-opacity:0.090; stroke:none;" />
 <path d="  M 49,18  L 48,18  L 48,19  L 49,19  Z  " style="fill:rgb(0, 0, 0); fill-opacity:0.090; stroke:none;" />
 <path d="  M 2,14  L 2,15  L 20,15  L 20,14  Z  " style="fill:rgb(0, 0, 0); fill-opacity:0.867; stroke:none;" />
 <path d="  M 23,27  L 23,26  L 22,26  L 22,27  Z  " style="fill:rgb(0, 0, 0); fill-opacity:0.867; stroke:none;" />
 <path d="  M 30,14  L 30,15  L 48,15  L 48,14  Z  " style="fill:rgb(0, 0, 0); fill-opacity:0.867; stroke:none;" />
 <path d="  M 2,17  L 3,17  L 3,16  L 2,16  Z  " style="fill:rgb(0, 0, 0); fill-opacity:0.329; stroke:none;" />
 <path d="  M 47,17  L 48,17  L 48,16  L 47,16  Z  " style="fill:rgb(0, 0, 0); fill-opacity:0.329; stroke:none;" />
 <path d="  M 3,19  L 3,18  L 2,18  L 2,19  Z  " style="fill:rgb(0, 0, 0); fill-opacity:0.255; stroke:none;" />
 <path d="  M 47,18  L 47,19  L 48,19  L 48,18  Z  " style="fill:rgb(0, 0, 0); fill-opacity:0.255; stroke:none;" />
 <path d="  M 3,17  L 4,17  L 4,16  L 3,16  Z  " style="fill:rgb(0, 0, 0); fill-opacity:0.169; stroke:none;" />
 <path d="  M 3,19  L 4,19  L 4,18  L 3,18  Z  " style="fill:rgb(0, 0, 0); fill-opacity:0.412; stroke:none;" />
 <path d="  M 47,19  L 47,18  L 46,18  L 46,19  Z  " style="fill:rgb(0, 0, 0); fill-opacity:0.412; stroke:none;" />
 <path d="  M 4,16  L 4,17  L 5,17  L 5,16  Z  " style="fill:rgb(0, 0, 0); fill-opacity:0.024; stroke:none;" />
 <path d="  M 14,21  L 14,20  L 13,20  L 13,21  Z  " style="fill:rgb(0, 0, 0); fill-opacity:0.024; stroke:none;" />
 <path d="  M 25,32  L 25,33  L 26,33  L 26,32  Z  " style="fill:rgb(0, 0, 0); fill-opacity:0.024; stroke:none;" />
 <path d="  M 32,44  L 31,44  L 31,45  L 32,45  Z  " style="fill:rgb(0, 0, 0); fill-opacity:0.024; stroke:none;" />
 <path d="  M 36,20  L 36,21  L 37,21  L 37,20  Z  " style="fill:rgb(0, 0, 0); fill-opacity:0.024; stroke:none;" />
 <path d="  M 45,16  L 45,17  L 46,17  L 46,16  Z  " style="fill:rgb(0, 0, 0); fill-opacity:0.024; stroke:none;" />
 <path d="  M 4,18  L 5,18  L 5,17  L 4,17  Z  " style="fill:rgb(0, 0, 0); fill-opacity:0.984; stroke:none;" />
 <path d="  M 13,19  L 13,20  L 14,20  L 14,19  Z  " style="fill:rgb(0, 0, 0); fill-opacity:0.984; stroke:none;" />
 <path d="  M 23,8  L 22,8  L 22,9  L 23,9  Z  " style="fill:rgb(0, 0, 0); fill-opacity:0.984; stroke:none;" />
 <path d="  M 28,9  L 28,8  L 27,8  L 27,9  Z  " style="fill:rgb(0, 0, 0); fill-opacity:0.984; stroke:none;" />
 <path d="  M 36,20  L 37,20  L 37,19  L 36,19  Z  " style="fill:rgb(0, 0, 0); fill-opacity:0.984; stroke:none;" />
 <path d="  M 46,18  L 46,17  L 45,17  L 45,18  Z  " style="fill:rgb(0, 0, 0); fill-opacity:0.984; stroke:none;" />
 <path d="  M 5,19  L 5,18  L 4,18  L 4,19  Z  " style="fill:rgb(0, 0, 0); fill-opacity:0.573; stroke:none;" />
 <path d="  M 24,8  L 23,8  L 23,9  L 24,9  Z  " style="fill:rgb(0, 0, 0); fill-opacity:0.573; stroke:none;" />
 <path d="  M 45,18  L 45,19  L 46,19  L 46,18  Z  " style="fill:rgb(0, 0, 0); fill-opacity:0.573; stroke:none;" />
 <path d="  M 6,17  L 5,17  L 5,18  L 6,18  Z  " style="fill:rgb(0, 0, 0); fill-opacity:0.851; stroke:none;" />
 <path d="  M 44,17  L 44,18  L 45,18  L 45,17  Z  " style="fill:rgb(0, 0, 0); fill-opacity:0.851; stroke:none;" />
 <path d="  M 6,18  L 7,18  L 7,17  L 6,17  Z  " style="fill:rgb(0, 0, 0); fill-opacity:0.682; stroke:none;" />
 <path d="  M 24,19  L 24,18  L 23,18  L 23,19  Z  " style="fill:rgb(0, 0, 0); fill-opacity:0.682; stroke:none;" />
 <path d="  M 26,19  L 27,19  L 27,18  L 26,18  Z  " style="fill:rgb(0, 0, 0); fill-opacity:0.682; stroke:none;" />
 <path d="  M 44,18  L 44,17  L 43,17  L 43,18  Z  " style="fill:rgb(0, 0, 0); fill-opacity:0.682; stroke:none;" />
 <path d="  M 6,18  L 6,19  L 7,19  L 7,18  Z  " style="fill:rgb(0, 0, 0); fill-opacity:0.890; stroke:none;" />
 <path d="  M 44,18  L 43,18  L 43,19  L 44,19  Z  " style="fill:rgb(0, 0, 0); fill-opacity:0.890; stroke:none;" />
 <path d="  M 8,17  L 7,17  L 7,18  L 8,18  Z  " style="fill:rgb(0, 0, 0); fill-opacity:0.529; stroke:none;" />
 <path d="  M 42,17  L 42,18  L 43,18  L 43,17  Z  " style="fill:rgb(0, 0, 0); fill-opacity:0.529; stroke:none;" />
 <path d="  M 7,20  L 8,20  L 8,19  L 7,19  Z  " style="fill:rgb(0, 0, 0); fill-opacity:0.055; stroke:none;" />
 <path d="  M 29,23  L 29,22  L 28,22  L 28,23  Z  " style="fill:rgb(0, 0, 0); fill-opacity:0.055; stroke:none;" />
 <path d="  M 43,19  L 42,19  L 42,20  L 43,20  Z  " style="fill:rgb(0, 0, 0); fill-opacity:0.055; stroke:none;" />
 <path d="  M 8,17  L 8,18  L 9,18  L 9,17  Z  " style="fill:rgb(0, 0, 0); fill-opacity:0.369; stroke:none;" />
 <path d="  M 8,19  L 8,20  L 9,20  L 9,19  Z  " style="fill:rgb(0, 0, 0); fill-opacity:0.212; stroke:none;" />
 <path d="  M 42,20  L 42,19  L 41,19  L 41,20  Z  " style="fill:rgb(0, 0, 0); fill-opacity:0.212; stroke:none;" />
 <path d="  M 9,18  L 10,18  L 10,17  L 9,17  Z  " style="fill:rgb(0, 0, 0); fill-opacity:0.204; stroke:none;" />
 <path d="  M 23,36  L 22,36  L 22,37  L 23,37  Z  " style="fill:rgb(0, 0, 0); fill-opacity:0.204; stroke:none;" />
 <path d="  M 27,37  L 28,37  L 28,36  L 27,36  Z  " style="fill:rgb(0, 0, 0); fill-opacity:0.204; stroke:none;" />
 <path d="  M 40,17  L 40,18  L 41,18  L 41,17  Z  " style="fill:rgb(0, 0, 0); fill-opacity:0.204; stroke:none;" />
 <path d="  M 9,19  L 9,20  L 10,20  L 10,19  Z  " style="fill:rgb(0, 0, 0); fill-opacity:0.373; stroke:none;" />
 <path d="  M 21,20  L 21,19  L 20,19  L 20,20  Z  " style="fill:rgb(0, 0, 0); fill-opacity:0.373; stroke:none;" />
 <path d="  M 20,42  L 20,43  L 21,43  L 21,42  Z  " style="fill:rgb(0, 0, 0); fill-opacity:0.373; stroke:none;" />
 <path d="  M 29,19  L 29,20  L 30,20  L 30,19  Z  " style="fill:rgb(0, 0, 0); fill-opacity:0.373; stroke:none;" />
 <path d="  M 29,42  L 29,43  L 30,43  L 30,42  Z  " style="fill:rgb(0, 0, 0); fill-opacity:0.373; stroke:none;" />
 <path d="  M 41,20  L 41,19  L 40,19  L 40,20  Z  " style="fill:rgb(0, 0, 0); fill-opacity:0.373; stroke:none;" />
 <path d="  M 10,17  L 10,18  L 11,18  L 11,17  Z  " style="fill:rgb(0, 0, 0); fill-opacity:0.051; stroke:none;" />
 <path d="  M 40,17  L 39,17  L 39,18  L 40,18  Z  " style="fill:rgb(0, 0, 0); fill-opacity:0.051; stroke:none;" />
 <path d="  M 11,20  L 11,19  L 10,19  L 10,20  Z  " style="fill:rgb(0, 0, 0); fill-opacity:0.533; stroke:none;" />
 <path d="  M 39,19  L 39,20  L 40,20  L 40,19  Z  " style="fill:rgb(0, 0, 0); fill-opacity:0.533; stroke:none;" />
 <path d="  M 12,18  L 11,18  L 11,19  L 12,19  Z  " style="fill:rgb(0, 0, 0); fill-opacity:0.882; stroke:none;" />
 <path d="  M 38,18  L 38,19  L 39,19  L 39,18  Z  " style="fill:rgb(0, 0, 0); fill-opacity:0.882; stroke:none;" />
 <path d="  M 12,19  L 11,19  L 11,20  L 12,20  Z  " style="fill:rgb(0, 0, 0); fill-opacity:0.690; stroke:none;" />
 <path d="  M 38,20  L 39,20  L 39,19  L 38,19  Z  " style="fill:rgb(0, 0, 0); fill-opacity:0.690; stroke:none;" />
 <path d="  M 12,18  L 12,19  L 13,19  L 13,18  Z  " style="fill:rgb(0, 0, 0); fill-opacity:0.729; stroke:none;" />
 <path d="  M 38,18  L 37,18  L 37,19  L 38,19  Z  " style="fill:rgb(0, 0, 0); fill-opacity:0.729; stroke:none;" />
 <path d="  M 13,19  L 12,19  L 12,20  L 13,20  Z  " style="fill:rgb(0, 0, 0); fill-opacity:0.855; stroke:none;" />
 <path d="  M 38,20  L 38,19  L 37,19  L 37,20  Z  " style="fill:rgb(0, 0, 0); fill-opacity:0.855; stroke:none;" />
 <path d="  M 14,18  L 13,18  L 13,19  L 14,19  Z  " style="fill:rgb(0, 0, 0); fill-opacity:0.569; stroke:none;" />
 <path d="  M 19,38  L 19,39  L 20,39  L 20,38  Z  " style="fill:rgb(0, 0, 0); fill-opacity:0.569; stroke:none;" />
 <path d="  M 15,18  L 14,18  L 14,19  L 15,19  Z  " style="fill:rgb(0, 0, 0); fill-opacity:0.404; stroke:none;" />
 <path d="  M 24,45  L 25,45  L 25,44  L 24,44  Z  " style="fill:rgb(0, 0, 0); fill-opacity:0.404; stroke:none;" />
 <path d="  M 36,18  L 35,18  L 35,19  L 36,19  Z  " style="fill:rgb(0, 0, 0); fill-opacity:0.404; stroke:none;" />
 <path d="  M 15,20  L 14,20  L 14,21  L 15,21  Z  " style="fill:rgb(0, 0, 0); fill-opacity:0.173; stroke:none;" />
 <path d="  M 36,20  L 35,20  L 35,21  L 36,21  Z  " style="fill:rgb(0, 0, 0); fill-opacity:0.173; stroke:none;" />
 <path d="  M 15,40  L 15,39  L 14,39  L 14,40  Z  " style="fill:rgb(0, 0, 0); fill-opacity:0.059; stroke:none;" />
 <path d="  M 22,22  L 21,22  L 21,23  L 22,23  Z  " style="fill:rgb(0, 0, 0); fill-opacity:0.059; stroke:none;" />
 <path d="  M 35,39  L 35,40  L 36,40  L 36,39  Z  " style="fill:rgb(0, 0, 0); fill-opacity:0.059; stroke:none;" />
 <path d="  M 15,40  L 14,40  L 14,43  L 15,43  Z  " style="fill:rgb(0, 0, 0); fill-opacity:0.157; stroke:none;" />
 <path d="  M 24,39  L 24,40  L 26,40  L 26,39  Z  " style="fill:rgb(0, 0, 0); fill-opacity:0.157; stroke:none;" />
 <path d="  M 35,43  L 36,43  L 36,40  L 35,40  Z  " style="fill:rgb(0, 0, 0); fill-opacity:0.157; stroke:none;" />
 <path d="  M 15,43  L 14,43  L 14,44  L 15,44  Z  " style="fill:rgb(0, 0, 0); fill-opacity:0.027; stroke:none;" />
 <path d="  M 35,43  L 35,44  L 36,44  L 36,43  Z  " style="fill:rgb(0, 0, 0); fill-opacity:0.027; stroke:none;" />
 <path d="  M 16,18  L 15,18  L 15,19  L 16,19  Z  " style="fill:rgb(0, 0, 0); fill-opacity:0.251; stroke:none;" />
 <path d="  M 34,19  L 35,19  L 35,18  L 34,18  Z  " style="fill:rgb(0, 0, 0); fill-opacity:0.251; stroke:none;" />
 <path d="  M 15,20  L 15,21  L 16,21  L 16,20  Z  " style="fill:rgb(0, 0, 0); fill-opacity:0.333; stroke:none;" />
 <path d="  M 34,20  L 34,21  L 35,21  L 35,20  Z  " style="fill:rgb(0, 0, 0); fill-opacity:0.333; stroke:none;" />
 <path d="  M 16,39  L 15,39  L 15,40  L 16,40  Z  " style="fill:rgb(0, 0, 0); fill-opacity:0.878; stroke:none;" />
 <path d="  M 24,36  L 23,36  L 23,37  L 24,37  Z  " style="fill:rgb(0, 0, 0); fill-opacity:0.878; stroke:none;" />
 <path d="  M 27,36  L 26,36  L 26,37  L 27,37  Z  " style="fill:rgb(0, 0, 0); fill-opacity:0.878; stroke:none;" />
 <path d="  M 34,40  L 35,40  L 35,39  L 34,39  Z  " style="fill:rgb(0, 0, 0); fill-opacity:0.878; stroke:none;" />
 <path d="  M 16,44  L 16,43  L 15,43  L 15,44  Z  " style="fill:rgb(0, 0, 0); fill-opacity:0.678; stroke:none;" />
 <path d="  M 24,18  L 24,19  L 25,19  L 25,18  Z  " style="fill:rgb(0, 0, 0); fill-opacity:0.678; stroke:none;" />
 <path d="  M 35,43  L 34,43  L 34,44  L 35,44  Z  " style="fill:rgb(0, 0, 0); fill-opacity:0.678; stroke:none;" />
 <path d="  M 17,19  L 17,18  L 16,18  L 16,19  Z  " style="fill:rgb(0, 0, 0); fill-opacity:0.082; stroke:none;" />
 <path d="  M 26,12  L 26,11  L 24,11  L 24,12  Z  " style="fill:rgb(0, 0, 0); fill-opacity:0.082; stroke:none;" />
 <path d="  M 33,18  L 33,19  L 34,19  L 34,18  Z  " style="fill:rgb(0, 0, 0); fill-opacity:0.082; stroke:none;" />
 <path d="  M 16,20  L 16,21  L 17,21  L 17,20  Z  " style="fill:rgb(0, 0, 0); fill-opacity:0.490; stroke:none;" />
 <path d="  M 28,34  L 28,33  L 27,33  L 27,34  Z  " style="fill:rgb(0, 0, 0); fill-opacity:0.490; stroke:none;" />
 <path d="  M 34,20  L 33,20  L 33,21  L 34,21  Z  " style="fill:rgb(0, 0, 0); fill-opacity:0.490; stroke:none;" />
 <path d="  M 17,38  L 16,38  L 16,39  L 17,39  Z  " style="fill:rgb(0, 0, 0); fill-opacity:0.067; stroke:none;" />
 <path d="  M 25,34  L 25,33  L 24,33  L 24,34  Z  " style="fill:rgb(0, 0, 0); fill-opacity:0.067; stroke:none;" />
 <path d="  M 17,40  L 16,40  L 16,41  L 17,41  Z  " style="fill:rgb(0, 0, 0); fill-opacity:0.675; stroke:none;" />
 <path d="  M 25,18  L 25,19  L 26,19  L 26,18  Z  " style="fill:rgb(0, 0, 0); fill-opacity:0.675; stroke:none;" />
 <path d="  M 34,41  L 34,40  L 33,40  L 33,41  Z  " style="fill:rgb(0, 0, 0); fill-opacity:0.675; stroke:none;" />
 <path d="  M 16,41  L 16,42  L 17,42  L 17,41  Z  " style="fill:rgb(0, 0, 0); fill-opacity:0.408; stroke:none;" />
 <path d="  M 33,41  L 33,42  L 34,42  L 34,41  Z  " style="fill:rgb(0, 0, 0); fill-opacity:0.408; stroke:none;" />
 <path d="  M 17,42  L 16,42  L 16,43  L 17,43  Z  " style="fill:rgb(0, 0, 0); fill-opacity:0.835; stroke:none;" />
 <path d="  M 34,44  L 34,42  L 33,42  L 33,44  Z  " style="fill:rgb(0, 0, 0); fill-opacity:0.835; stroke:none;" />
 <path d="  M 17,44  L 17,43  L 16,43  L 16,44  Z  " style="fill:rgb(0, 0, 0); fill-opacity:0.831; stroke:none;" />
 <path d="  M 18,20  L 18,19  L 17,19  L 17,20  Z  " style="fill:rgb(0, 0, 0); fill-opacity:0.929; stroke:none;" />
 <path d="  M 32,19  L 32,20  L 33,20  L 33,19  Z  " style="fill:rgb(0, 0, 0); fill-opacity:0.929; stroke:none;" />
 <path d="  M 17,20  L 17,21  L 18,21  L 18,20  Z  " style="fill:rgb(0, 0, 0); fill-opacity:0.655; stroke:none;" />
 <path d="  M 33,20  L 32,20  L 32,21  L 33,21  Z  " style="fill:rgb(0, 0, 0); fill-opacity:0.655; stroke:none;" />
 <path d="  M 17,38  L 17,39  L 18,39  L 18,38  Z  " style="fill:rgb(0, 0, 0); fill-opacity:0.235; stroke:none;" />
 <path d="  M 17,40  L 17,41  L 18,41  L 18,40  Z  " style="fill:rgb(0, 0, 0); fill-opacity:0.325; stroke:none;" />
 <path d="  M 23,39  L 23,40  L 24,40  L 24,39  Z  " style="fill:rgb(0, 0, 0); fill-opacity:0.325; stroke:none;" />
 <path d="  M 27,40  L 27,39  L 26,39  L 26,40  Z  " style="fill:rgb(0, 0, 0); fill-opacity:0.325; stroke:none;" />
 <path d="  M 33,40  L 32,40  L 32,41  L 33,41  Z  " style="fill:rgb(0, 0, 0); fill-opacity:0.325; stroke:none;" />
 <path d="  M 17,42  L 17,43  L 18,43  L 18,42  Z  " style="fill:rgb(0, 0, 0); fill-opacity:0.643; stroke:none;" />
 <path d="  M 32,42  L 32,43  L 33,43  L 33,42  Z  " style="fill:rgb(0, 0, 0); fill-opacity:0.643; stroke:none;" />
 <path d="  M 18,43  L 17,43  L 17,44  L 18,44  Z  " style="fill:rgb(0, 0, 0); fill-opacity:0.918; stroke:none;" />
 <path d="  M 23,25  L 22,25  L 22,26  L 23,26  Z  " style="fill:rgb(0, 0, 0); fill-opacity:0.918; stroke:none;" />
 <path d="  M 26,31  L 27,31  L 27,30  L 26,30  Z  " style="fill:rgb(0, 0, 0); fill-opacity:0.918; stroke:none;" />
 <path d="  M 18,20  L 19,20  L 19,19  L 18,19  Z  " style="fill:rgb(0, 0, 0); fill-opacity:0.769; stroke:none;" />
 <path d="  M 23,29  L 23,28  L 22,28  L 22,29  Z  " style="fill:rgb(0, 0, 0); fill-opacity:0.769; stroke:none;" />
 <path d="  M 19,38  L 18,38  L 18,39  L 19,39  Z  " style="fill:rgb(0, 0, 0); fill-opacity:0.400; stroke:none;" />
 <path d="  M 19,41  L 19,40  L 18,40  L 18,41  Z  " style="fill:rgb(0, 0, 0); fill-opacity:0.153; stroke:none;" />
 <path d="  M 31,40  L 31,41  L 32,41  L 32,40  Z  " style="fill:rgb(0, 0, 0); fill-opacity:0.153; stroke:none;" />
 <path d="  M 19,42  L 18,42  L 18,43  L 19,43  Z  " style="fill:rgb(0, 0, 0); fill-opacity:0.557; stroke:none;" />
 <path d="  M 26,24  L 27,24  L 27,23  L 26,23  Z  " style="fill:rgb(0, 0, 0); fill-opacity:0.557; stroke:none;" />
 <path d="  M 31,42  L 31,43  L 32,43  L 32,42  Z  " style="fill:rgb(0, 0, 0); fill-opacity:0.557; stroke:none;" />
 <path d="  M 19,45  L 19,44  L 18,44  L 18,45  Z  " style="fill:rgb(0, 0, 0); fill-opacity:0.020; stroke:none;" />
 <path d="  M 21,9  L 22,9  L 22,8  L 21,8  Z  " style="fill:rgb(0, 0, 0); fill-opacity:0.020; stroke:none;" />
 <path d="  M 28,9  L 29,9  L 29,8  L 28,8  Z  " style="fill:rgb(0, 0, 0); fill-opacity:0.020; stroke:none;" />
 <path d="  M 20,19  L 19,19  L 19,20  L 20,20  Z  " style="fill:rgb(0, 0, 0); fill-opacity:0.608; stroke:none;" />
 <path d="  M 21,13  L 20,13  L 20,14  L 21,14  Z  " style="fill:rgb(0, 0, 0); fill-opacity:0.608; stroke:none;" />
 <path d="  M 23,32  L 23,31  L 22,31  L 22,32  Z  " style="fill:rgb(0, 0, 0); fill-opacity:0.608; stroke:none;" />
 <path d="  M 26,25  L 27,25  L 27,24  L 26,24  Z  " style="fill:rgb(0, 0, 0); fill-opacity:0.608; stroke:none;" />
 <path d="  M 29,13  L 29,14  L 30,14  L 30,13  Z  " style="fill:rgb(0, 0, 0); fill-opacity:0.608; stroke:none;" />
 <path d="  M 19,21  L 20,21  L 20,20  L 19,20  Z  " style="fill:rgb(0, 0, 0); fill-opacity:0.965; stroke:none;" />
 <path d="  M 22,24  L 22,25  L 23,25  L 23,24  Z  " style="fill:rgb(0, 0, 0); fill-opacity:0.965; stroke:none;" />
 <path d="  M 30,21  L 31,21  L 31,20  L 30,20  Z  " style="fill:rgb(0, 0, 0); fill-opacity:0.965; stroke:none;" />
 <path d="  M 19,21  L 19,22  L 20,22  L 20,21  Z  " style="fill:rgb(0, 0, 0); fill-opacity:0.008; stroke:none;" />
 <path d="  M 30,22  L 31,22  L 31,21  L 30,21  Z  " style="fill:rgb(0, 0, 0); fill-opacity:0.008; stroke:none;" />
 <path d="  M 20,40  L 20,39  L 19,39  L 19,40  Z  " style="fill:rgb(0, 0, 0); fill-opacity:0.976; stroke:none;" />
 <path d="  M 30,39  L 30,40  L 31,40  L 31,39  Z  " style="fill:rgb(0, 0, 0); fill-opacity:0.976; stroke:none;" />
 <path d="  M 19,41  L 20,41  L 20,40  L 19,40  Z  " style="fill:rgb(0, 0, 0); fill-opacity:0.016; stroke:none;" />
 <path d="  M 25,33  L 25,32  L 24,32  L 24,33  Z  " style="fill:rgb(0, 0, 0); fill-opacity:0.016; stroke:none;" />
 <path d="  M 31,41  L 31,40  L 30,40  L 30,41  Z  " style="fill:rgb(0, 0, 0); fill-opacity:0.016; stroke:none;" />
 <path d="  M 20,42  L 19,42  L 19,43  L 20,43  Z  " style="fill:rgb(0, 0, 0); fill-opacity:0.463; stroke:none;" />
 <path d="  M 23,13  L 24,13  L 24,12  L 23,12  Z  " style="fill:rgb(0, 0, 0); fill-opacity:0.463; stroke:none;" />
 <path d="  M 25,5  L 25,6  L 26,6  L 26,5  Z  " style="fill:rgb(0, 0, 0); fill-opacity:0.463; stroke:none;" />
 <path d="  M 27,12  L 26,12  L 26,13  L 27,13  Z  " style="fill:rgb(0, 0, 0); fill-opacity:0.463; stroke:none;" />
 <path d="  M 31,42  L 30,42  L 30,43  L 31,43  Z  " style="fill:rgb(0, 0, 0); fill-opacity:0.463; stroke:none;" />
 <path d="  M 19,45  L 20,45  L 20,44  L 19,44  Z  " style="fill:rgb(0, 0, 0); fill-opacity:0.102; stroke:none;" />
 <path d="  M 24,43  L 24,42  L 23,42  L 23,43  Z  " style="fill:rgb(0, 0, 0); fill-opacity:0.102; stroke:none;" />
 <path d="  M 26,37  L 26,36  L 24,36  L 24,37  Z  " style="fill:rgb(0, 0, 0); fill-opacity:0.102; stroke:none;" />
 <path d="  M 27,43  L 27,42  L 26,42  L 26,43  Z  " style="fill:rgb(0, 0, 0); fill-opacity:0.102; stroke:none;" />
 <path d="  M 21,20  L 20,20  L 20,21  L 21,21  Z  " style="fill:rgb(0, 0, 0); fill-opacity:0.937; stroke:none;" />
 <path d="  M 27,7  L 26,7  L 26,8  L 27,8  Z  " style="fill:rgb(0, 0, 0); fill-opacity:0.937; stroke:none;" />
 <path d="  M 28,38  L 28,39  L 29,39  L 29,38  Z  " style="fill:rgb(0, 0, 0); fill-opacity:0.937; stroke:none;" />
 <path d="  M 29,21  L 30,21  L 30,20  L 29,20  Z  " style="fill:rgb(0, 0, 0); fill-opacity:0.937; stroke:none;" />
 <path d="  M 20,21  L 20,22  L 21,22  L 21,21  Z  " style="fill:rgb(0, 0, 0); fill-opacity:0.031; stroke:none;" />
 <path d="  M 26,17  L 26,16  L 24,16  L 24,17  Z  " style="fill:rgb(0, 0, 0); fill-opacity:0.031; stroke:none;" />
 <path d="  M 29,21  L 29,22  L 30,22  L 30,21  Z  " style="fill:rgb(0, 0, 0); fill-opacity:0.031; stroke:none;" />
 <path d="  M 21,40  L 21,39  L 20,39  L 20,40  Z  " style="fill:rgb(0, 0, 0); fill-opacity:0.820; stroke:none;" />
 <path d="  M 23,27  L 22,27  L 22,28  L 23,28  Z  " style="fill:rgb(0, 0, 0); fill-opacity:0.820; stroke:none;" />
 <path d="  M 29,40  L 30,40  L 30,39  L 29,39  Z  " style="fill:rgb(0, 0, 0); fill-opacity:0.820; stroke:none;" />
 <path d="  M 20,44  L 20,45  L 21,45  L 21,44  Z  " style="fill:rgb(0, 0, 0); fill-opacity:0.196; stroke:none;" />
 <path d="  M 21,9  L 21,10  L 22,10  L 22,9  Z  " style="fill:rgb(0, 0, 0); fill-opacity:0.114; stroke:none;" />
 <path d="  M 28,10  L 29,10  L 29,9  L 28,9  Z  " style="fill:rgb(0, 0, 0); fill-opacity:0.114; stroke:none;" />
 <path d="  M 21,13  L 22,13  L 22,10  L 21,10  Z  " style="fill:rgb(0, 0, 0); fill-opacity:0.125; stroke:none;" />
 <path d="  M 21,20  L 22,20  L 22,15  L 21,15  Z  " style="fill:rgb(0, 0, 0); fill-opacity:0.125; stroke:none;" />
 <path d="  M 24,5  L 23,5  L 23,6  L 24,6  Z  " style="fill:rgb(0, 0, 0); fill-opacity:0.125; stroke:none;" />
 <path d="  M 24,35  L 25,35  L 25,34  L 24,34  Z  " style="fill:rgb(0, 0, 0); fill-opacity:0.125; stroke:none;" />
 <path d="  M 29,10  L 28,10  L 28,13  L 29,13  Z  " style="fill:rgb(0, 0, 0); fill-opacity:0.125; stroke:none;" />
 <path d="  M 29,15  L 28,15  L 28,20  L 29,20  Z  " style="fill:rgb(0, 0, 0); fill-opacity:0.125; stroke:none;" />
 <path d="  M 21,14  L 22,14  L 22,13  L 21,13  Z  " style="fill:rgb(0, 0, 0); fill-opacity:0.129; stroke:none;" />
 <path d="  M 26,35  L 26,34  L 25,34  L 25,35  Z  " style="fill:rgb(0, 0, 0); fill-opacity:0.129; stroke:none;" />
 <path d="  M 28,14  L 29,14  L 29,13  L 28,13  Z  " style="fill:rgb(0, 0, 0); fill-opacity:0.129; stroke:none;" />
 <path d="  M 22,14  L 21,14  L 21,15  L 22,15  Z  " style="fill:rgb(0, 0, 0); fill-opacity:0.141; stroke:none;" />
 <path d="  M 28,14  L 28,15  L 29,15  L 29,14  Z  " style="fill:rgb(0, 0, 0); fill-opacity:0.141; stroke:none;" />
 <path d="  M 21,20  L 21,21  L 22,21  L 22,20  Z  " style="fill:rgb(0, 0, 0); fill-opacity:0.145; stroke:none;" />
 <path d="  M 29,21  L 29,20  L 28,20  L 28,21  Z  " style="fill:rgb(0, 0, 0); fill-opacity:0.145; stroke:none;" />
 <path d="  M 22,21  L 21,21  L 21,22  L 22,22  Z  " style="fill:rgb(0, 0, 0); fill-opacity:0.106; stroke:none;" />
 <path d="  M 28,21  L 28,22  L 29,22  L 29,21  Z  " style="fill:rgb(0, 0, 0); fill-opacity:0.106; stroke:none;" />
 <path d="  M 31,44  L 30,44  L 30,45  L 31,45  Z  " style="fill:rgb(0, 0, 0); fill-opacity:0.106; stroke:none;" />
 <path d="  M 22,23  L 21,23  L 21,24  L 22,24  Z  " style="fill:rgb(0, 0, 0); fill-opacity:0.012; stroke:none;" />
 <path d="  M 28,23  L 28,24  L 29,24  L 29,23  Z  " style="fill:rgb(0, 0, 0); fill-opacity:0.012; stroke:none;" />
 <path d="  M 22,39  L 22,38  L 21,38  L 21,39  Z  " style="fill:rgb(0, 0, 0); fill-opacity:0.906; stroke:none;" />
 <path d="  M 22,39  L 21,39  L 21,40  L 22,40  Z  " style="fill:rgb(0, 0, 0); fill-opacity:0.659; stroke:none;" />
 <path d="  M 26,26  L 27,26  L 27,25  L 26,25  Z  " style="fill:rgb(0, 0, 0); fill-opacity:0.659; stroke:none;" />
 <path d="  M 28,39  L 28,40  L 29,40  L 29,39  Z  " style="fill:rgb(0, 0, 0); fill-opacity:0.659; stroke:none;" />
 <path d="  M 21,43  L 22,43  L 22,42  L 21,42  Z  " style="fill:rgb(0, 0, 0); fill-opacity:0.286; stroke:none;" />
 <path d="  M 29,43  L 29,42  L 28,42  L 28,43  Z  " style="fill:rgb(0, 0, 0); fill-opacity:0.286; stroke:none;" />
 <path d="  M 22,44  L 21,44  L 21,45  L 22,45  Z  " style="fill:rgb(0, 0, 0); fill-opacity:0.290; stroke:none;" />
 <path d="  M 23,7  L 23,6  L 22,6  L 22,7  Z  " style="fill:rgb(0, 0, 0); fill-opacity:0.192; stroke:none;" />
 <path d="  M 23,7  L 22,7  L 22,8  L 23,8  Z  " style="fill:rgb(0, 0, 0); fill-opacity:0.722; stroke:none;" />
 <path d="  M 23,30  L 23,29  L 22,29  L 22,30  Z  " style="fill:rgb(0, 0, 0); fill-opacity:0.718; stroke:none;" />
 <path d="  M 23,30  L 22,30  L 22,31  L 23,31  Z  " style="fill:rgb(0, 0, 0); fill-opacity:0.663; stroke:none;" />
 <path d="  M 23,32  L 22,32  L 22,33  L 23,33  Z  " style="fill:rgb(0, 0, 0); fill-opacity:0.553; stroke:none;" />
 <path d="  M 26,9  L 24,9  L 24,10  L 26,10  Z  " style="fill:rgb(0, 0, 0); fill-opacity:0.553; stroke:none;" />
 <path d="  M 22,33  L 22,34  L 23,34  L 23,33  Z  " style="fill:rgb(0, 0, 0); fill-opacity:0.498; stroke:none;" />
 <path d="  M 22,35  L 23,35  L 23,34  L 22,34  Z  " style="fill:rgb(0, 0, 0); fill-opacity:0.443; stroke:none;" />
 <path d="  M 23,35  L 22,35  L 22,36  L 23,36  Z  " style="fill:rgb(0, 0, 0); fill-opacity:0.388; stroke:none;" />
 <path d="  M 25,45  L 26,45  L 26,44  L 25,44  Z  " style="fill:rgb(0, 0, 0); fill-opacity:0.388; stroke:none;" />
 <path d="  M 22,39  L 22,40  L 23,40  L 23,39  Z  " style="fill:rgb(0, 0, 0); fill-opacity:0.486; stroke:none;" />
 <path d="  M 28,39  L 27,39  L 27,40  L 28,40  Z  " style="fill:rgb(0, 0, 0); fill-opacity:0.486; stroke:none;" />
 <path d="  M 23,42  L 22,42  L 22,43  L 23,43  Z  " style="fill:rgb(0, 0, 0); fill-opacity:0.188; stroke:none;" />
 <path d="  M 28,42  L 27,42  L 27,43  L 28,43  Z  " style="fill:rgb(0, 0, 0); fill-opacity:0.188; stroke:none;" />
 <path d="  M 22,44  L 22,45  L 23,45  L 23,44  Z  " style="fill:rgb(0, 0, 0); fill-opacity:0.376; stroke:none;" />
 <path d="  M 28,44  L 27,44  L 27,45  L 28,45  Z  " style="fill:rgb(0, 0, 0); fill-opacity:0.376; stroke:none;" />
 <path d="  M 23,7  L 24,7  L 24,6  L 23,6  Z  " style="fill:rgb(0, 0, 0); fill-opacity:0.953; stroke:none;" />
 <path d="  M 23,8  L 24,8  L 24,7  L 23,7  Z  " style="fill:rgb(0, 0, 0); fill-opacity:0.933; stroke:none;" />
 <path d="  M 23,9  L 23,10  L 24,10  L 24,9  Z  " style="fill:rgb(0, 0, 0); fill-opacity:0.620; stroke:none;" />
 <path d="  M 27,10  L 27,9  L 26,9  L 26,10  Z  " style="fill:rgb(0, 0, 0); fill-opacity:0.620; stroke:none;" />
 <path d="  M 23,11  L 23,12  L 24,12  L 24,11  Z  " style="fill:rgb(0, 0, 0); fill-opacity:0.808; stroke:none;" />
 <path d="  M 26,29  L 27,29  L 27,28  L 26,28  Z  " style="fill:rgb(0, 0, 0); fill-opacity:0.808; stroke:none;" />
 <path d="  M 27,27  L 27,28  L 28,28  L 28,27  Z  " style="fill:rgb(0, 0, 0); fill-opacity:0.808; stroke:none;" />
 <path d="  M 49,18  L 50,18  L 50,17  L 49,17  Z  " style="fill:rgb(0, 0, 0); fill-opacity:0.808; stroke:none;" />
 <path d="  M 23,15  L 24,15  L 24,13  L 23,13  Z  " style="fill:rgb(0, 0, 0); fill-opacity:0.439; stroke:none;" />
 <path d="  M 23,19  L 23,21  L 24,21  L 24,19  Z  " style="fill:rgb(0, 0, 0); fill-opacity:0.439; stroke:none;" />
 <path d="  M 27,15  L 27,13  L 26,13  L 26,15  Z  " style="fill:rgb(0, 0, 0); fill-opacity:0.439; stroke:none;" />
 <path d="  M 27,21  L 27,19  L 26,19  L 26,21  Z  " style="fill:rgb(0, 0, 0); fill-opacity:0.439; stroke:none;" />
 <path d="  M 24,16  L 24,15  L 23,15  L 23,16  Z  " style="fill:rgb(0, 0, 0); fill-opacity:0.451; stroke:none;" />
 <path d="  M 27,15  L 26,15  L 26,16  L 27,16  Z  " style="fill:rgb(0, 0, 0); fill-opacity:0.451; stroke:none;" />
 <path d="  M 23,16  L 23,17  L 24,17  L 24,16  Z  " style="fill:rgb(0, 0, 0); fill-opacity:0.753; stroke:none;" />
 <path d="  M 24,21  L 23,21  L 23,22  L 24,22  Z  " style="fill:rgb(0, 0, 0); fill-opacity:0.459; stroke:none;" />
 <path d="  M 27,22  L 27,21  L 26,21  L 26,22  Z  " style="fill:rgb(0, 0, 0); fill-opacity:0.459; stroke:none;" />
 <path d="  M 23,22  L 23,23  L 24,23  L 24,22  Z  " style="fill:rgb(0, 0, 0); fill-opacity:0.502; stroke:none;" />
 <path d="  M 23,23  L 23,24  L 24,24  L 24,23  Z  " style="fill:rgb(0, 0, 0); fill-opacity:0.549; stroke:none;" />
 <path d="  M 23,24  L 23,25  L 24,25  L 24,24  Z  " style="fill:rgb(0, 0, 0); fill-opacity:0.600; stroke:none;" />
 <path d="  M 24,26  L 24,25  L 23,25  L 23,26  Z  " style="fill:rgb(0, 0, 0); fill-opacity:0.647; stroke:none;" />
 <path d="  M 23,26  L 23,27  L 24,27  L 24,26  Z  " style="fill:rgb(0, 0, 0); fill-opacity:0.694; stroke:none;" />
 <path d="  M 23,28  L 24,28  L 24,27  L 23,27  Z  " style="fill:rgb(0, 0, 0); fill-opacity:0.741; stroke:none;" />
 <path d="  M 23,29  L 24,29  L 24,28  L 23,28  Z  " style="fill:rgb(0, 0, 0); fill-opacity:0.792; stroke:none;" />
 <path d="  M 23,29  L 23,30  L 24,30  L 24,29  Z  " style="fill:rgb(0, 0, 0); fill-opacity:0.843; stroke:none;" />
 <path d="  M 23,31  L 24,31  L 24,30  L 23,30  Z  " style="fill:rgb(0, 0, 0); fill-opacity:0.902; stroke:none;" />
 <path d="  M 23,31  L 23,32  L 24,32  L 24,31  Z  " style="fill:rgb(0, 0, 0); fill-opacity:0.957; stroke:none;" />
 <path d="  M 28,25  L 28,24  L 27,24  L 27,25  Z  " style="fill:rgb(0, 0, 0); fill-opacity:0.957; stroke:none;" />
 <path d="  M 24,38  L 24,37  L 23,37  L 23,38  Z  " style="fill:rgb(0, 0, 0); fill-opacity:0.263; stroke:none;" />
 <path d="  M 27,38  L 27,37  L 26,37  L 26,38  Z  " style="fill:rgb(0, 0, 0); fill-opacity:0.263; stroke:none;" />
 <path d="  M 24,44  L 23,44  L 23,45  L 24,45  Z  " style="fill:rgb(0, 0, 0); fill-opacity:0.471; stroke:none;" />
 <path d="  M 25,6  L 25,5  L 24,5  L 24,6  Z  " style="fill:rgb(0, 0, 0); fill-opacity:0.467; stroke:none;" />
 <path d="  M 32,39  L 32,38  L 31,38  L 31,39  Z  " style="fill:rgb(0, 0, 0); fill-opacity:0.467; stroke:none;" />
 <path d="  M 25,8  L 25,7  L 24,7  L 24,8  Z  " style="fill:rgb(0, 0, 0); fill-opacity:0.220; stroke:none;" />
 <path d="  M 25,11  L 25,10  L 24,10  L 24,11  Z  " style="fill:rgb(0, 0, 0); fill-opacity:0.988; stroke:none;" />
 <path d="  M 24,18  L 26,18  L 26,17  L 24,17  Z  " style="fill:rgb(0, 0, 0); fill-opacity:0.922; stroke:none;" />
 <path d="  M 24,35  L 24,36  L 25,36  L 25,35  Z  " style="fill:rgb(0, 0, 0); fill-opacity:0.180; stroke:none;" />
 <path d="  M 24,37  L 24,38  L 26,38  L 26,37  Z  " style="fill:rgb(0, 0, 0); fill-opacity:0.420; stroke:none;" />
 <path d="  M 26,7  L 25,7  L 25,8  L 26,8  Z  " style="fill:rgb(0, 0, 0); fill-opacity:0.224; stroke:none;" />
 <path d="  M 25,10  L 25,11  L 26,11  L 26,10  Z  " style="fill:rgb(0, 0, 0); fill-opacity:0.992; stroke:none;" />
 <path d="  M 25,34  L 26,34  L 26,33  L 25,33  Z  " style="fill:rgb(0, 0, 0); fill-opacity:0.078; stroke:none;" />
 <path d="  M 26,36  L 26,35  L 25,35  L 25,36  Z  " style="fill:rgb(0, 0, 0); fill-opacity:0.184; stroke:none;" />
 <path d="  M 27,7  L 28,7  L 28,6  L 27,6  Z  " style="fill:rgb(0, 0, 0); fill-opacity:0.184; stroke:none;" />
 <path d="  M 27,5  L 26,5  L 26,6  L 27,6  Z  " style="fill:rgb(0, 0, 0); fill-opacity:0.122; stroke:none;" />
 <path d="  M 26,6  L 26,7  L 27,7  L 27,6  Z  " style="fill:rgb(0, 0, 0); fill-opacity:0.949; stroke:none;" />
 <path d="  M 26,8  L 26,9  L 27,9  L 27,8  Z  " style="fill:rgb(0, 0, 0); fill-opacity:0.576; stroke:none;" />
 <path d="  M 27,23  L 27,22  L 26,22  L 26,23  Z  " style="fill:rgb(0, 0, 0); fill-opacity:0.510; stroke:none;" />
 <path d="  M 27,27  L 27,26  L 26,26  L 26,27  Z  " style="fill:rgb(0, 0, 0); fill-opacity:0.710; stroke:none;" />
 <path d="  M 27,29  L 26,29  L 26,30  L 27,30  Z  " style="fill:rgb(0, 0, 0); fill-opacity:0.863; stroke:none;" />
 <path d="  M 27,31  L 26,31  L 26,32  L 27,32  Z  " style="fill:rgb(0, 0, 0); fill-opacity:0.969; stroke:none;" />
 <path d="  M 26,44  L 26,45  L 27,45  L 27,44  Z  " style="fill:rgb(0, 0, 0); fill-opacity:0.475; stroke:none;" />
 <path d="  M 27,7  L 27,8  L 28,8  L 28,7  Z  " style="fill:rgb(0, 0, 0); fill-opacity:0.714; stroke:none;" />
 <path d="  M 27,24  L 28,24  L 28,23  L 27,23  Z  " style="fill:rgb(0, 0, 0); fill-opacity:0.996; stroke:none;" />
 <path d="  M 27,26  L 28,26  L 28,25  L 27,25  Z  " style="fill:rgb(0, 0, 0); fill-opacity:0.910; stroke:none;" />
 <path d="  M 27,27  L 28,27  L 28,26  L 27,26  Z  " style="fill:rgb(0, 0, 0); fill-opacity:0.859; stroke:none;" />
 <path d="  M 27,29  L 28,29  L 28,28  L 27,28  Z  " style="fill:rgb(0, 0, 0); fill-opacity:0.761; stroke:none;" />
 <path d="  M 27,29  L 27,30  L 28,30  L 28,29  Z  " style="fill:rgb(0, 0, 0); fill-opacity:0.706; stroke:none;" />
 <path d="  M 27,31  L 28,31  L 28,30  L 27,30  Z  " style="fill:rgb(0, 0, 0); fill-opacity:0.651; stroke:none;" />
 <path d="  M 27,32  L 28,32  L 28,31  L 27,31  Z  " style="fill:rgb(0, 0, 0); fill-opacity:0.596; stroke:none;" />
 <path d="  M 27,32  L 27,33  L 28,33  L 28,32  Z  " style="fill:rgb(0, 0, 0); fill-opacity:0.541; stroke:none;" />
 <path d="  M 28,34  L 27,34  L 27,35  L 28,35  Z  " style="fill:rgb(0, 0, 0); fill-opacity:0.435; stroke:none;" />
 <path d="  M 28,35  L 27,35  L 27,36  L 28,36  Z  " style="fill:rgb(0, 0, 0); fill-opacity:0.384; stroke:none;" />
 <path d="  M 28,45  L 29,45  L 29,44  L 28,44  Z  " style="fill:rgb(0, 0, 0); fill-opacity:0.294; stroke:none;" />
 <path d="  M 29,38  L 29,39  L 30,39  L 30,38  Z  " style="fill:rgb(0, 0, 0); fill-opacity:0.800; stroke:none;" />
 <path d="  M 29,45  L 30,45  L 30,44  L 29,44  Z  " style="fill:rgb(0, 0, 0); fill-opacity:0.200; stroke:none;" />
 <path d="  M 30,19  L 30,20  L 31,20  L 31,19  Z  " style="fill:rgb(0, 0, 0); fill-opacity:0.604; stroke:none;" />
 <path d="  M 31,38  L 30,38  L 30,39  L 31,39  Z  " style="fill:rgb(0, 0, 0); fill-opacity:0.635; stroke:none;" />
 <path d="  M 32,19  L 31,19  L 31,20  L 32,20  Z  " style="fill:rgb(0, 0, 0); fill-opacity:0.765; stroke:none;" />
 <path d="  M 33,39  L 33,38  L 32,38  L 32,39  Z  " style="fill:rgb(0, 0, 0); fill-opacity:0.302; stroke:none;" />
 <path d="  M 33,44  L 33,43  L 32,43  L 32,44  Z  " style="fill:rgb(0, 0, 0); fill-opacity:0.925; stroke:none;" />
 <path d="  M 33,38  L 33,39  L 34,39  L 34,38  Z  " style="fill:rgb(0, 0, 0); fill-opacity:0.133; stroke:none;" />
 <path d="  M 37,18  L 36,18  L 36,19  L 37,19  Z  " style="fill:rgb(0, 0, 0); fill-opacity:0.565; stroke:none;" />
 <path d="  M 41,18  L 42,18  L 42,17  L 41,17  Z  " style="fill:rgb(0, 0, 0); fill-opacity:0.365; stroke:none;" />
 <path d="  M 47,16  L 46,16  L 46,17  L 47,17  Z  " style="fill:rgb(0, 0, 0); fill-opacity:0.165; stroke:none;" />
</svg>

