<?xml version="1.0" encoding="UTF-8" standalone="no"?>
<!DOCTYPE svg PUBLIC "-//W3C//DTD SVG 1.1//EN" 
  "http://www.w3.org/Graphics/SVG/1.1/DTD/svg11.dtd">
<svg width="50" height="50"
     xmlns="http://www.w3.org/2000/svg" version="1.1">
 <path d="  M 0,0  L 0,50  L 50,50  L 50,0  Z  M 23,8  L 18,8  L 18,5  L 32,5  L 32,8  L 27,8  L 27,10  L 29,10  L 29,11  L 30,11  L 30,18  L 31,18  L 31,19  L 36,19  L 36,20  L 42,20  L 42,21  L 45,21  L 45,29  L 44,29  L 44,30  L 30,30  L 30,35  L 29,35  L 29,37  L 31,37  L 31,38  L 33,38  L 33,39  L 35,39  L 35,45  L 15,45  L 15,39  L 17,39  L 17,38  L 19,38  L 19,37  L 21,37  L 21,35  L 20,35  L 20,30  L 6,30  L 6,29  L 5,29  L 5,21  L 9,21  L 9,20  L 14,20  L 14,19  L 19,19  L 19,18  L 20,18  L 20,11  L 21,11  L 21,10  L 23,10  Z  " style="fill:rgb(0, 0, 0); fill-opacity:0.000; stroke:none;" />
 <path d="  M 26,19  L 24,19  L 24,26  L 26,26  Z  " style="fill:rgb(0, 0, 0); fill-opacity:0.000; stroke:none;" />
 <path d="  M 6,22  L 6,21  L 5,21  L 5,22  Z  " style="fill:rgb(0, 0, 0); fill-opacity:0.086; stroke:none;" />
 <path d="  M 45,22  L 45,21  L 44,21  L 44,22  Z  " style="fill:rgb(0, 0, 0); fill-opacity:0.086; stroke:none;" />
 <path d="  M 5,23  L 6,23  L 6,22  L 5,22  Z  " style="fill:rgb(0, 0, 0); fill-opacity:0.753; stroke:none;" />
 <path d="  M 5,24  L 6,24  L 6,23  L 5,23  Z  " style="fill:rgb(0, 0, 0); fill-opacity:0.988; stroke:none;" />
 <path d="  M 6,27  L 6,26  L 5,26  L 5,27  Z  " style="fill:rgb(0, 0, 0); fill-opacity:0.988; stroke:none;" />
 <path d="  M 9,29  L 8,29  L 8,30  L 9,30  Z  " style="fill:rgb(0, 0, 0); fill-opacity:0.988; stroke:none;" />
 <path d="  M 21,13  L 20,13  L 20,14  L 21,14  Z  " style="fill:rgb(0, 0, 0); fill-opacity:0.988; stroke:none;" />
 <path d="  M 24,11  L 24,10  L 23,10  L 23,11  Z  " style="fill:rgb(0, 0, 0); fill-opacity:0.988; stroke:none;" />
 <path d="  M 26,11  L 27,11  L 27,10  L 26,10  Z  " style="fill:rgb(0, 0, 0); fill-opacity:0.988; stroke:none;" />
 <path d="  M 29,13  L 29,14  L 30,14  L 30,13  Z  " style="fill:rgb(0, 0, 0); fill-opacity:0.988; stroke:none;" />
 <path d="  M 42,30  L 42,29  L 41,29  L 41,30  Z  " style="fill:rgb(0, 0, 0); fill-opacity:0.988; stroke:none;" />
 <path d="  M 45,24  L 45,23  L 44,23  L 44,24  Z  " style="fill:rgb(0, 0, 0); fill-opacity:0.988; stroke:none;" />
 <path d="  M 45,27  L 45,26  L 44,26  L 44,27  Z  " style="fill:rgb(0, 0, 0); fill-opacity:0.988; stroke:none;" />
 <path d="  M 35,42  L 34,42  L 34,40  L 33,40  L 33,39  L 31,39  L 31,38  L 29,38  L 29,37  L 28,37  L 28,34  L 29,34  L 29,30  L 41,30  L 41,29  L 44,29  L 44,26  L 45,26  L 45,24  L 44,24  L 44,22  L 41,22  L 41,21  L 36,21  L 36,20  L 30,20  L 30,14  L 29,14  L 29,11  L 26,11  L 26,7  L 31,7  L 31,5  L 19,5  L 19,7  L 24,7  L 24,11  L 21,11  L 21,14  L 20,14  L 20,20  L 15,20  L 15,21  L 9,21  L 9,22  L 6,22  L 6,24  L 5,24  L 5,26  L 6,26  L 6,29  L 9,29  L 9,30  L 21,30  L 21,34  L 22,34  L 22,37  L 21,37  L 21,38  L 19,38  L 19,39  L 17,39  L 17,40  L 16,40  L 16,42  L 15,42  L 15,45  L 35,45  Z  M 23,18  L 27,18  L 27,27  L 23,27  Z  " style="fill:rgb(0, 0, 0); fill-opacity:1.000; stroke:none;" />
 <path d="  M 5,28  L 6,28  L 6,27  L 5,27  Z  " style="fill:rgb(0, 0, 0); fill-opacity:0.831; stroke:none;" />
 <path d="  M 8,30  L 8,29  L 7,29  L 7,30  Z  " style="fill:rgb(0, 0, 0); fill-opacity:0.831; stroke:none;" />
 <path d="  M 30,12  L 29,12  L 29,13  L 30,13  Z  " style="fill:rgb(0, 0, 0); fill-opacity:0.831; stroke:none;" />
 <path d="  M 6,29  L 6,28  L 5,28  L 5,29  Z  " style="fill:rgb(0, 0, 0); fill-opacity:0.373; stroke:none;" />
 <path d="  M 6,30  L 7,30  L 7,29  L 6,29  Z  " style="fill:rgb(0, 0, 0); fill-opacity:0.373; stroke:none;" />
 <path d="  M 6,21  L 6,22  L 7,22  L 7,21  Z  " style="fill:rgb(0, 0, 0); fill-opacity:0.565; stroke:none;" />
 <path d="  M 44,21  L 43,21  L 43,22  L 44,22  Z  " style="fill:rgb(0, 0, 0); fill-opacity:0.565; stroke:none;" />
 <path d="  M 8,22  L 8,21  L 7,21  L 7,22  Z  " style="fill:rgb(0, 0, 0); fill-opacity:0.792; stroke:none;" />
 <path d="  M 18,20  L 19,20  L 19,19  L 18,19  Z  " style="fill:rgb(0, 0, 0); fill-opacity:0.792; stroke:none;" />
 <path d="  M 32,19  L 31,19  L 31,20  L 32,20  Z  " style="fill:rgb(0, 0, 0); fill-opacity:0.792; stroke:none;" />
 <path d="  M 43,22  L 43,21  L 42,21  L 42,22  Z  " style="fill:rgb(0, 0, 0); fill-opacity:0.792; stroke:none;" />
 <path d="  M 8,22  L 9,22  L 9,21  L 8,21  Z  " style="fill:rgb(0, 0, 0); fill-opacity:0.961; stroke:none;" />
 <path d="  M 20,19  L 19,19  L 19,20  L 20,20  Z  " style="fill:rgb(0, 0, 0); fill-opacity:0.961; stroke:none;" />
 <path d="  M 30,19  L 30,20  L 31,20  L 31,19  Z  " style="fill:rgb(0, 0, 0); fill-opacity:0.961; stroke:none;" />
 <path d="  M 34,42  L 35,42  L 35,41  L 34,41  Z  " style="fill:rgb(0, 0, 0); fill-opacity:0.961; stroke:none;" />
 <path d="  M 41,21  L 41,22  L 42,22  L 42,21  Z  " style="fill:rgb(0, 0, 0); fill-opacity:0.961; stroke:none;" />
 <path d="  M 10,21  L 10,20  L 9,20  L 9,21  Z  " style="fill:rgb(0, 0, 0); fill-opacity:0.102; stroke:none;" />
 <path d="  M 11,20  L 10,20  L 10,21  L 11,21  Z  " style="fill:rgb(0, 0, 0); fill-opacity:0.302; stroke:none;" />
 <path d="  M 31,38  L 31,37  L 30,37  L 30,38  Z  " style="fill:rgb(0, 0, 0); fill-opacity:0.302; stroke:none;" />
 <path d="  M 33,39  L 33,38  L 32,38  L 32,39  Z  " style="fill:rgb(0, 0, 0); fill-opacity:0.302; stroke:none;" />
 <path d="  M 12,21  L 12,20  L 11,20  L 11,21  Z  " style="fill:rgb(0, 0, 0); fill-opacity:0.502; stroke:none;" />
 <path d="  M 12,21  L 13,21  L 13,20  L 12,20  Z  " style="fill:rgb(0, 0, 0); fill-opacity:0.667; stroke:none;" />
 <path d="  M 19,7  L 19,5  L 18,5  L 18,7  Z  " style="fill:rgb(0, 0, 0); fill-opacity:0.667; stroke:none;" />
 <path d="  M 31,7  L 32,7  L 32,5  L 31,5  Z  " style="fill:rgb(0, 0, 0); fill-opacity:0.667; stroke:none;" />
 <path d="  M 14,21  L 14,20  L 13,20  L 13,21  Z  " style="fill:rgb(0, 0, 0); fill-opacity:0.835; stroke:none;" />
 <path d="  M 22,10  L 22,11  L 23,11  L 23,10  Z  " style="fill:rgb(0, 0, 0); fill-opacity:0.835; stroke:none;" />
 <path d="  M 28,10  L 27,10  L 27,11  L 28,11  Z  " style="fill:rgb(0, 0, 0); fill-opacity:0.835; stroke:none;" />
 <path d="  M 15,19  L 14,19  L 14,20  L 15,20  Z  " style="fill:rgb(0, 0, 0); fill-opacity:0.063; stroke:none;" />
 <path d="  M 35,20  L 36,20  L 36,19  L 35,19  Z  " style="fill:rgb(0, 0, 0); fill-opacity:0.063; stroke:none;" />
 <path d="  M 15,20  L 14,20  L 14,21  L 15,21  Z  " style="fill:rgb(0, 0, 0); fill-opacity:0.996; stroke:none;" />
 <path d="  M 15,19  L 15,20  L 16,20  L 16,19  Z  " style="fill:rgb(0, 0, 0); fill-opacity:0.243; stroke:none;" />
 <path d="  M 35,20  L 35,19  L 34,19  L 34,20  Z  " style="fill:rgb(0, 0, 0); fill-opacity:0.243; stroke:none;" />
 <path d="  M 16,39  L 15,39  L 15,40  L 16,40  Z  " style="fill:rgb(0, 0, 0); fill-opacity:0.075; stroke:none;" />
 <path d="  M 15,40  L 15,41  L 16,41  L 16,40  Z  " style="fill:rgb(0, 0, 0); fill-opacity:0.659; stroke:none;" />
 <path d="  M 16,42  L 16,41  L 15,41  L 15,42  Z  " style="fill:rgb(0, 0, 0); fill-opacity:0.965; stroke:none;" />
 <path d="  M 16,19  L 16,20  L 17,20  L 17,19  Z  " style="fill:rgb(0, 0, 0); fill-opacity:0.424; stroke:none;" />
 <path d="  M 33,19  L 33,20  L 34,20  L 34,19  Z  " style="fill:rgb(0, 0, 0); fill-opacity:0.424; stroke:none;" />
 <path d="  M 17,39  L 16,39  L 16,40  L 17,40  Z  " style="fill:rgb(0, 0, 0); fill-opacity:0.722; stroke:none;" />
 <path d="  M 34,40  L 34,39  L 33,39  L 33,40  Z  " style="fill:rgb(0, 0, 0); fill-opacity:0.722; stroke:none;" />
 <path d="  M 18,20  L 18,19  L 17,19  L 17,20  Z  " style="fill:rgb(0, 0, 0); fill-opacity:0.604; stroke:none;" />
 <path d="  M 32,19  L 32,20  L 33,20  L 33,19  Z  " style="fill:rgb(0, 0, 0); fill-opacity:0.604; stroke:none;" />
 <path d="  M 17,38  L 17,39  L 18,39  L 18,38  Z  " style="fill:rgb(0, 0, 0); fill-opacity:0.235; stroke:none;" />
 <path d="  M 19,37  L 19,38  L 20,38  L 20,37  Z  " style="fill:rgb(0, 0, 0); fill-opacity:0.235; stroke:none;" />
 <path d="  M 18,7  L 18,8  L 19,8  L 19,7  Z  " style="fill:rgb(0, 0, 0); fill-opacity:0.357; stroke:none;" />
 <path d="  M 32,8  L 32,7  L 31,7  L 31,8  Z  " style="fill:rgb(0, 0, 0); fill-opacity:0.357; stroke:none;" />
 <path d="  M 19,38  L 18,38  L 18,39  L 19,39  Z  " style="fill:rgb(0, 0, 0); fill-opacity:0.733; stroke:none;" />
 <path d="  M 21,37  L 20,37  L 20,38  L 21,38  Z  " style="fill:rgb(0, 0, 0); fill-opacity:0.733; stroke:none;" />
 <path d="  M 37,20  L 37,21  L 38,21  L 38,20  Z  " style="fill:rgb(0, 0, 0); fill-opacity:0.733; stroke:none;" />
 <path d="  M 19,7  L 19,8  L 23,8  L 23,7  Z  " style="fill:rgb(0, 0, 0); fill-opacity:0.533; stroke:none;" />
 <path d="  M 31,8  L 31,7  L 27,7  L 27,8  Z  " style="fill:rgb(0, 0, 0); fill-opacity:0.533; stroke:none;" />
 <path d="  M 19,19  L 20,19  L 20,18  L 19,18  Z  " style="fill:rgb(0, 0, 0); fill-opacity:0.012; stroke:none;" />
 <path d="  M 31,19  L 31,18  L 30,18  L 30,19  Z  " style="fill:rgb(0, 0, 0); fill-opacity:0.012; stroke:none;" />
 <path d="  M 41,20  L 41,21  L 42,21  L 42,20  Z  " style="fill:rgb(0, 0, 0); fill-opacity:0.012; stroke:none;" />
 <path d="  M 21,12  L 21,11  L 20,11  L 20,12  Z  " style="fill:rgb(0, 0, 0); fill-opacity:0.388; stroke:none;" />
 <path d="  M 21,12  L 20,12  L 20,13  L 21,13  Z  " style="fill:rgb(0, 0, 0); fill-opacity:0.839; stroke:none;" />
 <path d="  M 21,30  L 20,30  L 20,31  L 21,31  Z  " style="fill:rgb(0, 0, 0); fill-opacity:0.576; stroke:none;" />
 <path d="  M 29,31  L 30,31  L 30,30  L 29,30  Z  " style="fill:rgb(0, 0, 0); fill-opacity:0.576; stroke:none;" />
 <path d="  M 21,32  L 21,31  L 20,31  L 20,32  Z  " style="fill:rgb(0, 0, 0); fill-opacity:0.447; stroke:none;" />
 <path d="  M 30,32  L 30,31  L 29,31  L 29,32  Z  " style="fill:rgb(0, 0, 0); fill-opacity:0.447; stroke:none;" />
 <path d="  M 20,33  L 21,33  L 21,32  L 20,32  Z  " style="fill:rgb(0, 0, 0); fill-opacity:0.318; stroke:none;" />
 <path d="  M 20,34  L 21,34  L 21,33  L 20,33  Z  " style="fill:rgb(0, 0, 0); fill-opacity:0.180; stroke:none;" />
 <path d="  M 21,34  L 20,34  L 20,35  L 21,35  Z  " style="fill:rgb(0, 0, 0); fill-opacity:0.024; stroke:none;" />
 <path d="  M 29,35  L 30,35  L 30,34  L 29,34  Z  " style="fill:rgb(0, 0, 0); fill-opacity:0.024; stroke:none;" />
 <path d="  M 22,11  L 22,10  L 21,10  L 21,11  Z  " style="fill:rgb(0, 0, 0); fill-opacity:0.384; stroke:none;" />
 <path d="  M 21,34  L 21,35  L 22,35  L 22,34  Z  " style="fill:rgb(0, 0, 0); fill-opacity:0.976; stroke:none;" />
 <path d="  M 29,35  L 29,34  L 28,34  L 28,35  Z  " style="fill:rgb(0, 0, 0); fill-opacity:0.976; stroke:none;" />
 <path d="  M 22,35  L 21,35  L 21,36  L 22,36  Z  " style="fill:rgb(0, 0, 0); fill-opacity:0.820; stroke:none;" />
 <path d="  M 22,37  L 22,36  L 21,36  L 21,37  Z  " style="fill:rgb(0, 0, 0); fill-opacity:0.682; stroke:none;" />
 <path d="  M 28,36  L 28,37  L 29,37  L 29,36  Z  " style="fill:rgb(0, 0, 0); fill-opacity:0.682; stroke:none;" />
 <path d="  M 23,8  L 24,8  L 24,7  L 23,7  Z  " style="fill:rgb(0, 0, 0); fill-opacity:0.651; stroke:none;" />
 <path d="  M 27,7  L 26,7  L 26,8  L 27,8  Z  " style="fill:rgb(0, 0, 0); fill-opacity:0.651; stroke:none;" />
 <path d="  M 24,10  L 24,8  L 23,8  L 23,10  Z  " style="fill:rgb(0, 0, 0); fill-opacity:0.251; stroke:none;" />
 <path d="  M 27,8  L 26,8  L 26,10  L 27,10  Z  " style="fill:rgb(0, 0, 0); fill-opacity:0.251; stroke:none;" />
 <path d="  M 24,19  L 24,18  L 23,18  L 23,19  Z  " style="fill:rgb(0, 0, 0); fill-opacity:0.945; stroke:none;" />
 <path d="  M 23,20  L 24,20  L 24,19  L 23,19  Z  " style="fill:rgb(0, 0, 0); fill-opacity:0.459; stroke:none;" />
 <path d="  M 24,18  L 24,19  L 25,19  L 25,18  Z  " style="fill:rgb(0, 0, 0); fill-opacity:0.459; stroke:none;" />
 <path d="  M 23,25  L 24,25  L 24,20  L 23,20  Z  " style="fill:rgb(0, 0, 0); fill-opacity:0.333; stroke:none;" />
 <path d="  M 27,20  L 26,20  L 26,25  L 27,25  Z  " style="fill:rgb(0, 0, 0); fill-opacity:0.333; stroke:none;" />
 <path d="  M 24,26  L 24,25  L 23,25  L 23,26  Z  " style="fill:rgb(0, 0, 0); fill-opacity:0.463; stroke:none;" />
 <path d="  M 26,27  L 26,26  L 24,26  L 24,27  Z  " style="fill:rgb(0, 0, 0); fill-opacity:0.463; stroke:none;" />
 <path d="  M 25,18  L 25,19  L 26,19  L 26,18  Z  " style="fill:rgb(0, 0, 0); fill-opacity:0.463; stroke:none;" />
 <path d="  M 27,19  L 26,19  L 26,20  L 27,20  Z  " style="fill:rgb(0, 0, 0); fill-opacity:0.463; stroke:none;" />
 <path d="  M 26,26  L 27,26  L 27,25  L 26,25  Z  " style="fill:rgb(0, 0, 0); fill-opacity:0.463; stroke:none;" />
 <path d="  M 23,26  L 23,27  L 24,27  L 24,26  Z  " style="fill:rgb(0, 0, 0); fill-opacity:0.949; stroke:none;" />
 <path d="  M 26,19  L 27,19  L 27,18  L 26,18  Z  " style="fill:rgb(0, 0, 0); fill-opacity:0.949; stroke:none;" />
 <path d="  M 27,27  L 27,26  L 26,26  L 26,27  Z  " style="fill:rgb(0, 0, 0); fill-opacity:0.949; stroke:none;" />
 <path d="  M 29,11  L 29,10  L 28,10  L 28,11  Z  " style="fill:rgb(0, 0, 0); fill-opacity:0.376; stroke:none;" />
 <path d="  M 29,11  L 29,12  L 30,12  L 30,11  Z  " style="fill:rgb(0, 0, 0); fill-opacity:0.376; stroke:none;" />
 <path d="  M 29,36  L 29,35  L 28,35  L 28,36  Z  " style="fill:rgb(0, 0, 0); fill-opacity:0.812; stroke:none;" />
 <path d="  M 29,33  L 30,33  L 30,32  L 29,32  Z  " style="fill:rgb(0, 0, 0); fill-opacity:0.314; stroke:none;" />
 <path d="  M 29,33  L 29,34  L 30,34  L 30,33  Z  " style="fill:rgb(0, 0, 0); fill-opacity:0.176; stroke:none;" />
 <path d="  M 29,37  L 29,38  L 30,38  L 30,37  Z  " style="fill:rgb(0, 0, 0); fill-opacity:0.769; stroke:none;" />
 <path d="  M 32,39  L 32,38  L 31,38  L 31,39  Z  " style="fill:rgb(0, 0, 0); fill-opacity:0.769; stroke:none;" />
 <path d="  M 34,40  L 35,40  L 35,39  L 34,39  Z  " style="fill:rgb(0, 0, 0); fill-opacity:0.071; stroke:none;" />
 <path d="  M 34,40  L 34,41  L 35,41  L 35,40  Z  " style="fill:rgb(0, 0, 0); fill-opacity:0.655; stroke:none;" />
 <path d="  M 36,20  L 36,21  L 37,21  L 37,20  Z  " style="fill:rgb(0, 0, 0); fill-opacity:0.902; stroke:none;" />
 <path d="  M 39,21  L 39,20  L 38,20  L 38,21  Z  " style="fill:rgb(0, 0, 0); fill-opacity:0.569; stroke:none;" />
 <path d="  M 40,20  L 39,20  L 39,21  L 40,21  Z  " style="fill:rgb(0, 0, 0); fill-opacity:0.369; stroke:none;" />
 <path d="  M 44,30  L 44,29  L 43,29  L 43,30  Z  " style="fill:rgb(0, 0, 0); fill-opacity:0.369; stroke:none;" />
 <path d="  M 41,21  L 41,20  L 40,20  L 40,21  Z  " style="fill:rgb(0, 0, 0); fill-opacity:0.169; stroke:none;" />
 <path d="  M 43,29  L 42,29  L 42,30  L 43,30  Z  " style="fill:rgb(0, 0, 0); fill-opacity:0.827; stroke:none;" />
 <path d="  M 44,27  L 44,28  L 45,28  L 45,27  Z  " style="fill:rgb(0, 0, 0); fill-opacity:0.827; stroke:none;" />
 <path d="  M 45,22  L 44,22  L 44,23  L 45,23  Z  " style="fill:rgb(0, 0, 0); fill-opacity:0.749; stroke:none;" />
 <path d="  M 45,28  L 44,28  L 44,29  L 45,29  Z  " style="fill:rgb(0, 0, 0); fill-opacity:0.365; stroke:none;" />
</svg>

